G04 Layer_Color=8388736*
%FSLAX44Y44*%
%MOMM*%
G71*
G01*
G75*
G04:AMPARAMS|DCode=33|XSize=1.2032mm|YSize=1.1032mm|CornerRadius=0.2141mm|HoleSize=0mm|Usage=FLASHONLY|Rotation=0.000|XOffset=0mm|YOffset=0mm|HoleType=Round|Shape=RoundedRectangle|*
%AMROUNDEDRECTD33*
21,1,1.2032,0.6750,0,0,0.0*
21,1,0.7750,1.1032,0,0,0.0*
1,1,0.4282,0.3875,-0.3375*
1,1,0.4282,-0.3875,-0.3375*
1,1,0.4282,-0.3875,0.3375*
1,1,0.4282,0.3875,0.3375*
%
%ADD33ROUNDEDRECTD33*%
%ADD34R,1.4732X0.8382*%
%ADD35R,1.2192X1.0668*%
%ADD36O,2.0032X0.5532*%
%ADD37R,1.4032X2.0032*%
%ADD38R,0.8032X1.7532*%
G04:AMPARAMS|DCode=39|XSize=0.8032mm|YSize=1.2032mm|CornerRadius=0.1766mm|HoleSize=0mm|Usage=FLASHONLY|Rotation=0.000|XOffset=0mm|YOffset=0mm|HoleType=Round|Shape=RoundedRectangle|*
%AMROUNDEDRECTD39*
21,1,0.8032,0.8500,0,0,0.0*
21,1,0.4500,1.2032,0,0,0.0*
1,1,0.3532,0.2250,-0.4250*
1,1,0.3532,-0.2250,-0.4250*
1,1,0.3532,-0.2250,0.4250*
1,1,0.3532,0.2250,0.4250*
%
%ADD39ROUNDEDRECTD39*%
G04:AMPARAMS|DCode=40|XSize=1.6032mm|YSize=1.2032mm|CornerRadius=0.2266mm|HoleSize=0mm|Usage=FLASHONLY|Rotation=0.000|XOffset=0mm|YOffset=0mm|HoleType=Round|Shape=RoundedRectangle|*
%AMROUNDEDRECTD40*
21,1,1.6032,0.7500,0,0,0.0*
21,1,1.1500,1.2032,0,0,0.0*
1,1,0.4532,0.5750,-0.3750*
1,1,0.4532,-0.5750,-0.3750*
1,1,0.4532,-0.5750,0.3750*
1,1,0.4532,0.5750,0.3750*
%
%ADD40ROUNDEDRECTD40*%
%ADD41C,1.7032*%
%ADD42R,1.7032X1.7032*%
%ADD43O,1.7272X2.2352*%
G04:AMPARAMS|DCode=44|XSize=1.7272mm|YSize=2.2352mm|CornerRadius=0.2921mm|HoleSize=0mm|Usage=FLASHONLY|Rotation=0.000|XOffset=0mm|YOffset=0mm|HoleType=Round|Shape=RoundedRectangle|*
%AMROUNDEDRECTD44*
21,1,1.7272,1.6510,0,0,0.0*
21,1,1.1430,2.2352,0,0,0.0*
1,1,0.5842,0.5715,-0.8255*
1,1,0.5842,-0.5715,-0.8255*
1,1,0.5842,-0.5715,0.8255*
1,1,0.5842,0.5715,0.8255*
%
%ADD44ROUNDEDRECTD44*%
%ADD45C,3.7032*%
%ADD46C,0.8032*%
D33*
X58420Y-11820D02*
D03*
Y-28820D02*
D03*
X-58420Y-11820D02*
D03*
Y-28820D02*
D03*
Y59300D02*
D03*
Y42300D02*
D03*
X58420D02*
D03*
Y59300D02*
D03*
D34*
X154940Y76200D02*
D03*
Y66040D02*
D03*
Y104140D02*
D03*
Y93980D02*
D03*
X154940Y47680D02*
D03*
Y38608D02*
D03*
D35*
X-17526Y-118250D02*
D03*
X17500D02*
D03*
X-17526Y-135890D02*
D03*
X17500D02*
D03*
D36*
X28500Y-29250D02*
D03*
Y-22750D02*
D03*
Y-16250D02*
D03*
Y-9750D02*
D03*
Y-3250D02*
D03*
Y3250D02*
D03*
Y9750D02*
D03*
Y16250D02*
D03*
Y22750D02*
D03*
Y29250D02*
D03*
X-28500Y-29250D02*
D03*
Y-22750D02*
D03*
Y-16250D02*
D03*
Y-9750D02*
D03*
Y-3250D02*
D03*
Y3250D02*
D03*
Y9750D02*
D03*
Y16250D02*
D03*
Y22750D02*
D03*
Y29250D02*
D03*
D37*
X27760Y199020D02*
D03*
X-28240D02*
D03*
D38*
X14760Y160020D02*
D03*
X4760D02*
D03*
X-5240D02*
D03*
X-15240D02*
D03*
D39*
X10160Y97860D02*
D03*
X19660Y74860D02*
D03*
X660D02*
D03*
D40*
X-22860Y79900D02*
D03*
Y97900D02*
D03*
X43180Y95360D02*
D03*
Y77360D02*
D03*
X58420Y24240D02*
D03*
Y6240D02*
D03*
X-58420D02*
D03*
Y24240D02*
D03*
D41*
X152400Y-99060D02*
D03*
X127000D02*
D03*
X152400Y-73660D02*
D03*
X127000D02*
D03*
X152400Y-48260D02*
D03*
X-124460Y40640D02*
D03*
X-149860Y15240D02*
D03*
X-124460D02*
D03*
X-149860Y-10160D02*
D03*
X-124460D02*
D03*
X-149860Y-35560D02*
D03*
X-124460D02*
D03*
D42*
X127000Y-48260D02*
D03*
X-149860Y40640D02*
D03*
D43*
X12700Y127000D02*
D03*
X-12700D02*
D03*
X38100D02*
D03*
D44*
X-38100D02*
D03*
D45*
X-155200Y-155200D02*
D03*
X155200D02*
D03*
Y155200D02*
D03*
X-155200D02*
D03*
D46*
X171450Y74930D02*
D03*
X-38100Y81280D02*
D03*
X71120Y7400D02*
D03*
X7620Y27940D02*
D03*
X10160Y15240D02*
D03*
X40640Y40640D02*
D03*
X27940Y45720D02*
D03*
X38100Y60960D02*
D03*
X-27940Y45720D02*
D03*
X-36830Y-135890D02*
D03*
X121920Y104140D02*
D03*
Y74930D02*
D03*
X0Y53340D02*
D03*
X10160D02*
D03*
X20320Y52070D02*
D03*
X121920Y54610D02*
D03*
X13970Y-6350D02*
D03*
X-87630Y-2540D02*
D03*
X-13970Y-46990D02*
D03*
X-45720Y-17780D02*
D03*
X8890Y-22860D02*
D03*
X73660Y27940D02*
D03*
M02*
