G04 Layer_Color=65535*
%FSLAX44Y44*%
%MOMM*%
G71*
G01*
G75*
%ADD18C,0.2500*%
%ADD19C,0.2032*%
%ADD20C,0.5000*%
%ADD21C,0.2000*%
%ADD29C,0.6000*%
%ADD30C,0.1500*%
%ADD31C,0.3000*%
%ADD32C,0.1270*%
G36*
X2768Y-65588D02*
X3018D01*
X3517Y-65621D01*
X3551D01*
X3634Y-65638D01*
X3767Y-65655D01*
X3951Y-65671D01*
X4151Y-65705D01*
X4384Y-65738D01*
X4867Y-65821D01*
X4900D01*
X4984Y-65855D01*
X5117Y-65871D01*
X5284Y-65921D01*
X5484Y-65955D01*
X5700Y-66005D01*
X6133Y-66121D01*
X6167D01*
X6233Y-66155D01*
X6350Y-66188D01*
X6500Y-66221D01*
X6667Y-66271D01*
X6850Y-66338D01*
X7250Y-66455D01*
Y-66471D01*
Y-66521D01*
X7233Y-66588D01*
X7216Y-66688D01*
X7183Y-66921D01*
X7133Y-67188D01*
Y-67204D01*
X7117Y-67254D01*
X7100Y-67321D01*
X7083Y-67404D01*
X7067Y-67521D01*
X7033Y-67638D01*
X6967Y-67904D01*
Y-67921D01*
X6950Y-67971D01*
X6933Y-68038D01*
X6916Y-68121D01*
X6833Y-68337D01*
X6750Y-68587D01*
Y-68604D01*
X6733Y-68637D01*
X6700Y-68704D01*
X6683Y-68787D01*
X6600Y-68987D01*
X6500Y-69220D01*
X6483D01*
X6433Y-69204D01*
X6350Y-69170D01*
X6233Y-69137D01*
X6100Y-69087D01*
X5950Y-69037D01*
X5617Y-68937D01*
X5600D01*
X5533Y-68921D01*
X5434Y-68887D01*
X5300Y-68854D01*
X5150Y-68821D01*
X4984Y-68771D01*
X4584Y-68687D01*
X4567D01*
X4484Y-68654D01*
X4384Y-68637D01*
X4234Y-68604D01*
X4067Y-68571D01*
X3867Y-68537D01*
X3451Y-68471D01*
X3417D01*
X3351Y-68454D01*
X3234D01*
X3084Y-68437D01*
X2901Y-68421D01*
X2684D01*
X2468Y-68404D01*
X2001D01*
X1834Y-68421D01*
X1635Y-68437D01*
X1435Y-68454D01*
X985Y-68521D01*
X951D01*
X885Y-68537D01*
X768Y-68571D01*
X618Y-68621D01*
X452Y-68671D01*
X268Y-68721D01*
X-132Y-68871D01*
X-148Y-68887D01*
X-215Y-68921D01*
X-298Y-68971D01*
X-415Y-69037D01*
X-532Y-69137D01*
X-665Y-69237D01*
X-781Y-69370D01*
X-898Y-69520D01*
X-915Y-69537D01*
X-931Y-69587D01*
X-981Y-69687D01*
X-1031Y-69804D01*
X-1081Y-69954D01*
X-1115Y-70120D01*
X-1148Y-70320D01*
X-1165Y-70537D01*
Y-70553D01*
Y-70587D01*
Y-70654D01*
X-1148Y-70720D01*
X-1131Y-70903D01*
X-1098Y-71103D01*
Y-71120D01*
X-1081Y-71137D01*
X-1048Y-71253D01*
X-981Y-71403D01*
X-898Y-71570D01*
Y-71586D01*
X-882Y-71603D01*
X-815Y-71703D01*
X-732Y-71837D01*
X-615Y-71970D01*
X-582Y-72003D01*
X-498Y-72086D01*
X-382Y-72186D01*
X-215Y-72303D01*
X-198D01*
X-182Y-72320D01*
X-82Y-72386D01*
X68Y-72486D01*
X235Y-72586D01*
X252D01*
X285Y-72603D01*
X335Y-72636D01*
X402Y-72670D01*
X568Y-72736D01*
X768Y-72820D01*
X785D01*
X818Y-72836D01*
X868Y-72853D01*
X951Y-72886D01*
X1135Y-72953D01*
X1351Y-73053D01*
X1368D01*
X1401Y-73070D01*
X1468Y-73086D01*
X1551Y-73120D01*
X1751Y-73186D01*
X1984Y-73253D01*
X2001D01*
X2034Y-73269D01*
X2101Y-73286D01*
X2168Y-73319D01*
X2351Y-73386D01*
X2568Y-73453D01*
X2784Y-73536D01*
X2951Y-73603D01*
X3018Y-73619D01*
X3067Y-73636D01*
X3101Y-73653D01*
X3134D01*
X3184Y-73669D01*
X3268Y-73703D01*
X3401Y-73736D01*
X3567Y-73803D01*
X3584D01*
X3634Y-73836D01*
X3717Y-73853D01*
X3834Y-73903D01*
X3951Y-73936D01*
X4101Y-73986D01*
X4401Y-74103D01*
X4417D01*
X4467Y-74136D01*
X4550Y-74169D01*
X4650Y-74219D01*
X4784Y-74269D01*
X4917Y-74336D01*
X5200Y-74469D01*
X5217Y-74486D01*
X5267Y-74503D01*
X5350Y-74552D01*
X5450Y-74602D01*
X5684Y-74752D01*
X5933Y-74936D01*
X5950Y-74952D01*
X5983Y-74986D01*
X6050Y-75036D01*
X6133Y-75102D01*
X6333Y-75269D01*
X6550Y-75486D01*
X6567Y-75502D01*
X6600Y-75535D01*
X6650Y-75602D01*
X6717Y-75686D01*
X6866Y-75885D01*
X7033Y-76135D01*
X7050Y-76152D01*
X7067Y-76202D01*
X7117Y-76269D01*
X7167Y-76369D01*
X7233Y-76485D01*
X7300Y-76619D01*
X7450Y-76919D01*
Y-76935D01*
X7483Y-76985D01*
X7500Y-77085D01*
X7550Y-77202D01*
X7583Y-77335D01*
X7616Y-77502D01*
X7683Y-77852D01*
Y-77868D01*
X7700Y-77935D01*
X7716Y-78052D01*
X7733Y-78185D01*
X7750Y-78351D01*
X7766Y-78535D01*
X7783Y-78735D01*
Y-78951D01*
Y-78985D01*
Y-79068D01*
Y-79201D01*
X7766Y-79368D01*
X7750Y-79551D01*
X7733Y-79768D01*
X7650Y-80234D01*
Y-80268D01*
X7633Y-80334D01*
X7600Y-80451D01*
X7550Y-80601D01*
X7500Y-80784D01*
X7433Y-80984D01*
X7250Y-81401D01*
X7233Y-81417D01*
X7200Y-81484D01*
X7133Y-81601D01*
X7067Y-81734D01*
X6967Y-81884D01*
X6850Y-82051D01*
X6600Y-82417D01*
X6583Y-82434D01*
X6533Y-82500D01*
X6450Y-82584D01*
X6350Y-82684D01*
X6217Y-82817D01*
X6067Y-82967D01*
X5883Y-83117D01*
X5700Y-83267D01*
X5684Y-83284D01*
X5617Y-83334D01*
X5517Y-83400D01*
X5384Y-83500D01*
X5217Y-83600D01*
X5034Y-83717D01*
X4817Y-83833D01*
X4600Y-83950D01*
X4567Y-83967D01*
X4500Y-84000D01*
X4384Y-84050D01*
X4217Y-84133D01*
X4034Y-84200D01*
X3801Y-84300D01*
X3567Y-84383D01*
X3301Y-84467D01*
X3268Y-84483D01*
X3184Y-84500D01*
X3034Y-84533D01*
X2851Y-84583D01*
X2634Y-84650D01*
X2384Y-84700D01*
X2101Y-84750D01*
X1818Y-84800D01*
X1785D01*
X1684Y-84817D01*
X1535Y-84833D01*
X1335Y-84850D01*
X1101Y-84867D01*
X818Y-84883D01*
X518Y-84900D01*
X-315D01*
X-565Y-84883D01*
X-831D01*
X-1415Y-84850D01*
X-1448D01*
X-1548Y-84833D01*
X-1681D01*
X-1865Y-84800D01*
X-2081Y-84783D01*
X-2314Y-84750D01*
X-2814Y-84667D01*
X-2848D01*
X-2931Y-84650D01*
X-3048Y-84616D01*
X-3214Y-84583D01*
X-3414Y-84550D01*
X-3614Y-84500D01*
X-4064Y-84383D01*
X-4097D01*
X-4164Y-84367D01*
X-4281Y-84333D01*
X-4447Y-84283D01*
X-4614Y-84233D01*
X-4814Y-84183D01*
X-5230Y-84033D01*
Y-84017D01*
Y-83967D01*
X-5214Y-83900D01*
X-5197Y-83800D01*
X-5180Y-83583D01*
X-5130Y-83317D01*
Y-83300D01*
X-5114Y-83250D01*
X-5097Y-83184D01*
X-5080Y-83084D01*
X-5047Y-82967D01*
X-5014Y-82850D01*
X-4930Y-82567D01*
Y-82550D01*
X-4914Y-82500D01*
X-4881Y-82434D01*
X-4847Y-82351D01*
X-4814Y-82234D01*
X-4780Y-82117D01*
X-4681Y-81851D01*
Y-81834D01*
X-4664Y-81784D01*
X-4631Y-81717D01*
X-4597Y-81617D01*
X-4564Y-81517D01*
X-4514Y-81384D01*
X-4414Y-81117D01*
X-4397Y-81134D01*
X-4331Y-81151D01*
X-4231Y-81184D01*
X-4097Y-81234D01*
X-3947Y-81301D01*
X-3764Y-81351D01*
X-3381Y-81484D01*
X-3364D01*
X-3281Y-81501D01*
X-3181Y-81534D01*
X-3048Y-81567D01*
X-2881Y-81601D01*
X-2681Y-81651D01*
X-2264Y-81751D01*
X-2231D01*
X-2165Y-81767D01*
X-2048Y-81784D01*
X-1898Y-81817D01*
X-1715Y-81834D01*
X-1531Y-81867D01*
X-1098Y-81917D01*
X-998D01*
X-882Y-81934D01*
X-732D01*
X-548Y-81951D01*
X-365D01*
X68Y-81967D01*
X318D01*
X452Y-81951D01*
X585D01*
X868Y-81934D01*
X935D01*
X1018Y-81917D01*
X1118Y-81901D01*
X1235Y-81884D01*
X1368Y-81867D01*
X1651Y-81801D01*
X1668D01*
X1718Y-81784D01*
X1785Y-81767D01*
X1884Y-81734D01*
X2101Y-81667D01*
X2351Y-81567D01*
X2368D01*
X2401Y-81551D01*
X2468Y-81517D01*
X2551Y-81484D01*
X2751Y-81384D01*
X2968Y-81267D01*
X2984D01*
X3018Y-81234D01*
X3067Y-81201D01*
X3134Y-81151D01*
X3301Y-81034D01*
X3467Y-80868D01*
X3484Y-80851D01*
X3501Y-80834D01*
X3551Y-80784D01*
X3601Y-80717D01*
X3734Y-80551D01*
X3867Y-80368D01*
X3884Y-80351D01*
X3901Y-80318D01*
X3934Y-80284D01*
X3967Y-80218D01*
X4051Y-80051D01*
X4134Y-79834D01*
Y-79818D01*
X4151Y-79784D01*
Y-79718D01*
X4167Y-79651D01*
X4184Y-79451D01*
X4201Y-79218D01*
Y-79201D01*
Y-79151D01*
Y-79085D01*
Y-78985D01*
X4184Y-78768D01*
X4151Y-78535D01*
Y-78518D01*
X4134Y-78485D01*
X4117Y-78435D01*
X4101Y-78351D01*
X4034Y-78185D01*
X3934Y-78018D01*
Y-78002D01*
X3917Y-77985D01*
X3851Y-77868D01*
X3751Y-77735D01*
X3617Y-77585D01*
Y-77568D01*
X3584Y-77552D01*
X3501Y-77468D01*
X3384Y-77352D01*
X3217Y-77218D01*
X3201D01*
X3184Y-77185D01*
X3134Y-77168D01*
X3067Y-77119D01*
X2901Y-77035D01*
X2718Y-76919D01*
X2701D01*
X2684Y-76902D01*
X2634Y-76869D01*
X2568Y-76835D01*
X2401Y-76752D01*
X2184Y-76652D01*
X2168D01*
X2134Y-76635D01*
X2068Y-76602D01*
X2001Y-76585D01*
X1801Y-76519D01*
X1568Y-76435D01*
X1551D01*
X1518Y-76419D01*
X1451Y-76385D01*
X1351Y-76369D01*
X1135Y-76302D01*
X885Y-76219D01*
X868D01*
X851Y-76202D01*
X735Y-76169D01*
X585Y-76102D01*
X418Y-76052D01*
X252Y-75985D01*
X118Y-75935D01*
X52Y-75902D01*
X18D01*
X2Y-75885D01*
X-32Y-75869D01*
X-65Y-75852D01*
X-132Y-75835D01*
X-248Y-75785D01*
X-382Y-75736D01*
X-398D01*
X-432Y-75719D01*
X-498Y-75686D01*
X-565Y-75669D01*
X-665Y-75619D01*
X-781Y-75569D01*
X-1048Y-75469D01*
X-1365Y-75336D01*
X-1698Y-75169D01*
X-2031Y-75002D01*
X-2364Y-74819D01*
X-2381D01*
X-2398Y-74802D01*
X-2498Y-74736D01*
X-2648Y-74636D01*
X-2848Y-74503D01*
X-3064Y-74352D01*
X-3281Y-74186D01*
X-3514Y-74003D01*
X-3714Y-73803D01*
X-3731Y-73769D01*
X-3797Y-73703D01*
X-3897Y-73586D01*
X-4014Y-73436D01*
X-4147Y-73253D01*
X-4281Y-73036D01*
X-4397Y-72786D01*
X-4514Y-72520D01*
Y-72503D01*
X-4530Y-72486D01*
X-4547Y-72386D01*
X-4597Y-72253D01*
X-4631Y-72053D01*
X-4681Y-71803D01*
X-4730Y-71537D01*
X-4747Y-71237D01*
X-4764Y-70903D01*
Y-70887D01*
Y-70853D01*
Y-70787D01*
Y-70687D01*
X-4747Y-70587D01*
Y-70454D01*
X-4714Y-70170D01*
X-4664Y-69820D01*
X-4581Y-69454D01*
X-4481Y-69071D01*
X-4331Y-68704D01*
Y-68687D01*
X-4314Y-68654D01*
X-4281Y-68604D01*
X-4247Y-68537D01*
X-4147Y-68354D01*
X-3997Y-68121D01*
X-3814Y-67854D01*
X-3598Y-67571D01*
X-3331Y-67288D01*
X-3014Y-67004D01*
X-2998Y-66988D01*
X-2981Y-66971D01*
X-2931Y-66938D01*
X-2848Y-66888D01*
X-2764Y-66821D01*
X-2664Y-66754D01*
X-2414Y-66604D01*
X-2098Y-66421D01*
X-1731Y-66238D01*
X-1315Y-66071D01*
X-848Y-65921D01*
X-831D01*
X-781Y-65905D01*
X-715Y-65888D01*
X-615Y-65871D01*
X-498Y-65838D01*
X-348Y-65805D01*
X-182Y-65771D01*
X2Y-65738D01*
X218Y-65721D01*
X435Y-65688D01*
X685Y-65655D01*
X951Y-65621D01*
X1501Y-65588D01*
X2118Y-65571D01*
X2568D01*
X2768Y-65588D01*
D02*
G37*
G36*
X-174700Y-155700D02*
Y-162350D01*
X-172750Y-164300D01*
Y-165600D01*
X-168200Y-170150D01*
X-167550D01*
X-163650Y-174050D01*
X-159750D01*
X-158450Y-175350D01*
X-155200D01*
Y-184450D01*
X-157800D01*
X-158450Y-183800D01*
X-163000D01*
X-164950Y-181850D01*
X-167550D01*
X-169500Y-179900D01*
X-171450D01*
X-176000Y-175350D01*
Y-174700D01*
X-180550Y-170150D01*
Y-168200D01*
X-182500Y-166250D01*
X-183150Y-162350D01*
X-184200Y-160000D01*
Y-155200D01*
X-175200D01*
X-174700Y-155700D01*
D02*
G37*
G36*
X184450Y-157800D02*
X183800Y-158450D01*
Y-163000D01*
X181850Y-164950D01*
Y-167550D01*
X179900Y-169500D01*
Y-171450D01*
X175350Y-176000D01*
X174700D01*
X170150Y-180550D01*
X168200D01*
X166250Y-182500D01*
X162350Y-183150D01*
X160000Y-184200D01*
X155200D01*
Y-175200D01*
X155700Y-174700D01*
X162350D01*
X164300Y-172750D01*
X165600D01*
X170150Y-168200D01*
Y-167550D01*
X174050Y-163650D01*
Y-159750D01*
X175350Y-158450D01*
Y-155200D01*
X184450D01*
Y-157800D01*
D02*
G37*
G36*
X-9396Y-65855D02*
X-9246Y-65871D01*
X-8963D01*
X-8796Y-65888D01*
X-8713D01*
X-8646Y-65905D01*
X-8496D01*
X-8330Y-65921D01*
X-8296D01*
X-8196Y-65938D01*
X-8063Y-65955D01*
X-7913Y-65988D01*
Y-66021D01*
Y-66105D01*
Y-66255D01*
Y-66438D01*
Y-66671D01*
Y-66954D01*
Y-67254D01*
Y-67588D01*
Y-67937D01*
Y-68321D01*
Y-69104D01*
Y-69904D01*
Y-70687D01*
Y-70703D01*
Y-70770D01*
Y-70887D01*
Y-71020D01*
Y-71187D01*
Y-71403D01*
Y-71620D01*
Y-71870D01*
Y-72136D01*
Y-72403D01*
Y-72986D01*
Y-73569D01*
Y-74136D01*
Y-74153D01*
Y-74186D01*
Y-74253D01*
Y-74336D01*
Y-74436D01*
Y-74552D01*
Y-74836D01*
Y-75152D01*
Y-75502D01*
Y-75852D01*
Y-76202D01*
Y-76219D01*
Y-76235D01*
Y-76285D01*
Y-76352D01*
Y-76502D01*
Y-76719D01*
Y-76952D01*
Y-77202D01*
Y-77468D01*
Y-77718D01*
Y-77735D01*
Y-77785D01*
Y-77868D01*
Y-77952D01*
Y-78201D01*
Y-78451D01*
Y-78468D01*
Y-78501D01*
Y-78568D01*
Y-78651D01*
Y-78851D01*
Y-79051D01*
Y-79068D01*
Y-79101D01*
Y-79151D01*
Y-79218D01*
Y-79368D01*
Y-79535D01*
Y-79551D01*
Y-79568D01*
Y-79651D01*
Y-79784D01*
Y-79934D01*
Y-79951D01*
Y-80018D01*
Y-80134D01*
Y-80251D01*
Y-80401D01*
Y-80568D01*
Y-80884D01*
Y-80901D01*
Y-80968D01*
Y-81051D01*
Y-81201D01*
Y-81367D01*
Y-81584D01*
Y-81834D01*
Y-82117D01*
Y-82134D01*
Y-82167D01*
Y-82250D01*
Y-82334D01*
Y-82450D01*
Y-82584D01*
Y-82884D01*
Y-82900D01*
Y-82967D01*
Y-83050D01*
Y-83184D01*
Y-83334D01*
Y-83500D01*
Y-83700D01*
Y-83900D01*
X-7946D01*
X-8030Y-83933D01*
X-8146Y-83967D01*
X-8313Y-84000D01*
X-8529Y-84050D01*
X-8763Y-84117D01*
X-9013Y-84183D01*
X-9279Y-84250D01*
X-9313D01*
X-9413Y-84283D01*
X-9563Y-84317D01*
X-9779Y-84350D01*
X-10013Y-84400D01*
X-10296Y-84467D01*
X-10596Y-84517D01*
X-10929Y-84583D01*
X-10962D01*
X-11012Y-84600D01*
X-11079D01*
X-11245Y-84633D01*
X-11479Y-84667D01*
X-11745Y-84717D01*
X-12045Y-84750D01*
X-12362Y-84800D01*
X-12695Y-84833D01*
X-12778D01*
X-12845Y-84850D01*
X-13028D01*
X-13262Y-84867D01*
X-13545Y-84883D01*
X-13845D01*
X-14178Y-84900D01*
X-14845D01*
X-15078Y-84883D01*
X-15344D01*
X-15628Y-84867D01*
X-15944Y-84850D01*
X-16261Y-84833D01*
X-16294D01*
X-16344Y-84817D01*
X-16394D01*
X-16561Y-84800D01*
X-16761Y-84767D01*
X-17011Y-84733D01*
X-17294Y-84700D01*
X-17577Y-84650D01*
X-17877Y-84600D01*
X-17910D01*
X-18010Y-84567D01*
X-18160Y-84533D01*
X-18344Y-84483D01*
X-18577Y-84417D01*
X-18827Y-84333D01*
X-19360Y-84133D01*
X-19393Y-84117D01*
X-19477Y-84083D01*
X-19610Y-84000D01*
X-19777Y-83917D01*
X-19977Y-83800D01*
X-20193Y-83667D01*
X-20410Y-83517D01*
X-20643Y-83350D01*
X-20676Y-83334D01*
X-20743Y-83267D01*
X-20860Y-83167D01*
X-20993Y-83034D01*
X-21160Y-82867D01*
X-21326Y-82667D01*
X-21509Y-82450D01*
X-21693Y-82217D01*
X-21709Y-82184D01*
X-21776Y-82100D01*
X-21859Y-81967D01*
X-21976Y-81784D01*
X-22109Y-81567D01*
X-22243Y-81317D01*
X-22376Y-81018D01*
X-22509Y-80717D01*
Y-80701D01*
X-22526Y-80684D01*
X-22543Y-80634D01*
X-22559Y-80568D01*
X-22626Y-80384D01*
X-22693Y-80151D01*
X-22776Y-79868D01*
X-22859Y-79535D01*
X-22943Y-79151D01*
X-23009Y-78751D01*
Y-78735D01*
Y-78701D01*
X-23026Y-78635D01*
X-23043Y-78551D01*
X-23059Y-78451D01*
Y-78335D01*
X-23076Y-78185D01*
X-23093Y-78018D01*
X-23126Y-77652D01*
X-23159Y-77235D01*
X-23176Y-76769D01*
X-23192Y-76252D01*
Y-76235D01*
Y-76185D01*
Y-76102D01*
Y-75985D01*
Y-75852D01*
Y-75702D01*
Y-75519D01*
Y-75336D01*
Y-74919D01*
Y-74453D01*
Y-74003D01*
Y-73553D01*
Y-73536D01*
Y-73503D01*
Y-73436D01*
Y-73369D01*
Y-73269D01*
Y-73153D01*
Y-72886D01*
Y-72570D01*
Y-72236D01*
Y-71903D01*
Y-71570D01*
Y-71537D01*
Y-71453D01*
Y-71337D01*
Y-71187D01*
Y-71003D01*
Y-70803D01*
Y-70403D01*
Y-70387D01*
Y-70320D01*
Y-70237D01*
Y-70120D01*
Y-69987D01*
Y-69837D01*
Y-69537D01*
Y-69520D01*
Y-69487D01*
Y-69420D01*
Y-69354D01*
Y-69154D01*
Y-68904D01*
Y-68654D01*
Y-68421D01*
Y-68221D01*
Y-68137D01*
Y-68071D01*
Y-68054D01*
Y-68021D01*
Y-67937D01*
Y-67838D01*
Y-67688D01*
Y-67504D01*
Y-67271D01*
Y-67004D01*
Y-66988D01*
Y-66971D01*
Y-66888D01*
Y-66738D01*
Y-66571D01*
Y-66554D01*
Y-66521D01*
Y-66471D01*
Y-66405D01*
Y-66221D01*
Y-65988D01*
X-23142D01*
X-23059Y-65971D01*
X-22959Y-65955D01*
X-22843D01*
X-22693Y-65938D01*
X-22509Y-65905D01*
X-22293Y-65888D01*
X-22193D01*
X-22126Y-65871D01*
X-21793D01*
X-21693Y-65855D01*
X-21560Y-65838D01*
X-21293D01*
X-21160Y-65855D01*
X-21010Y-65871D01*
X-20693D01*
X-20510Y-65888D01*
X-20477D01*
X-20360Y-65905D01*
X-20210D01*
X-20043Y-65921D01*
X-20010D01*
X-19910Y-65938D01*
X-19777Y-65955D01*
X-19610Y-65988D01*
Y-66005D01*
Y-66055D01*
Y-66138D01*
Y-66238D01*
Y-66371D01*
Y-66521D01*
Y-66705D01*
Y-66888D01*
Y-67304D01*
Y-67754D01*
Y-68204D01*
Y-68654D01*
Y-68671D01*
Y-68704D01*
Y-68754D01*
Y-68837D01*
Y-68937D01*
Y-69054D01*
Y-69321D01*
Y-69620D01*
Y-69954D01*
Y-70287D01*
Y-70620D01*
Y-70654D01*
Y-70720D01*
Y-70853D01*
Y-71003D01*
Y-71170D01*
Y-71370D01*
Y-71753D01*
Y-71770D01*
Y-71837D01*
Y-71920D01*
Y-72036D01*
Y-72170D01*
Y-72320D01*
Y-72603D01*
Y-72620D01*
Y-72653D01*
Y-72720D01*
Y-72786D01*
Y-72986D01*
Y-73219D01*
Y-73469D01*
Y-73703D01*
Y-73903D01*
Y-73986D01*
Y-74053D01*
Y-74069D01*
Y-74103D01*
Y-74186D01*
Y-74286D01*
Y-74436D01*
Y-74602D01*
Y-74819D01*
Y-75086D01*
Y-75102D01*
Y-75119D01*
Y-75219D01*
Y-75352D01*
Y-75535D01*
Y-75552D01*
Y-75585D01*
Y-75635D01*
Y-75702D01*
Y-75885D01*
Y-76119D01*
Y-76135D01*
Y-76152D01*
Y-76202D01*
Y-76269D01*
Y-76419D01*
X-19593Y-76635D01*
Y-76885D01*
X-19577Y-77152D01*
X-19543Y-77702D01*
Y-77735D01*
X-19527Y-77818D01*
X-19510Y-77952D01*
X-19477Y-78118D01*
X-19443Y-78318D01*
X-19410Y-78535D01*
X-19293Y-78968D01*
Y-79001D01*
X-19260Y-79068D01*
X-19227Y-79168D01*
X-19194Y-79318D01*
X-19127Y-79468D01*
X-19060Y-79634D01*
X-18894Y-79984D01*
X-18877Y-80001D01*
X-18843Y-80051D01*
X-18794Y-80134D01*
X-18727Y-80251D01*
X-18544Y-80501D01*
X-18327Y-80767D01*
X-18310Y-80784D01*
X-18260Y-80817D01*
X-18194Y-80884D01*
X-18110Y-80951D01*
X-18010Y-81034D01*
X-17877Y-81117D01*
X-17610Y-81301D01*
X-17594Y-81317D01*
X-17544Y-81334D01*
X-17461Y-81384D01*
X-17344Y-81434D01*
X-17211Y-81484D01*
X-17061Y-81551D01*
X-16727Y-81651D01*
X-16711D01*
X-16644Y-81667D01*
X-16561Y-81701D01*
X-16428Y-81717D01*
X-16278Y-81751D01*
X-16111Y-81784D01*
X-15928Y-81817D01*
X-15728Y-81851D01*
X-15628D01*
X-15528Y-81867D01*
X-15378D01*
X-15211Y-81884D01*
X-15011D01*
X-14578Y-81901D01*
X-14245D01*
X-14011Y-81884D01*
X-13745D01*
X-13462Y-81867D01*
X-12878Y-81817D01*
X-12845D01*
X-12745Y-81801D01*
X-12595Y-81767D01*
X-12395Y-81734D01*
X-12179Y-81701D01*
X-11929Y-81651D01*
X-11429Y-81517D01*
Y-81484D01*
Y-81417D01*
Y-81284D01*
Y-81134D01*
Y-80934D01*
Y-80684D01*
Y-80434D01*
Y-80134D01*
Y-79834D01*
Y-79501D01*
Y-78818D01*
Y-78135D01*
Y-77452D01*
Y-77435D01*
Y-77368D01*
Y-77285D01*
Y-77152D01*
Y-77002D01*
Y-76835D01*
Y-76635D01*
Y-76419D01*
Y-75935D01*
Y-75436D01*
Y-74919D01*
Y-74419D01*
Y-74402D01*
Y-74369D01*
Y-74319D01*
Y-74253D01*
Y-74053D01*
Y-73819D01*
Y-73536D01*
Y-73236D01*
Y-72936D01*
Y-72636D01*
Y-72620D01*
Y-72603D01*
Y-72503D01*
Y-72370D01*
Y-72186D01*
Y-71986D01*
Y-71770D01*
Y-71553D01*
Y-71337D01*
Y-71320D01*
Y-71270D01*
Y-71203D01*
Y-71120D01*
Y-70920D01*
Y-70703D01*
Y-70687D01*
Y-70654D01*
Y-70603D01*
Y-70537D01*
Y-70370D01*
Y-70187D01*
Y-70170D01*
Y-70154D01*
Y-70104D01*
Y-70037D01*
Y-69870D01*
Y-69670D01*
Y-69454D01*
Y-69237D01*
Y-69021D01*
Y-68854D01*
Y-68837D01*
Y-68771D01*
Y-68687D01*
Y-68537D01*
Y-68371D01*
Y-68137D01*
Y-67854D01*
Y-67538D01*
Y-67521D01*
Y-67488D01*
Y-67421D01*
Y-67338D01*
Y-67238D01*
Y-67121D01*
Y-66871D01*
Y-66854D01*
Y-66804D01*
Y-66721D01*
Y-66621D01*
Y-66488D01*
Y-66338D01*
Y-66171D01*
Y-65988D01*
X-11395D01*
X-11312Y-65971D01*
X-11179Y-65938D01*
X-11012Y-65921D01*
X-10979D01*
X-10879Y-65905D01*
X-10729D01*
X-10546Y-65888D01*
X-10512D01*
X-10396Y-65871D01*
X-10063D01*
X-9962Y-65855D01*
X-9829Y-65838D01*
X-9529D01*
X-9396Y-65855D01*
D02*
G37*
G36*
X35793Y-58190D02*
X36092Y-58207D01*
X36442Y-58223D01*
X36825Y-58240D01*
X37242Y-58273D01*
X37692Y-58323D01*
X38175Y-58390D01*
X38658Y-58457D01*
X39175Y-58540D01*
X39675Y-58640D01*
X40191Y-58756D01*
X40691Y-58890D01*
X41174Y-59040D01*
X41208Y-59056D01*
X41291Y-59073D01*
X41424Y-59123D01*
X41591Y-59206D01*
X41808Y-59290D01*
X42074Y-59406D01*
X42341Y-59523D01*
X42657Y-59673D01*
X42974Y-59856D01*
X43324Y-60040D01*
X43674Y-60256D01*
X44024Y-60489D01*
X44390Y-60739D01*
X44740Y-61006D01*
X45073Y-61306D01*
X45407Y-61622D01*
X45423Y-61639D01*
X45473Y-61706D01*
X45573Y-61806D01*
X45690Y-61939D01*
X45823Y-62106D01*
X45990Y-62306D01*
X46157Y-62539D01*
X46356Y-62806D01*
X46556Y-63105D01*
X46773Y-63422D01*
X46973Y-63772D01*
X47189Y-64138D01*
X47389Y-64538D01*
X47589Y-64955D01*
X47773Y-65388D01*
X47939Y-65838D01*
X47956Y-65871D01*
X47973Y-65955D01*
X48023Y-66088D01*
X48073Y-66271D01*
X48139Y-66505D01*
X48206Y-66788D01*
X48289Y-67121D01*
X48373Y-67488D01*
X48439Y-67888D01*
X48523Y-68321D01*
X48589Y-68804D01*
X48656Y-69304D01*
X48706Y-69837D01*
X48756Y-70387D01*
X48773Y-70970D01*
X48789Y-71570D01*
Y-71586D01*
Y-71603D01*
Y-71653D01*
Y-71720D01*
Y-71803D01*
Y-71903D01*
X48773Y-72136D01*
X48756Y-72436D01*
X48739Y-72770D01*
X48723Y-73153D01*
X48689Y-73569D01*
X48639Y-74019D01*
X48573Y-74503D01*
X48506Y-74986D01*
X48423Y-75486D01*
X48323Y-75985D01*
X48206Y-76485D01*
X48073Y-76985D01*
X47923Y-77468D01*
X47906Y-77502D01*
X47889Y-77585D01*
X47839Y-77718D01*
X47756Y-77885D01*
X47673Y-78102D01*
X47556Y-78351D01*
X47423Y-78635D01*
X47273Y-78935D01*
X47106Y-79251D01*
X46906Y-79584D01*
X46690Y-79934D01*
X46456Y-80284D01*
X46206Y-80634D01*
X45940Y-80968D01*
X45640Y-81301D01*
X45323Y-81617D01*
X45307Y-81634D01*
X45240Y-81684D01*
X45157Y-81767D01*
X45023Y-81884D01*
X44857Y-82017D01*
X44657Y-82184D01*
X44424Y-82351D01*
X44157Y-82550D01*
X43857Y-82734D01*
X43541Y-82950D01*
X43191Y-83150D01*
X42807Y-83350D01*
X42407Y-83550D01*
X41974Y-83750D01*
X41524Y-83917D01*
X41058Y-84083D01*
X41024Y-84100D01*
X40941Y-84117D01*
X40791Y-84150D01*
X40608Y-84217D01*
X40358Y-84267D01*
X40058Y-84333D01*
X39725Y-84417D01*
X39342Y-84483D01*
X38925Y-84567D01*
X38458Y-84633D01*
X37975Y-84717D01*
X37442Y-84767D01*
X36892Y-84817D01*
X36309Y-84867D01*
X35709Y-84883D01*
X35076Y-84900D01*
X34010D01*
X33710Y-84883D01*
X33243D01*
X33077Y-84867D01*
X32860Y-84850D01*
X32610Y-84833D01*
X32327Y-84817D01*
X32027Y-84800D01*
X31727Y-84767D01*
X31644D01*
X31593Y-84750D01*
X31427Y-84733D01*
X31227Y-84717D01*
X30994Y-84700D01*
X30727Y-84683D01*
X30194Y-84633D01*
X30161D01*
X30077Y-84616D01*
X29927Y-84600D01*
X29761Y-84583D01*
X29544Y-84567D01*
X29327Y-84533D01*
X28861Y-84467D01*
Y-84450D01*
Y-84417D01*
Y-84367D01*
Y-84300D01*
Y-84200D01*
Y-84083D01*
Y-83967D01*
Y-83817D01*
Y-83483D01*
Y-83084D01*
Y-82650D01*
Y-82167D01*
Y-81651D01*
Y-81101D01*
Y-80534D01*
Y-79968D01*
Y-78801D01*
Y-78235D01*
Y-77685D01*
Y-77668D01*
Y-77652D01*
Y-77552D01*
Y-77402D01*
Y-77202D01*
Y-76935D01*
Y-76652D01*
Y-76319D01*
Y-75952D01*
Y-75569D01*
Y-75169D01*
Y-74319D01*
Y-73469D01*
Y-73036D01*
Y-72636D01*
Y-72620D01*
Y-72570D01*
Y-72470D01*
Y-72353D01*
Y-72203D01*
Y-72036D01*
Y-71853D01*
Y-71637D01*
Y-71187D01*
Y-70703D01*
Y-70187D01*
Y-69704D01*
Y-69687D01*
Y-69654D01*
Y-69587D01*
Y-69487D01*
Y-69387D01*
Y-69254D01*
Y-68954D01*
Y-68604D01*
Y-68237D01*
Y-67871D01*
Y-67504D01*
Y-67471D01*
Y-67404D01*
Y-67288D01*
Y-67138D01*
Y-66971D01*
Y-66788D01*
Y-66421D01*
Y-66405D01*
Y-66338D01*
Y-66255D01*
Y-66138D01*
Y-66005D01*
Y-65871D01*
Y-65571D01*
Y-65555D01*
Y-65505D01*
Y-65422D01*
Y-65338D01*
Y-65105D01*
Y-64872D01*
Y-64855D01*
Y-64822D01*
Y-64755D01*
Y-64688D01*
Y-64505D01*
Y-64305D01*
Y-64288D01*
Y-64272D01*
Y-64172D01*
Y-64022D01*
Y-63822D01*
Y-63605D01*
Y-63372D01*
Y-63139D01*
Y-62905D01*
Y-62872D01*
Y-62789D01*
Y-62656D01*
Y-62456D01*
Y-62206D01*
Y-61906D01*
Y-61556D01*
Y-61139D01*
Y-61123D01*
Y-61056D01*
Y-60956D01*
Y-60823D01*
Y-60656D01*
Y-60456D01*
Y-60256D01*
Y-60023D01*
Y-59990D01*
Y-59906D01*
Y-59790D01*
Y-59606D01*
Y-59390D01*
Y-59140D01*
Y-58857D01*
Y-58557D01*
X29061D01*
X29144Y-58540D01*
X29278Y-58523D01*
X29444Y-58507D01*
X29661Y-58490D01*
X29877Y-58473D01*
X30361Y-58423D01*
X30394D01*
X30477Y-58407D01*
X30610Y-58390D01*
X30777Y-58373D01*
X30994Y-58357D01*
X31244Y-58340D01*
X31527Y-58307D01*
X31827Y-58290D01*
X31910D01*
X31977Y-58273D01*
X32143D01*
X32377Y-58257D01*
X32627Y-58240D01*
X32926Y-58223D01*
X33243Y-58207D01*
X33560Y-58190D01*
X33860D01*
X34076Y-58173D01*
X35559D01*
X35793Y-58190D01*
D02*
G37*
G36*
X-34656Y-58440D02*
X-34323D01*
X-34123Y-58457D01*
X-34023D01*
X-33940Y-58473D01*
X-33773D01*
X-33573Y-58490D01*
X-33540D01*
X-33490Y-58507D01*
X-33423D01*
X-33256Y-58523D01*
X-33073Y-58557D01*
Y-58573D01*
X-33057Y-58607D01*
X-33040Y-58657D01*
X-33023Y-58723D01*
X-32990Y-58823D01*
X-32957Y-58940D01*
X-32907Y-59056D01*
X-32857Y-59206D01*
X-32757Y-59556D01*
X-32623Y-59939D01*
X-32490Y-60389D01*
X-32323Y-60873D01*
X-32157Y-61389D01*
X-31990Y-61922D01*
X-31807Y-62489D01*
X-31624Y-63072D01*
X-31240Y-64222D01*
X-31057Y-64805D01*
X-30874Y-65355D01*
X-30857Y-65388D01*
X-30824Y-65488D01*
X-30791Y-65638D01*
X-30724Y-65838D01*
X-30640Y-66088D01*
X-30541Y-66388D01*
X-30441Y-66705D01*
X-30324Y-67071D01*
X-30191Y-67454D01*
X-30057Y-67854D01*
X-29791Y-68704D01*
X-29508Y-69554D01*
X-29374Y-69970D01*
X-29241Y-70387D01*
Y-70403D01*
X-29224Y-70454D01*
X-29191Y-70553D01*
X-29141Y-70670D01*
X-29108Y-70820D01*
X-29041Y-70987D01*
X-28974Y-71170D01*
X-28908Y-71387D01*
X-28758Y-71853D01*
X-28608Y-72336D01*
X-28441Y-72853D01*
X-28275Y-73336D01*
Y-73353D01*
X-28258Y-73386D01*
X-28241Y-73453D01*
X-28208Y-73553D01*
X-28175Y-73653D01*
X-28124Y-73786D01*
X-28041Y-74086D01*
X-27925Y-74436D01*
X-27808Y-74802D01*
X-27691Y-75169D01*
X-27575Y-75535D01*
X-27558Y-75569D01*
X-27541Y-75635D01*
X-27508Y-75752D01*
X-27458Y-75885D01*
X-27408Y-76052D01*
X-27341Y-76235D01*
X-27225Y-76602D01*
Y-76619D01*
X-27191Y-76685D01*
X-27158Y-76769D01*
X-27125Y-76885D01*
X-27075Y-77018D01*
X-27041Y-77168D01*
X-26941Y-77468D01*
Y-77485D01*
X-26925Y-77535D01*
X-26892Y-77602D01*
X-26875Y-77702D01*
X-26792Y-77918D01*
X-26708Y-78168D01*
Y-78185D01*
X-26692Y-78218D01*
X-26675Y-78285D01*
X-26642Y-78351D01*
X-26592Y-78535D01*
X-26542Y-78735D01*
Y-78751D01*
X-26525Y-78768D01*
X-26492Y-78868D01*
X-26442Y-79018D01*
X-26375Y-79201D01*
X-26308Y-79434D01*
X-26225Y-79668D01*
X-26158Y-79901D01*
X-26075Y-80134D01*
X-26058Y-80168D01*
X-26042Y-80251D01*
X-25992Y-80384D01*
X-25925Y-80568D01*
X-25858Y-80817D01*
X-25758Y-81117D01*
X-25625Y-81467D01*
X-25492Y-81884D01*
Y-81901D01*
X-25459Y-81967D01*
X-25425Y-82067D01*
X-25392Y-82217D01*
X-25342Y-82384D01*
X-25275Y-82567D01*
X-25209Y-82784D01*
X-25142Y-83017D01*
X-25125Y-83050D01*
X-25109Y-83134D01*
X-25059Y-83267D01*
X-25009Y-83434D01*
X-24942Y-83650D01*
X-24859Y-83900D01*
X-24775Y-84167D01*
X-24675Y-84467D01*
X-24709D01*
X-24809Y-84500D01*
X-24942Y-84517D01*
X-25125Y-84550D01*
X-25225D01*
X-25275Y-84567D01*
X-25442D01*
X-25642Y-84583D01*
X-25808D01*
X-25992Y-84600D01*
X-26325D01*
X-26492Y-84616D01*
X-26992D01*
X-27158Y-84600D01*
X-27475D01*
X-27641Y-84583D01*
X-27725D01*
X-27791Y-84567D01*
X-27958D01*
X-28124Y-84550D01*
X-28158D01*
X-28258Y-84533D01*
X-28408Y-84500D01*
X-28558Y-84467D01*
Y-84450D01*
X-28574Y-84433D01*
X-28591Y-84383D01*
X-28608Y-84317D01*
X-28658Y-84150D01*
X-28724Y-83933D01*
X-28791Y-83700D01*
X-28874Y-83434D01*
X-28958Y-83167D01*
X-29041Y-82900D01*
Y-82867D01*
X-29074Y-82784D01*
X-29108Y-82667D01*
X-29158Y-82500D01*
X-29208Y-82334D01*
X-29258Y-82134D01*
X-29324Y-81934D01*
X-29391Y-81751D01*
Y-81734D01*
X-29407Y-81684D01*
X-29424Y-81601D01*
X-29457Y-81501D01*
X-29524Y-81284D01*
X-29608Y-81067D01*
Y-81051D01*
X-29624Y-81018D01*
X-29641Y-80968D01*
X-29657Y-80884D01*
X-29691Y-80717D01*
X-29741Y-80551D01*
Y-80534D01*
X-29757Y-80518D01*
X-29774Y-80418D01*
X-29824Y-80268D01*
X-29874Y-80101D01*
X-29924Y-79934D01*
X-29974Y-79768D01*
X-30024Y-79651D01*
Y-79601D01*
X-30041Y-79568D01*
X-30057Y-79535D01*
X-30074Y-79468D01*
X-30091Y-79385D01*
X-30141Y-79251D01*
X-30191Y-79051D01*
X-30224Y-78935D01*
X-30274Y-78801D01*
X-30324Y-78651D01*
X-30374Y-78485D01*
X-40221D01*
Y-78501D01*
X-40255Y-78585D01*
X-40288Y-78701D01*
X-40338Y-78851D01*
X-40388Y-79068D01*
X-40471Y-79335D01*
X-40555Y-79634D01*
X-40655Y-79984D01*
X-40771Y-80384D01*
X-40905Y-80817D01*
X-41055Y-81317D01*
X-41205Y-81851D01*
X-41371Y-82434D01*
X-41554Y-83067D01*
X-41754Y-83750D01*
X-41971Y-84467D01*
X-42004D01*
X-42054Y-84483D01*
X-42121Y-84500D01*
X-42271Y-84517D01*
X-42454Y-84550D01*
X-42488D01*
X-42604Y-84567D01*
X-42737D01*
X-42904Y-84583D01*
X-43054D01*
X-43204Y-84600D01*
X-43537D01*
X-43687Y-84616D01*
X-44170D01*
X-44354Y-84600D01*
X-44670D01*
X-44854Y-84583D01*
X-44887D01*
X-45003Y-84567D01*
X-45137D01*
X-45303Y-84550D01*
X-45337D01*
X-45437Y-84533D01*
X-45570Y-84500D01*
X-45720Y-84467D01*
Y-84450D01*
X-45703Y-84417D01*
X-45687Y-84367D01*
X-45670Y-84300D01*
X-45637Y-84200D01*
X-45603Y-84083D01*
X-45553Y-83967D01*
X-45503Y-83817D01*
X-45403Y-83483D01*
X-45270Y-83084D01*
X-45120Y-82650D01*
X-44970Y-82167D01*
X-44804Y-81651D01*
X-44620Y-81101D01*
X-44437Y-80534D01*
X-44254Y-79968D01*
X-43871Y-78801D01*
X-43687Y-78235D01*
X-43504Y-77685D01*
Y-77668D01*
X-43487Y-77652D01*
X-43454Y-77552D01*
X-43421Y-77402D01*
X-43354Y-77202D01*
X-43271Y-76935D01*
X-43171Y-76652D01*
X-43071Y-76319D01*
X-42954Y-75952D01*
X-42821Y-75569D01*
X-42687Y-75169D01*
X-42421Y-74319D01*
X-42138Y-73469D01*
X-42004Y-73036D01*
X-41871Y-72636D01*
Y-72620D01*
X-41854Y-72570D01*
X-41821Y-72470D01*
X-41771Y-72353D01*
X-41738Y-72203D01*
X-41671Y-72036D01*
X-41621Y-71853D01*
X-41538Y-71637D01*
X-41404Y-71187D01*
X-41238Y-70703D01*
X-41071Y-70187D01*
X-40921Y-69704D01*
Y-69687D01*
X-40905Y-69654D01*
X-40888Y-69587D01*
X-40855Y-69487D01*
X-40821Y-69387D01*
X-40771Y-69254D01*
X-40671Y-68954D01*
X-40555Y-68604D01*
X-40438Y-68237D01*
X-40321Y-67871D01*
X-40205Y-67504D01*
X-40188Y-67471D01*
X-40171Y-67404D01*
X-40138Y-67288D01*
X-40088Y-67138D01*
X-40038Y-66971D01*
X-39971Y-66788D01*
X-39855Y-66421D01*
Y-66405D01*
X-39822Y-66338D01*
X-39788Y-66255D01*
X-39755Y-66138D01*
X-39705Y-66005D01*
X-39671Y-65871D01*
X-39572Y-65571D01*
Y-65555D01*
X-39555Y-65505D01*
X-39522Y-65422D01*
X-39488Y-65338D01*
X-39422Y-65105D01*
X-39338Y-64855D01*
Y-64838D01*
X-39322Y-64805D01*
X-39305Y-64738D01*
X-39288Y-64672D01*
X-39222Y-64488D01*
X-39155Y-64305D01*
Y-64288D01*
X-39138Y-64272D01*
X-39105Y-64172D01*
X-39072Y-64022D01*
X-39005Y-63822D01*
X-38938Y-63605D01*
X-38855Y-63372D01*
X-38788Y-63139D01*
X-38705Y-62905D01*
X-38688Y-62872D01*
X-38672Y-62789D01*
X-38622Y-62656D01*
X-38555Y-62456D01*
X-38472Y-62206D01*
X-38372Y-61906D01*
X-38255Y-61556D01*
X-38122Y-61139D01*
Y-61123D01*
X-38089Y-61056D01*
X-38055Y-60956D01*
X-38022Y-60823D01*
X-37972Y-60656D01*
X-37905Y-60456D01*
X-37839Y-60256D01*
X-37772Y-60023D01*
X-37755Y-59990D01*
X-37739Y-59906D01*
X-37689Y-59773D01*
X-37622Y-59606D01*
X-37555Y-59390D01*
X-37472Y-59140D01*
X-37389Y-58857D01*
X-37289Y-58557D01*
X-37255D01*
X-37139Y-58540D01*
X-36989Y-58507D01*
X-36806Y-58490D01*
X-36706D01*
X-36639Y-58473D01*
X-36472D01*
X-36272Y-58457D01*
X-36172D01*
X-36106Y-58440D01*
X-35623D01*
X-35539Y-58423D01*
X-34839D01*
X-34656Y-58440D01*
D02*
G37*
G36*
X25212Y-61256D02*
X25262Y-61339D01*
X25345Y-61473D01*
X25462Y-61656D01*
Y-61672D01*
X25428Y-61689D01*
X25412Y-61739D01*
X25362Y-61806D01*
X25295Y-61906D01*
X25229Y-62006D01*
X25145Y-62139D01*
X25045Y-62272D01*
X24945Y-62439D01*
X24812Y-62639D01*
X24679Y-62839D01*
X24529Y-63055D01*
X24379Y-63305D01*
X24195Y-63572D01*
X24012Y-63855D01*
X23812Y-64155D01*
X23596Y-64472D01*
X23379Y-64822D01*
X23146Y-65171D01*
X22896Y-65555D01*
X22629Y-65955D01*
X22346Y-66371D01*
X22063Y-66821D01*
X21763Y-67271D01*
X21446Y-67754D01*
X21113Y-68254D01*
X20780Y-68771D01*
X20430Y-69304D01*
X20063Y-69854D01*
X19680Y-70420D01*
X19280Y-71020D01*
X18880Y-71637D01*
X18897D01*
X18930Y-71620D01*
X19013Y-71603D01*
X19730D01*
X19947Y-71620D01*
X20196Y-71637D01*
X20463Y-71670D01*
X21013Y-71753D01*
X21046D01*
X21146Y-71786D01*
X21279Y-71820D01*
X21463Y-71870D01*
X21663Y-71920D01*
X21896Y-72003D01*
X22379Y-72186D01*
X22413Y-72203D01*
X22479Y-72236D01*
X22596Y-72303D01*
X22746Y-72386D01*
X22929Y-72486D01*
X23112Y-72603D01*
X23496Y-72870D01*
X23512Y-72886D01*
X23579Y-72936D01*
X23679Y-73019D01*
X23812Y-73136D01*
X23946Y-73253D01*
X24095Y-73403D01*
X24412Y-73753D01*
X24429Y-73769D01*
X24479Y-73836D01*
X24562Y-73919D01*
X24645Y-74053D01*
X24762Y-74186D01*
X24879Y-74369D01*
X24995Y-74552D01*
X25112Y-74752D01*
X25129Y-74769D01*
X25162Y-74852D01*
X25212Y-74952D01*
X25295Y-75086D01*
X25378Y-75252D01*
X25462Y-75452D01*
X25628Y-75869D01*
X25645Y-75902D01*
X25662Y-75969D01*
X25695Y-76085D01*
X25745Y-76235D01*
X25795Y-76402D01*
X25845Y-76602D01*
X25928Y-77035D01*
Y-77052D01*
X25945Y-77135D01*
X25962Y-77252D01*
X25978Y-77385D01*
X25995Y-77568D01*
X26012Y-77752D01*
X26028Y-78185D01*
Y-78201D01*
Y-78235D01*
Y-78302D01*
Y-78385D01*
Y-78485D01*
X26012Y-78601D01*
Y-78885D01*
X25978Y-79218D01*
X25945Y-79584D01*
X25895Y-79951D01*
X25828Y-80334D01*
Y-80351D01*
X25812Y-80384D01*
Y-80434D01*
X25795Y-80501D01*
X25762Y-80584D01*
X25745Y-80701D01*
X25678Y-80934D01*
X25578Y-81217D01*
X25478Y-81534D01*
X25362Y-81867D01*
X25212Y-82184D01*
Y-82200D01*
X25195Y-82217D01*
X25178Y-82267D01*
X25145Y-82317D01*
X25045Y-82484D01*
X24945Y-82684D01*
X24795Y-82917D01*
X24645Y-83184D01*
X24462Y-83450D01*
X24279Y-83717D01*
X24262Y-83750D01*
X24179Y-83833D01*
X24062Y-83967D01*
X23912Y-84133D01*
X23729Y-84317D01*
X23529Y-84517D01*
X23296Y-84733D01*
X23046Y-84950D01*
X23012Y-84966D01*
X22929Y-85050D01*
X22779Y-85150D01*
X22596Y-85283D01*
X22363Y-85433D01*
X22113Y-85600D01*
X21829Y-85766D01*
X21546Y-85916D01*
X21529D01*
X21513Y-85933D01*
X21463Y-85949D01*
X21413Y-85983D01*
X21246Y-86049D01*
X21030Y-86150D01*
X20763Y-86250D01*
X20463Y-86366D01*
X20147Y-86483D01*
X19813Y-86583D01*
X19797D01*
X19780Y-86599D01*
X19730D01*
X19663Y-86616D01*
X19480Y-86666D01*
X19230Y-86733D01*
X18947Y-86783D01*
X18630Y-86849D01*
X18280Y-86916D01*
X17914Y-86983D01*
X17864D01*
X17814Y-86999D01*
X17747D01*
X17647Y-87016D01*
X17547D01*
X17297Y-87033D01*
X16997Y-87066D01*
X16647Y-87083D01*
X16281Y-87099D01*
X15564D01*
X15348Y-87083D01*
X15081D01*
X14781Y-87066D01*
X14465Y-87049D01*
X14148Y-87033D01*
X14115D01*
X14065Y-87016D01*
X13998D01*
X13831Y-86999D01*
X13632Y-86966D01*
X13382Y-86949D01*
X13098Y-86899D01*
X12515Y-86816D01*
X12482D01*
X12382Y-86783D01*
X12215Y-86749D01*
X12015Y-86716D01*
X11765Y-86666D01*
X11499Y-86599D01*
X10932Y-86449D01*
X10915D01*
X10899Y-86433D01*
X10799Y-86399D01*
X10632Y-86366D01*
X10432Y-86299D01*
X10199Y-86216D01*
X9932Y-86133D01*
X9366Y-85916D01*
Y-85899D01*
X9383Y-85850D01*
Y-85766D01*
X9399Y-85666D01*
X9433Y-85550D01*
X9449Y-85416D01*
X9516Y-85133D01*
Y-85116D01*
X9532Y-85066D01*
X9566Y-84983D01*
X9599Y-84883D01*
X9632Y-84767D01*
X9682Y-84633D01*
X9783Y-84367D01*
Y-84350D01*
X9816Y-84300D01*
X9832Y-84233D01*
X9882Y-84133D01*
X9932Y-84017D01*
X9982Y-83883D01*
X10099Y-83617D01*
X10116Y-83600D01*
X10132Y-83550D01*
X10166Y-83483D01*
X10216Y-83384D01*
X10266Y-83284D01*
X10332Y-83150D01*
X10482Y-82884D01*
X10516Y-82900D01*
X10582Y-82917D01*
X10699Y-82967D01*
X10849Y-83017D01*
X11032Y-83084D01*
X11232Y-83150D01*
X11665Y-83300D01*
X11699D01*
X11765Y-83334D01*
X11882Y-83367D01*
X12048Y-83417D01*
X12232Y-83467D01*
X12432Y-83517D01*
X12898Y-83650D01*
X12932D01*
X13015Y-83667D01*
X13132Y-83700D01*
X13298Y-83733D01*
X13515Y-83767D01*
X13731Y-83800D01*
X13981Y-83833D01*
X14248Y-83867D01*
X14281D01*
X14381Y-83883D01*
X14515D01*
X14714Y-83900D01*
X14948Y-83917D01*
X15198D01*
X15481Y-83933D01*
X16031D01*
X16214Y-83917D01*
X16414D01*
X16647Y-83900D01*
X17114Y-83867D01*
X17147D01*
X17230Y-83850D01*
X17347Y-83833D01*
X17514Y-83800D01*
X17697Y-83783D01*
X17914Y-83733D01*
X18364Y-83650D01*
X18397D01*
X18464Y-83617D01*
X18580Y-83583D01*
X18730Y-83533D01*
X18913Y-83483D01*
X19097Y-83417D01*
X19480Y-83267D01*
X19497Y-83250D01*
X19563Y-83217D01*
X19680Y-83167D01*
X19797Y-83100D01*
X19947Y-83034D01*
X20113Y-82934D01*
X20446Y-82700D01*
X20463Y-82684D01*
X20530Y-82650D01*
X20613Y-82584D01*
X20713Y-82484D01*
X20846Y-82384D01*
X20980Y-82250D01*
X21246Y-81951D01*
X21263Y-81934D01*
X21313Y-81884D01*
X21379Y-81784D01*
X21463Y-81684D01*
X21546Y-81534D01*
X21663Y-81384D01*
X21763Y-81201D01*
X21863Y-81018D01*
X21879Y-81001D01*
X21913Y-80934D01*
X21946Y-80834D01*
X22013Y-80684D01*
X22079Y-80518D01*
X22129Y-80334D01*
X22196Y-80118D01*
X22246Y-79901D01*
Y-79868D01*
X22263Y-79784D01*
X22296Y-79668D01*
X22329Y-79485D01*
X22346Y-79285D01*
X22379Y-79051D01*
X22396Y-78785D01*
Y-78518D01*
Y-78501D01*
Y-78468D01*
Y-78401D01*
Y-78335D01*
X22379Y-78235D01*
Y-78118D01*
X22346Y-77852D01*
X22296Y-77552D01*
X22229Y-77218D01*
X22146Y-76885D01*
X22013Y-76569D01*
Y-76552D01*
X21996Y-76535D01*
X21946Y-76435D01*
X21863Y-76269D01*
X21746Y-76085D01*
X21579Y-75869D01*
X21396Y-75635D01*
X21179Y-75419D01*
X20913Y-75202D01*
X20880Y-75186D01*
X20780Y-75119D01*
X20613Y-75019D01*
X20413Y-74902D01*
X20163Y-74769D01*
X19863Y-74636D01*
X19547Y-74503D01*
X19197Y-74386D01*
X19180D01*
X19147Y-74369D01*
X19097Y-74352D01*
X19030Y-74336D01*
X18930Y-74319D01*
X18830Y-74303D01*
X18563Y-74253D01*
X18247Y-74202D01*
X17880Y-74153D01*
X17480Y-74136D01*
X17047Y-74119D01*
X16581D01*
X16314Y-74136D01*
X16181D01*
X16081Y-74153D01*
X15864D01*
X15598Y-74169D01*
X15531D01*
X15464Y-74186D01*
X15364D01*
X15248Y-74202D01*
X15131Y-74219D01*
X14848Y-74269D01*
X14831D01*
X14781Y-74286D01*
X14714D01*
X14615Y-74303D01*
X14398Y-74352D01*
X14131Y-74402D01*
X14115Y-74386D01*
X14098Y-74352D01*
X14065Y-74286D01*
X14015Y-74219D01*
X13981Y-74153D01*
X13948Y-74103D01*
X13915Y-74069D01*
Y-74053D01*
Y-74036D01*
X13881Y-74003D01*
X13831Y-73919D01*
Y-73903D01*
X13848Y-73886D01*
X13881Y-73836D01*
X13931Y-73769D01*
X13981Y-73686D01*
X14048Y-73586D01*
X14115Y-73469D01*
X14215Y-73319D01*
X14315Y-73169D01*
X14415Y-72986D01*
X14548Y-72803D01*
X14681Y-72586D01*
X14831Y-72353D01*
X14981Y-72103D01*
X15164Y-71837D01*
X15348Y-71553D01*
X15531Y-71237D01*
X15748Y-70920D01*
X15964Y-70570D01*
X16181Y-70220D01*
X16431Y-69837D01*
X16681Y-69437D01*
X16947Y-69021D01*
X17214Y-68587D01*
X17514Y-68137D01*
X17814Y-67654D01*
X18114Y-67171D01*
X18447Y-66655D01*
X18780Y-66138D01*
X19113Y-65588D01*
X19480Y-65022D01*
X19847Y-64438D01*
X10599D01*
Y-64422D01*
X10582Y-64372D01*
X10566Y-64305D01*
X10549Y-64205D01*
X10532Y-64105D01*
X10516Y-63972D01*
X10482Y-63705D01*
Y-63689D01*
Y-63639D01*
X10466Y-63555D01*
Y-63455D01*
Y-63322D01*
X10449Y-63189D01*
Y-62889D01*
Y-62872D01*
Y-62855D01*
Y-62755D01*
Y-62639D01*
Y-62489D01*
Y-62472D01*
Y-62456D01*
X10466Y-62356D01*
Y-62222D01*
X10482Y-62056D01*
Y-62039D01*
Y-62022D01*
X10499Y-61922D01*
Y-61789D01*
X10516Y-61639D01*
Y-61622D01*
X10532Y-61606D01*
X10549Y-61506D01*
X10566Y-61372D01*
X10599Y-61239D01*
X25195D01*
X25212Y-61256D01*
D02*
G37*
G36*
X-155200Y175200D02*
X-155700Y174700D01*
X-162350D01*
X-164300Y172750D01*
X-165600D01*
X-170150Y168200D01*
Y167550D01*
X-174050Y163650D01*
Y159750D01*
X-175350Y158450D01*
Y155200D01*
X-184450D01*
Y157800D01*
X-183800Y158450D01*
Y163000D01*
X-181850Y164950D01*
Y167550D01*
X-179900Y169500D01*
Y171450D01*
X-175350Y176000D01*
X-174700D01*
X-170150Y180550D01*
X-168200D01*
X-166250Y182500D01*
X-162350Y183150D01*
X-160000Y184200D01*
X-155200D01*
Y175200D01*
D02*
G37*
G36*
X135700Y154700D02*
Y148050D01*
X137650Y146100D01*
Y144800D01*
X142200Y140250D01*
X142850D01*
X146750Y136350D01*
X150650D01*
X151950Y135050D01*
X155200D01*
Y125950D01*
X152600D01*
X151950Y126600D01*
X147400D01*
X145450Y128550D01*
X142850D01*
X140900Y130500D01*
X138950D01*
X134400Y135050D01*
Y135700D01*
X129850Y140250D01*
Y142200D01*
X127900Y144150D01*
X127250Y148050D01*
X126200Y150400D01*
Y155200D01*
X135200D01*
X135700Y154700D01*
D02*
G37*
G36*
X-125950Y152600D02*
X-126600Y151950D01*
Y147400D01*
X-128550Y145450D01*
Y142850D01*
X-130500Y140900D01*
Y138950D01*
X-135050Y134400D01*
X-135700D01*
X-140250Y129850D01*
X-142200D01*
X-144150Y127900D01*
X-148050Y127250D01*
X-150400Y126200D01*
X-155200D01*
Y135200D01*
X-154700Y135700D01*
X-148050D01*
X-146100Y137650D01*
X-144800D01*
X-140250Y142200D01*
Y142850D01*
X-136350Y146750D01*
Y150650D01*
X-135050Y151950D01*
Y155200D01*
X-125950D01*
Y152600D01*
D02*
G37*
G36*
X158450Y183800D02*
X163000D01*
X164950Y181850D01*
X167550D01*
X169500Y179900D01*
X171450D01*
X176000Y175350D01*
Y174700D01*
X180550Y170150D01*
Y168200D01*
X182500Y166250D01*
X183150Y162350D01*
X184200Y160000D01*
Y155200D01*
X175200D01*
X174700Y155700D01*
Y162350D01*
X172750Y164300D01*
Y165600D01*
X168200Y170150D01*
X167550D01*
X163650Y174050D01*
X159750D01*
X158450Y175350D01*
X155200D01*
Y184450D01*
X157800D01*
X158450Y183800D01*
D02*
G37*
G36*
X-151950Y-126600D02*
X-147400D01*
X-145450Y-128550D01*
X-142850D01*
X-140900Y-130500D01*
X-138950D01*
X-134400Y-135050D01*
Y-135700D01*
X-129850Y-140250D01*
Y-142200D01*
X-127900Y-144150D01*
X-127250Y-148050D01*
X-126200Y-150400D01*
Y-155200D01*
X-135200D01*
X-135700Y-154700D01*
Y-148050D01*
X-137650Y-146100D01*
Y-144800D01*
X-142200Y-140250D01*
X-142850D01*
X-146750Y-136350D01*
X-150650D01*
X-151950Y-135050D01*
X-155200D01*
Y-125950D01*
X-152600D01*
X-151950Y-126600D01*
D02*
G37*
G36*
X155200Y-135200D02*
X154700Y-135700D01*
X148050D01*
X146100Y-137650D01*
X144800D01*
X140250Y-142200D01*
Y-142850D01*
X136350Y-146750D01*
Y-150650D01*
X135050Y-151950D01*
Y-155200D01*
X125950D01*
Y-152600D01*
X126600Y-151950D01*
Y-147400D01*
X128550Y-145450D01*
Y-142850D01*
X130500Y-140900D01*
Y-138950D01*
X135050Y-134400D01*
X135700D01*
X140250Y-129850D01*
X142200D01*
X144150Y-127900D01*
X148050Y-127250D01*
X150400Y-126200D01*
X155200D01*
Y-135200D01*
D02*
G37*
G36*
X0Y-129540D02*
X-2540D01*
Y-127000D01*
X0D01*
Y-129540D01*
D02*
G37*
%LPC*%
G36*
X35859Y-61439D02*
X34276D01*
X33976Y-61456D01*
X33826D01*
X33726Y-61473D01*
X33610D01*
X33493Y-61489D01*
X33210Y-61522D01*
X33077D01*
X32993Y-61539D01*
X32777Y-61556D01*
X32543Y-61589D01*
Y-61622D01*
Y-61722D01*
Y-61872D01*
Y-62089D01*
Y-62339D01*
Y-62639D01*
Y-62989D01*
Y-63355D01*
Y-63755D01*
Y-64172D01*
Y-65038D01*
Y-65938D01*
Y-66371D01*
Y-66804D01*
Y-66821D01*
Y-66904D01*
Y-67021D01*
Y-67171D01*
Y-67371D01*
Y-67588D01*
Y-67838D01*
Y-68121D01*
Y-68404D01*
Y-68721D01*
Y-69370D01*
Y-70020D01*
Y-70654D01*
Y-70670D01*
Y-70703D01*
Y-70770D01*
Y-70870D01*
Y-70987D01*
Y-71103D01*
Y-71420D01*
Y-71770D01*
Y-72136D01*
Y-72536D01*
Y-72903D01*
Y-72920D01*
Y-72953D01*
Y-73003D01*
Y-73070D01*
Y-73253D01*
Y-73469D01*
Y-73736D01*
Y-74019D01*
Y-74303D01*
Y-74586D01*
Y-74602D01*
Y-74669D01*
Y-74752D01*
Y-74852D01*
Y-74986D01*
Y-75119D01*
Y-75402D01*
Y-75419D01*
Y-75469D01*
Y-75535D01*
Y-75635D01*
Y-75852D01*
Y-76069D01*
Y-76085D01*
Y-76119D01*
Y-76169D01*
Y-76252D01*
Y-76419D01*
Y-76602D01*
Y-76619D01*
Y-76635D01*
Y-76752D01*
Y-76902D01*
Y-77052D01*
Y-77085D01*
Y-77152D01*
Y-77268D01*
Y-77402D01*
Y-77568D01*
Y-77752D01*
Y-78118D01*
Y-78135D01*
Y-78201D01*
Y-78318D01*
Y-78468D01*
Y-78651D01*
Y-78885D01*
Y-79151D01*
Y-79468D01*
Y-79485D01*
Y-79535D01*
Y-79618D01*
Y-79718D01*
Y-79851D01*
Y-79984D01*
Y-80318D01*
Y-80334D01*
Y-80401D01*
Y-80501D01*
Y-80651D01*
Y-80817D01*
Y-81001D01*
Y-81217D01*
Y-81451D01*
X32627D01*
X32727Y-81467D01*
X32860Y-81484D01*
X33043Y-81501D01*
X33260Y-81517D01*
X33510Y-81534D01*
X33793Y-81567D01*
X33943D01*
X34026Y-81584D01*
X34276D01*
X34559Y-81601D01*
X34809D01*
X34926Y-81617D01*
X35759D01*
X36026Y-81601D01*
X36326Y-81584D01*
X36676Y-81567D01*
X37392Y-81501D01*
X37442D01*
X37492Y-81484D01*
X37559D01*
X37742Y-81451D01*
X37992Y-81417D01*
X38275Y-81367D01*
X38575Y-81301D01*
X38908Y-81217D01*
X39242Y-81134D01*
X39258D01*
X39275Y-81117D01*
X39325D01*
X39392Y-81084D01*
X39558Y-81034D01*
X39775Y-80968D01*
X40025Y-80868D01*
X40308Y-80767D01*
X40591Y-80634D01*
X40875Y-80484D01*
X40891D01*
X40908Y-80468D01*
X41008Y-80418D01*
X41141Y-80318D01*
X41324Y-80201D01*
X41541Y-80051D01*
X41774Y-79884D01*
X42024Y-79701D01*
X42257Y-79485D01*
X42291Y-79451D01*
X42357Y-79385D01*
X42491Y-79268D01*
X42641Y-79101D01*
X42807Y-78901D01*
X42991Y-78668D01*
X43191Y-78418D01*
X43374Y-78135D01*
Y-78118D01*
X43390Y-78102D01*
X43457Y-78002D01*
X43557Y-77835D01*
X43674Y-77618D01*
X43790Y-77368D01*
X43940Y-77069D01*
X44074Y-76735D01*
X44207Y-76369D01*
Y-76352D01*
X44224Y-76319D01*
X44240Y-76269D01*
X44257Y-76202D01*
X44290Y-76102D01*
X44324Y-75985D01*
X44390Y-75719D01*
X44474Y-75402D01*
X44557Y-75019D01*
X44640Y-74602D01*
X44707Y-74153D01*
Y-74136D01*
X44724Y-74103D01*
Y-74036D01*
X44740Y-73936D01*
X44757Y-73819D01*
X44774Y-73686D01*
X44790Y-73536D01*
X44807Y-73353D01*
X44823Y-73153D01*
X44840Y-72953D01*
X44857Y-72486D01*
X44890Y-71986D01*
Y-71453D01*
Y-71437D01*
Y-71387D01*
Y-71320D01*
Y-71220D01*
Y-71103D01*
X44873Y-70970D01*
Y-70820D01*
Y-70637D01*
X44840Y-70254D01*
X44807Y-69837D01*
X44774Y-69404D01*
X44707Y-68971D01*
Y-68954D01*
Y-68921D01*
X44690Y-68854D01*
X44674Y-68771D01*
X44657Y-68671D01*
X44640Y-68554D01*
X44590Y-68271D01*
X44507Y-67954D01*
X44424Y-67588D01*
X44324Y-67221D01*
X44207Y-66854D01*
Y-66838D01*
X44190Y-66804D01*
X44174Y-66754D01*
X44140Y-66688D01*
X44074Y-66505D01*
X43974Y-66288D01*
X43857Y-66021D01*
X43724Y-65721D01*
X43557Y-65422D01*
X43374Y-65121D01*
Y-65105D01*
X43357Y-65088D01*
X43291Y-64988D01*
X43191Y-64838D01*
X43057Y-64655D01*
X42891Y-64438D01*
X42707Y-64222D01*
X42491Y-63972D01*
X42274Y-63739D01*
X42241Y-63705D01*
X42174Y-63639D01*
X42041Y-63522D01*
X41874Y-63389D01*
X41674Y-63222D01*
X41441Y-63039D01*
X41174Y-62855D01*
X40908Y-62689D01*
X40875Y-62672D01*
X40774Y-62622D01*
X40625Y-62539D01*
X40425Y-62439D01*
X40191Y-62322D01*
X39908Y-62206D01*
X39608Y-62089D01*
X39292Y-61989D01*
X39275D01*
X39258Y-61972D01*
X39208Y-61956D01*
X39142Y-61939D01*
X38975Y-61889D01*
X38742Y-61839D01*
X38475Y-61772D01*
X38159Y-61706D01*
X37825Y-61639D01*
X37475Y-61589D01*
X37425D01*
X37375Y-61572D01*
X37309D01*
X37225Y-61556D01*
X37109Y-61539D01*
X36859Y-61506D01*
X36559Y-61489D01*
X36226Y-61456D01*
X35859Y-61439D01*
D02*
G37*
G36*
X-35306Y-62056D02*
Y-62072D01*
X-35323Y-62106D01*
X-35339Y-62172D01*
X-35373Y-62256D01*
X-35406Y-62372D01*
X-35439Y-62522D01*
X-35489Y-62689D01*
X-35556Y-62872D01*
X-35623Y-63105D01*
X-35689Y-63339D01*
X-35773Y-63622D01*
X-35856Y-63905D01*
X-35956Y-64238D01*
X-36056Y-64588D01*
X-36172Y-64955D01*
X-36289Y-65355D01*
X-36422Y-65788D01*
X-36556Y-66238D01*
X-36689Y-66721D01*
X-36839Y-67221D01*
X-37006Y-67754D01*
X-37172Y-68304D01*
X-37339Y-68887D01*
X-37522Y-69487D01*
X-37705Y-70120D01*
X-37905Y-70787D01*
X-38105Y-71470D01*
X-38322Y-72186D01*
X-38538Y-72920D01*
X-38755Y-73686D01*
X-38988Y-74469D01*
X-39238Y-75286D01*
X-31340D01*
Y-75269D01*
X-31357Y-75236D01*
X-31374Y-75169D01*
X-31407Y-75086D01*
X-31440Y-74969D01*
X-31474Y-74819D01*
X-31524Y-74652D01*
X-31590Y-74453D01*
X-31657Y-74236D01*
X-31724Y-74003D01*
X-31807Y-73719D01*
X-31890Y-73419D01*
X-31990Y-73103D01*
X-32090Y-72753D01*
X-32207Y-72386D01*
X-32323Y-71986D01*
X-32457Y-71553D01*
X-32590Y-71103D01*
X-32740Y-70620D01*
X-32890Y-70120D01*
X-33040Y-69587D01*
X-33207Y-69037D01*
X-33390Y-68454D01*
X-33573Y-67854D01*
X-33756Y-67221D01*
X-33956Y-66554D01*
X-34156Y-65871D01*
X-34373Y-65155D01*
X-34590Y-64422D01*
X-34823Y-63655D01*
X-35056Y-62872D01*
X-35306Y-62056D01*
D02*
G37*
%LPD*%
D18*
X-27250Y36500D02*
G03*
X-27250Y36500I-1250J0D01*
G01*
D19*
X165100Y79502D02*
G03*
X162560Y82042I-2540J0D01*
G01*
Y60325D02*
G03*
X165100Y62865I0J2540D01*
G01*
X144780D02*
G03*
X147320Y60325I2540J0D01*
G01*
Y82042D02*
G03*
X144780Y79502I0J-2540D01*
G01*
X165100Y107442D02*
G03*
X162560Y109982I-2540J0D01*
G01*
Y88265D02*
G03*
X165100Y90805I0J2540D01*
G01*
X144780D02*
G03*
X147320Y88265I2540J0D01*
G01*
Y109982D02*
G03*
X144780Y107442I0J-2540D01*
G01*
X144780Y62865D02*
Y79502D01*
X165100Y62865D02*
Y79502D01*
X144780Y90805D02*
Y107442D01*
X165100Y90805D02*
Y107442D01*
D20*
X565Y65158D02*
X612Y65110D01*
X660Y65158D01*
X612Y65205D01*
X565Y65158D01*
D21*
X-15500Y-33000D02*
X15500D01*
X-15500Y33000D02*
X15500D01*
Y-33000D02*
Y33000D01*
X-15500Y-33000D02*
Y33000D01*
X114300Y-111760D02*
Y-63077D01*
Y-111760D02*
Y-35560D01*
X165100Y-111760D02*
Y-35560D01*
X114300D02*
X165100D01*
X114300Y-111760D02*
X165100D01*
X5080Y149860D02*
X12700Y142240D01*
X17780Y149860D02*
X25400Y142240D01*
X-12700D02*
X-5080Y149860D01*
X-25400Y142240D02*
X-17780Y149860D01*
X-162560Y-48260D02*
X-111760D01*
X-162560Y53340D02*
X-111760D01*
Y-48260D02*
Y53340D01*
X-162560Y-48260D02*
Y53340D01*
X-77434Y-175199D02*
Y-165203D01*
X-70770Y-175199D01*
Y-165203D01*
X-60773D02*
X-67437D01*
Y-175199D01*
X-60773D01*
X-67437Y-170201D02*
X-64105D01*
X-57441Y-175199D02*
Y-165203D01*
X-54108Y-168535D01*
X-50776Y-165203D01*
Y-175199D01*
X-47444D02*
Y-168535D01*
X-44112Y-165203D01*
X-40779Y-168535D01*
Y-175199D01*
Y-170201D01*
X-47444D01*
X-37447Y-175199D02*
X-34115D01*
X-35781D01*
Y-165203D01*
X-37447Y-166869D01*
X-29116Y-165203D02*
X-22452D01*
Y-166869D01*
X-29116Y-173533D01*
Y-175199D01*
X-19120Y-170201D02*
X-12455D01*
X-2458Y-166869D02*
X-4124Y-165203D01*
X-7457D01*
X-9123Y-166869D01*
Y-173533D01*
X-7457Y-175199D01*
X-4124D01*
X-2458Y-173533D01*
X2540Y-175199D02*
X5872D01*
X7538Y-173533D01*
Y-170201D01*
X5872Y-168535D01*
X2540D01*
X874Y-170201D01*
Y-173533D01*
X2540Y-175199D01*
X10871D02*
Y-168535D01*
X12537D01*
X14203Y-170201D01*
Y-175199D01*
Y-170201D01*
X15869Y-168535D01*
X17535Y-170201D01*
Y-175199D01*
X20867Y-178532D02*
Y-168535D01*
X25866D01*
X27532Y-170201D01*
Y-173533D01*
X25866Y-175199D01*
X20867D01*
X32530Y-168535D02*
X35863D01*
X37529Y-170201D01*
Y-175199D01*
X32530D01*
X30864Y-173533D01*
X32530Y-171867D01*
X37529D01*
X42527Y-166869D02*
Y-168535D01*
X40861D01*
X44193D01*
X42527D01*
Y-173533D01*
X44193Y-175199D01*
X49192D02*
X52524D01*
X50858D01*
Y-168535D01*
X49192D01*
X57522Y-165203D02*
Y-175199D01*
X62521D01*
X64187Y-173533D01*
Y-171867D01*
Y-170201D01*
X62521Y-168535D01*
X57522D01*
X67519Y-175199D02*
X70851D01*
X69185D01*
Y-165203D01*
X67519D01*
X80848Y-175199D02*
X77516D01*
X75850Y-173533D01*
Y-170201D01*
X77516Y-168535D01*
X80848D01*
X82514Y-170201D01*
Y-171867D01*
X75850D01*
X-108258Y-195328D02*
Y-185331D01*
X-104925Y-188663D01*
X-101593Y-185331D01*
Y-195328D01*
X-96595Y-188663D02*
X-93263D01*
X-91596Y-190329D01*
Y-195328D01*
X-96595D01*
X-98261Y-193662D01*
X-96595Y-191996D01*
X-91596D01*
X-84932Y-198660D02*
X-83266D01*
X-81600Y-196994D01*
Y-188663D01*
X-86598D01*
X-88264Y-190329D01*
Y-193662D01*
X-86598Y-195328D01*
X-81600D01*
X-78267D02*
Y-188663D01*
X-73269D01*
X-71603Y-190329D01*
Y-195328D01*
X-63272D02*
X-66604D01*
X-68271Y-193662D01*
Y-190329D01*
X-66604Y-188663D01*
X-63272D01*
X-61606Y-190329D01*
Y-191996D01*
X-68271D01*
X-56608Y-186997D02*
Y-188663D01*
X-58274D01*
X-54942D01*
X-56608D01*
Y-193662D01*
X-54942Y-195328D01*
X-49943D02*
X-46611D01*
X-48277D01*
Y-188663D01*
X-49943D01*
X-34948D02*
X-39946D01*
X-41612Y-190329D01*
Y-193662D01*
X-39946Y-195328D01*
X-34948D01*
X-14954Y-185331D02*
X-21619D01*
Y-195328D01*
X-14954D01*
X-21619Y-190329D02*
X-18287D01*
X-11622Y-195328D02*
Y-188663D01*
X-6624D01*
X-4958Y-190329D01*
Y-195328D01*
X5039Y-188663D02*
X41D01*
X-1625Y-190329D01*
Y-193662D01*
X41Y-195328D01*
X5039D01*
X10038D02*
X13370D01*
X15036Y-193662D01*
Y-190329D01*
X13370Y-188663D01*
X10038D01*
X8371Y-190329D01*
Y-193662D01*
X10038Y-195328D01*
X25033Y-185331D02*
Y-195328D01*
X20034D01*
X18368Y-193662D01*
Y-190329D01*
X20034Y-188663D01*
X25033D01*
X33363Y-195328D02*
X30031D01*
X28365Y-193662D01*
Y-190329D01*
X30031Y-188663D01*
X33363D01*
X35029Y-190329D01*
Y-191996D01*
X28365D01*
X38362Y-188663D02*
Y-195328D01*
Y-191996D01*
X40028Y-190329D01*
X41694Y-188663D01*
X43360D01*
X58355Y-195328D02*
Y-185331D01*
X61688Y-188663D01*
X65020Y-185331D01*
Y-195328D01*
X70018D02*
X73351D01*
X75017Y-193662D01*
Y-190329D01*
X73351Y-188663D01*
X70018D01*
X68352Y-190329D01*
Y-193662D01*
X70018Y-195328D01*
X85013Y-185331D02*
Y-195328D01*
X80015D01*
X78349Y-193662D01*
Y-190329D01*
X80015Y-188663D01*
X85013D01*
X88346D02*
Y-193662D01*
X90012Y-195328D01*
X95010D01*
Y-188663D01*
X98343Y-195328D02*
X101675D01*
X100009D01*
Y-185331D01*
X98343D01*
X111671Y-195328D02*
X108339D01*
X106673Y-193662D01*
Y-190329D01*
X108339Y-188663D01*
X111671D01*
X113338Y-190329D01*
Y-191996D01*
X106673D01*
X105410Y200497D02*
Y193832D01*
X108742Y190500D01*
X112074Y193832D01*
Y200497D01*
X115407Y198831D02*
X117073Y200497D01*
X120405D01*
X122071Y198831D01*
Y192166D01*
X120405Y190500D01*
X117073D01*
X115407Y192166D01*
Y198831D01*
X125403Y190500D02*
Y192166D01*
X127070D01*
Y190500D01*
X125403D01*
X133734D02*
X137066D01*
X135400D01*
Y200497D01*
X133734Y198831D01*
X132080Y103977D02*
Y102311D01*
X135412Y98978D01*
X138744Y102311D01*
Y103977D01*
X135412Y98978D02*
Y93980D01*
X132080Y76037D02*
X138744D01*
Y74371D01*
X132080Y67706D01*
Y66040D01*
X138744D01*
X111760Y38100D02*
Y48097D01*
X116758D01*
X118425Y46431D01*
Y43098D01*
X116758Y41432D01*
X111760D01*
X115092D02*
X118425Y38100D01*
X128421Y48097D02*
X121757D01*
Y38100D01*
X128421D01*
X121757Y43098D02*
X125089D01*
X138418Y46431D02*
X136752Y48097D01*
X133420D01*
X131754Y46431D01*
Y44764D01*
X133420Y43098D01*
X136752D01*
X138418Y41432D01*
Y39766D01*
X136752Y38100D01*
X133420D01*
X131754Y39766D01*
X83820Y-45009D02*
X85486Y-43343D01*
X88818D01*
X90485Y-45009D01*
Y-46676D01*
X88818Y-48342D01*
X87152D01*
X88818D01*
X90485Y-50008D01*
Y-51674D01*
X88818Y-53340D01*
X85486D01*
X83820Y-51674D01*
X93817Y-43343D02*
Y-50008D01*
X97149Y-53340D01*
X100481Y-50008D01*
Y-43343D01*
X103814Y-45009D02*
X105480Y-43343D01*
X108812D01*
X110478Y-45009D01*
Y-46676D01*
X108812Y-48342D01*
X107146D01*
X108812D01*
X110478Y-50008D01*
Y-51674D01*
X108812Y-53340D01*
X105480D01*
X103814Y-51674D01*
X90485Y-95809D02*
X88818Y-94143D01*
X85486D01*
X83820Y-95809D01*
Y-102474D01*
X85486Y-104140D01*
X88818D01*
X90485Y-102474D01*
Y-99142D01*
X87152D01*
X93817Y-104140D02*
Y-94143D01*
X100481Y-104140D01*
Y-94143D01*
X103814D02*
Y-104140D01*
X108812D01*
X110478Y-102474D01*
Y-95809D01*
X108812Y-94143D01*
X103814D01*
X170180D02*
Y-104140D01*
X175178D01*
X176845Y-102474D01*
Y-100808D01*
X175178Y-99142D01*
X170180D01*
X175178D01*
X176845Y-97476D01*
Y-95809D01*
X175178Y-94143D01*
X170180D01*
X180177D02*
X186841D01*
X183509D01*
Y-104140D01*
X190174Y-95809D02*
X191840Y-94143D01*
X195172D01*
X196838Y-95809D01*
Y-102474D01*
X195172Y-104140D01*
X191840D01*
X190174Y-102474D01*
Y-95809D01*
X170180Y-78740D02*
Y-68743D01*
X175178D01*
X176845Y-70409D01*
Y-73742D01*
X175178Y-75408D01*
X170180D01*
X173512D02*
X176845Y-78740D01*
X186841Y-70409D02*
X185175Y-68743D01*
X181843D01*
X180177Y-70409D01*
Y-72076D01*
X181843Y-73742D01*
X185175D01*
X186841Y-75408D01*
Y-77074D01*
X185175Y-78740D01*
X181843D01*
X180177Y-77074D01*
X190174Y-68743D02*
X196838D01*
X193506D01*
Y-78740D01*
X170180Y-43343D02*
Y-53340D01*
X175178D01*
X176845Y-51674D01*
Y-45009D01*
X175178Y-43343D01*
X170180D01*
X180177D02*
X183509D01*
X181843D01*
Y-53340D01*
X180177D01*
X183509D01*
X193506Y-43343D02*
X190174D01*
X188507Y-45009D01*
Y-51674D01*
X190174Y-53340D01*
X193506D01*
X195172Y-51674D01*
Y-45009D01*
X193506Y-43343D01*
X90485Y-70409D02*
X88818Y-68743D01*
X85486D01*
X83820Y-70409D01*
Y-77074D01*
X85486Y-78740D01*
X88818D01*
X90485Y-77074D01*
X93817Y-68743D02*
Y-78740D01*
X100481D01*
X103814Y-68743D02*
Y-78740D01*
Y-75408D01*
X110478Y-68743D01*
X105480Y-73742D01*
X110478Y-78740D01*
X-83820Y131917D02*
X-80488D01*
X-82154D01*
Y121920D01*
X-83820D01*
X-80488D01*
X-68825D02*
X-75489D01*
X-68825Y128584D01*
Y130251D01*
X-70491Y131917D01*
X-73823D01*
X-75489Y130251D01*
X-58828D02*
X-60494Y131917D01*
X-63826D01*
X-65493Y130251D01*
Y123586D01*
X-63826Y121920D01*
X-60494D01*
X-58828Y123586D01*
X-195580Y45557D02*
Y38892D01*
X-192248Y35560D01*
X-188916Y38892D01*
Y45557D01*
X-178919Y43891D02*
X-180585Y45557D01*
X-183917D01*
X-185583Y43891D01*
Y37226D01*
X-183917Y35560D01*
X-180585D01*
X-178919Y37226D01*
X-168922Y43891D02*
X-170588Y45557D01*
X-173920D01*
X-175586Y43891D01*
Y37226D01*
X-173920Y35560D01*
X-170588D01*
X-168922Y37226D01*
X-195580Y18491D02*
X-193914Y20157D01*
X-190582D01*
X-188916Y18491D01*
Y16825D01*
X-190582Y15158D01*
X-192248D01*
X-190582D01*
X-188916Y13492D01*
Y11826D01*
X-190582Y10160D01*
X-193914D01*
X-195580Y11826D01*
X-185583Y20157D02*
Y13492D01*
X-182251Y10160D01*
X-178919Y13492D01*
Y20157D01*
X-175586Y18491D02*
X-173920Y20157D01*
X-170588D01*
X-168922Y18491D01*
Y16825D01*
X-170588Y15158D01*
X-172254D01*
X-170588D01*
X-168922Y13492D01*
Y11826D01*
X-170588Y10160D01*
X-173920D01*
X-175586Y11826D01*
X-190582Y-5243D02*
X-193914D01*
X-195580Y-6909D01*
Y-13574D01*
X-193914Y-15240D01*
X-190582D01*
X-188916Y-13574D01*
Y-6909D01*
X-190582Y-5243D01*
X-185583D02*
Y-13574D01*
X-183917Y-15240D01*
X-180585D01*
X-178919Y-13574D01*
Y-5243D01*
X-175586D02*
X-168922D01*
X-172254D01*
Y-15240D01*
X-188916Y-32309D02*
X-190582Y-30643D01*
X-193914D01*
X-195580Y-32309D01*
Y-38974D01*
X-193914Y-40640D01*
X-190582D01*
X-188916Y-38974D01*
Y-35642D01*
X-192248D01*
X-185583Y-40640D02*
Y-30643D01*
X-178919Y-40640D01*
Y-30643D01*
X-175586D02*
Y-40640D01*
X-170588D01*
X-168922Y-38974D01*
Y-32309D01*
X-170588Y-30643D01*
X-175586D01*
X-104140Y35560D02*
Y45557D01*
X-99142D01*
X-97476Y43891D01*
Y40558D01*
X-99142Y38892D01*
X-104140D01*
X-87479Y43891D02*
X-89145Y45557D01*
X-92477D01*
X-94143Y43891D01*
Y37226D01*
X-92477Y35560D01*
X-89145D01*
X-87479Y37226D01*
Y40558D01*
X-90811D01*
X-79148Y45557D02*
X-82480D01*
X-84146Y43891D01*
Y37226D01*
X-82480Y35560D01*
X-79148D01*
X-77482Y37226D01*
Y43891D01*
X-79148Y45557D01*
X-97476Y18491D02*
X-99142Y20157D01*
X-102474D01*
X-104140Y18491D01*
Y16825D01*
X-102474Y15158D01*
X-99142D01*
X-97476Y13492D01*
Y11826D01*
X-99142Y10160D01*
X-102474D01*
X-104140Y11826D01*
X-94143Y20157D02*
Y10160D01*
X-89145D01*
X-87479Y11826D01*
Y18491D01*
X-89145Y20157D01*
X-94143D01*
X-84146Y10160D02*
Y16825D01*
X-80814Y20157D01*
X-77482Y16825D01*
Y10160D01*
Y15158D01*
X-84146D01*
X-97476Y-6909D02*
X-99142Y-5243D01*
X-102474D01*
X-104140Y-6909D01*
Y-8576D01*
X-102474Y-10242D01*
X-99142D01*
X-97476Y-11908D01*
Y-13574D01*
X-99142Y-15240D01*
X-102474D01*
X-104140Y-13574D01*
X-87479Y-6909D02*
X-89145Y-5243D01*
X-92477D01*
X-94143Y-6909D01*
Y-13574D01*
X-92477Y-15240D01*
X-89145D01*
X-87479Y-13574D01*
X-84146Y-5243D02*
Y-15240D01*
X-77482D01*
X-104140Y-30643D02*
Y-40640D01*
X-99142D01*
X-97476Y-38974D01*
Y-32309D01*
X-99142Y-30643D01*
X-104140D01*
X-94143D02*
X-90811D01*
X-92477D01*
Y-40640D01*
X-94143D01*
X-90811D01*
X-85813D02*
Y-30643D01*
X-80814D01*
X-79148Y-32309D01*
Y-35642D01*
X-80814Y-37308D01*
X-85813D01*
X-82480D02*
X-79148Y-40640D01*
X-155896Y68417D02*
X-162560D01*
Y58420D01*
X-155896D01*
X-162560Y63418D02*
X-159228D01*
X-152563Y58420D02*
Y65085D01*
X-147565D01*
X-145899Y63418D01*
Y58420D01*
X-135902Y65085D02*
X-140900D01*
X-142566Y63418D01*
Y60086D01*
X-140900Y58420D01*
X-135902D01*
X-130904D02*
X-127571D01*
X-125905Y60086D01*
Y63418D01*
X-127571Y65085D01*
X-130904D01*
X-132570Y63418D01*
Y60086D01*
X-130904Y58420D01*
X-115908Y68417D02*
Y58420D01*
X-120907D01*
X-122573Y60086D01*
Y63418D01*
X-120907Y65085D01*
X-115908D01*
X-107578Y58420D02*
X-110910D01*
X-112576Y60086D01*
Y63418D01*
X-110910Y65085D01*
X-107578D01*
X-105912Y63418D01*
Y61752D01*
X-112576D01*
X-102579Y65085D02*
Y58420D01*
Y61752D01*
X-100913Y63418D01*
X-99247Y65085D01*
X-97581D01*
X120964Y-22149D02*
X119298Y-20483D01*
X115966D01*
X114300Y-22149D01*
Y-23816D01*
X115966Y-25482D01*
X119298D01*
X120964Y-27148D01*
Y-28814D01*
X119298Y-30480D01*
X115966D01*
X114300Y-28814D01*
X124297Y-20483D02*
Y-30480D01*
X127629Y-27148D01*
X130961Y-30480D01*
Y-20483D01*
X134294D02*
Y-30480D01*
X139292D01*
X140958Y-28814D01*
Y-22149D01*
X139292Y-20483D01*
X134294D01*
D29*
X-2500Y23000D02*
G03*
X-2500Y23000I-3000J0D01*
G01*
D30*
X-126200Y-155200D02*
G03*
X-126200Y-155200I-29000J0D01*
G01*
X184200D02*
G03*
X184200Y-155200I-29000J0D01*
G01*
Y155200D02*
G03*
X184200Y155200I-29000J0D01*
G01*
X-126200D02*
G03*
X-126200Y155200I-29000J0D01*
G01*
D31*
X-135200Y-155200D02*
G03*
X-135200Y-155200I-20000J0D01*
G01*
X175200D02*
G03*
X175200Y-155200I-20000J0D01*
G01*
Y155200D02*
G03*
X175200Y155200I-20000J0D01*
G01*
X-135200D02*
G03*
X-135200Y155200I-20000J0D01*
G01*
D32*
X62484Y-21844D02*
Y-18796D01*
X54356Y-21844D02*
Y-18796D01*
X-54356Y-21844D02*
Y-18796D01*
X-62484Y-21844D02*
Y-18796D01*
X-54356Y49276D02*
Y52324D01*
X-62484Y49276D02*
Y52324D01*
X54356Y49276D02*
Y52324D01*
X62484Y49276D02*
Y52324D01*
X-19050Y-111000D02*
Y-108000D01*
X19000D01*
Y-111000D02*
Y-108000D01*
X-19050Y-146050D02*
Y-143002D01*
Y-146050D02*
X19000D01*
Y-143002D01*
X-50800Y139700D02*
X50800D01*
Y114300D02*
Y139700D01*
X-50800Y114300D02*
X50800D01*
X-50800D02*
Y139700D01*
X-4340Y82550D02*
Y90170D01*
X24660D01*
Y82550D02*
Y90170D01*
X-4340Y82550D02*
X24660D01*
X-29372Y87404D02*
X-16348D01*
X-29372Y90396D02*
X-16348D01*
X36668Y87856D02*
X49692D01*
X36668Y84864D02*
X49692D01*
X51908Y16736D02*
X64932D01*
X51908Y13744D02*
X64932D01*
X-64932D02*
X-51908D01*
X-64932Y16736D02*
X-51908D01*
M02*
