M48
;Layer_Color=9474304
;FILE_FORMAT=4:4
METRIC
;TYPE=PLATED
T1F00S00C0.3000
T2F00S00C0.8128
T3F00S00C0.9000
T4F00S00C3.2000
%
T01
X-00036830Y-00135890
X-00013970Y-00046990
X00008890Y-00022860
X-00045720Y-00017780
X00121920Y00054610
Y00074930
Y00104140
X00171450Y00074930
X00073660Y00027940
X00071120Y00007400
X00040640Y00040640
X00027940Y00045720
X00020320Y00052070
X00010160Y00053340
X00000000
X00007620Y00027940
X00010160Y00015240
X00013970Y-00006350
X00038100Y00060960
X-00027940Y00045720
X-00038100Y00081280
X-00087630Y-00002540
T02
X-00038100Y00127000
X-00012700
X00012700
X00038100
T03
X-00149860Y-00035560
X-00124460
X00127000Y-00048260
Y-00073660
Y-00099060
X00152400
Y-00073660
Y-00048260
X-00124460Y-00010160
Y00015240
Y00040640
X-00149860
Y00015240
Y-00010160
T04
X-00155200Y-00155200
X00155200
Y00155200
X-00155200
M30
