G04 Layer_Physical_Order=2*
G04 Layer_Color=16711680*
%FSLAX44Y44*%
%MOMM*%
G71*
G01*
G75*
G04:AMPARAMS|DCode=17|XSize=1.4mm|YSize=1mm|CornerRadius=0.125mm|HoleSize=0mm|Usage=FLASHONLY|Rotation=0.000|XOffset=0mm|YOffset=0mm|HoleType=Round|Shape=RoundedRectangle|*
%AMROUNDEDRECTD17*
21,1,1.4000,0.7500,0,0,0.0*
21,1,1.1500,1.0000,0,0,0.0*
1,1,0.2500,0.5750,-0.3750*
1,1,0.2500,-0.5750,-0.3750*
1,1,0.2500,-0.5750,0.3750*
1,1,0.2500,0.5750,0.3750*
%
%ADD17ROUNDEDRECTD17*%
%ADD18C,0.2500*%
%ADD20C,0.5000*%
%ADD22C,1.5000*%
%ADD23R,1.5000X1.5000*%
%ADD24O,1.5240X2.0320*%
G04:AMPARAMS|DCode=25|XSize=1.524mm|YSize=2.032mm|CornerRadius=0.1905mm|HoleSize=0mm|Usage=FLASHONLY|Rotation=0.000|XOffset=0mm|YOffset=0mm|HoleType=Round|Shape=RoundedRectangle|*
%AMROUNDEDRECTD25*
21,1,1.5240,1.6510,0,0,0.0*
21,1,1.1430,2.0320,0,0,0.0*
1,1,0.3810,0.5715,-0.8255*
1,1,0.3810,-0.5715,-0.8255*
1,1,0.3810,-0.5715,0.8255*
1,1,0.3810,0.5715,0.8255*
%
%ADD25ROUNDEDRECTD25*%
%ADD26C,3.5000*%
%ADD27C,0.6000*%
%ADD28O,1.7000X0.6500*%
G36*
X207451Y158944D02*
Y-158944D01*
X158944Y-207451D01*
X-158944D01*
X-207451Y-158944D01*
Y158944D01*
X-158944Y207451D01*
X158944D01*
X207451Y158944D01*
D02*
G37*
%LPC*%
G36*
X155200Y174292D02*
X151475Y173925D01*
X147894Y172839D01*
X144593Y171075D01*
X141700Y168700D01*
X139326Y165807D01*
X137562Y162506D01*
X136475Y158925D01*
X136108Y155200D01*
X136475Y151475D01*
X137562Y147894D01*
X139326Y144593D01*
X141700Y141700D01*
X144593Y139326D01*
X147894Y137562D01*
X151475Y136475D01*
X155200Y136108D01*
X158925Y136475D01*
X162506Y137562D01*
X165807Y139326D01*
X168700Y141700D01*
X171075Y144593D01*
X172839Y147894D01*
X173925Y151475D01*
X174292Y155200D01*
X173925Y158925D01*
X172839Y162506D01*
X171075Y165807D01*
X168700Y168700D01*
X165807Y171075D01*
X162506Y172839D01*
X158925Y173925D01*
X155200Y174292D01*
D02*
G37*
G36*
X-155200D02*
X-158925Y173925D01*
X-162506Y172839D01*
X-165807Y171075D01*
X-168700Y168700D01*
X-171074Y165807D01*
X-172839Y162506D01*
X-173925Y158925D01*
X-174292Y155200D01*
X-173925Y151475D01*
X-172839Y147894D01*
X-171074Y144593D01*
X-168700Y141700D01*
X-165807Y139326D01*
X-162506Y137562D01*
X-158925Y136475D01*
X-155200Y136108D01*
X-151475Y136475D01*
X-147894Y137562D01*
X-144593Y139326D01*
X-141700Y141700D01*
X-139326Y144593D01*
X-137561Y147894D01*
X-136475Y151475D01*
X-136108Y155200D01*
X-136475Y158925D01*
X-137561Y162506D01*
X-139326Y165807D01*
X-141700Y168700D01*
X-144593Y171075D01*
X-147894Y172839D01*
X-151475Y173925D01*
X-155200Y174292D01*
D02*
G37*
G36*
X-11430Y139621D02*
Y128270D01*
X-2452D01*
Y129540D01*
X-2801Y132192D01*
X-3825Y134664D01*
X-5454Y136786D01*
X-7576Y138415D01*
X-10048Y139439D01*
X-11430Y139621D01*
D02*
G37*
G36*
X-13970D02*
X-15352Y139439D01*
X-17824Y138415D01*
X-19946Y136786D01*
X-21575Y134664D01*
X-22598Y132192D01*
X-22948Y129540D01*
Y128270D01*
X-13970D01*
Y139621D01*
D02*
G37*
G36*
X-32385Y138727D02*
X-43815D01*
X-45143Y138462D01*
X-46270Y137710D01*
X-47022Y136584D01*
X-47287Y135255D01*
Y118745D01*
X-47022Y117416D01*
X-46270Y116290D01*
X-45143Y115538D01*
X-43815Y115273D01*
X-32385D01*
X-31056Y115538D01*
X-29930Y116290D01*
X-29177Y117416D01*
X-28913Y118745D01*
Y135255D01*
X-29177Y136584D01*
X-29930Y137710D01*
X-31056Y138462D01*
X-32385Y138727D01*
D02*
G37*
G36*
X38100Y138739D02*
X35719Y138425D01*
X33501Y137506D01*
X31596Y136045D01*
X30134Y134139D01*
X29215Y131921D01*
X28901Y129540D01*
Y124460D01*
X29215Y122080D01*
X-8626Y84239D01*
X-9896Y84765D01*
Y100439D01*
X7002Y117337D01*
X8101Y116494D01*
X10319Y115575D01*
X12700Y115261D01*
X15081Y115575D01*
X17299Y116494D01*
X19204Y117956D01*
X20666Y119861D01*
X21585Y122079D01*
X21899Y124460D01*
Y129540D01*
X21585Y131921D01*
X20666Y134139D01*
X19204Y136045D01*
X17299Y137506D01*
X15081Y138425D01*
X12700Y138739D01*
X10319Y138425D01*
X8101Y137506D01*
X6196Y136045D01*
X4734Y134139D01*
X3815Y131921D01*
X3501Y129540D01*
Y124460D01*
X3815Y122080D01*
X-14683Y103583D01*
X-15290Y102673D01*
X-15504Y101600D01*
Y49805D01*
X-16774Y49279D01*
X-21547Y54053D01*
X-22457Y54660D01*
X-23530Y54874D01*
X-35560D01*
X-36633Y54660D01*
X-37543Y54053D01*
X-47703Y43893D01*
X-48310Y42983D01*
X-48524Y41910D01*
Y21854D01*
X-86469D01*
X-107238Y42623D01*
X-108147Y43231D01*
X-109220Y43444D01*
X-115880D01*
X-116599Y45179D01*
X-118041Y47059D01*
X-119921Y48502D01*
X-122110Y49408D01*
X-124460Y49718D01*
X-126809Y49408D01*
X-128999Y48502D01*
X-130879Y47059D01*
X-132321Y45179D01*
X-133228Y42990D01*
X-133538Y40640D01*
X-133228Y38291D01*
X-132321Y36101D01*
X-130879Y34221D01*
X-128999Y32779D01*
X-126809Y31872D01*
X-124460Y31562D01*
X-122110Y31872D01*
X-119921Y32779D01*
X-118041Y34221D01*
X-116599Y36101D01*
X-115880Y37836D01*
X-110381D01*
X-89613Y17068D01*
X-88703Y16460D01*
X-87630Y16246D01*
X-37089D01*
X-36674Y15625D01*
X-35103Y14576D01*
X-33250Y14207D01*
X-22750D01*
X-20896Y14576D01*
X-19325Y15625D01*
X-18276Y17197D01*
X-17907Y19050D01*
X-18276Y20903D01*
X-19325Y22475D01*
X-20896Y23524D01*
X-22750Y23893D01*
X-33250D01*
X-35103Y23524D01*
X-36674Y22475D01*
X-37089Y21854D01*
X-42916D01*
Y40749D01*
X-34399Y49266D01*
X-32510D01*
X-31831Y47996D01*
X-32179Y47476D01*
X-32528Y45720D01*
X-32179Y43964D01*
X-31184Y42476D01*
X-29696Y41481D01*
X-27940Y41132D01*
X-26184Y41481D01*
X-24696Y42476D01*
X-23340Y42235D01*
X-7884Y26779D01*
Y-48260D01*
X-7670Y-49333D01*
X-7063Y-50243D01*
X61517Y-118823D01*
X62427Y-119430D01*
X63500Y-119644D01*
X134620D01*
X135693Y-119430D01*
X136603Y-118823D01*
X148316Y-107110D01*
X150051Y-107828D01*
X152400Y-108138D01*
X154750Y-107828D01*
X156939Y-106921D01*
X158819Y-105479D01*
X160261Y-103599D01*
X161168Y-101409D01*
X161478Y-99060D01*
X161168Y-96710D01*
X160261Y-94521D01*
X158819Y-92641D01*
X156939Y-91199D01*
X154750Y-90292D01*
X152400Y-89982D01*
X150051Y-90292D01*
X147861Y-91199D01*
X145981Y-92641D01*
X144539Y-94521D01*
X143632Y-96710D01*
X143322Y-99060D01*
X143632Y-101409D01*
X144350Y-103144D01*
X133459Y-114036D01*
X64661D01*
X-2276Y-47099D01*
Y-17169D01*
X-1006Y-16783D01*
X-713Y-17223D01*
X4405Y-22340D01*
X4302Y-22860D01*
X4651Y-24616D01*
X5646Y-26104D01*
X7134Y-27099D01*
X8890Y-27448D01*
X10646Y-27099D01*
X12134Y-26104D01*
X13129Y-24616D01*
X13478Y-22860D01*
X13129Y-21104D01*
X12134Y-19616D01*
X10646Y-18621D01*
X8890Y-18272D01*
X8370Y-18375D01*
X4074Y-14079D01*
Y23370D01*
X5344Y24049D01*
X5864Y23701D01*
X7620Y23352D01*
X9161Y23658D01*
X10312Y22953D01*
X10401Y21987D01*
X8177Y19763D01*
X7652Y18976D01*
X6916Y18484D01*
X5921Y16996D01*
X5572Y15240D01*
X5921Y13484D01*
X6916Y11996D01*
X8404Y11001D01*
X10160Y10652D01*
X11916Y11001D01*
X13404Y11996D01*
X14399Y13484D01*
X14748Y15240D01*
X14399Y16996D01*
X13975Y17630D01*
X15353Y19007D01*
X15960Y19917D01*
X16174Y20990D01*
Y31838D01*
X15960Y32911D01*
X15353Y33821D01*
X1304Y47869D01*
X1632Y48951D01*
X1823Y49146D01*
X3244Y50096D01*
X4239Y51584D01*
X4433Y52558D01*
X5727D01*
X5921Y51584D01*
X6916Y50096D01*
X8404Y49101D01*
X10160Y48752D01*
X11916Y49101D01*
X13404Y50096D01*
X14399Y51584D01*
X14516Y52171D01*
X15732Y52070D01*
X16081Y50314D01*
X17076Y48826D01*
X18564Y47831D01*
X20320Y47482D01*
X22076Y47831D01*
X22682Y48236D01*
X23462Y47654D01*
X23681Y47376D01*
X23352Y45720D01*
X23701Y43964D01*
X24696Y42476D01*
X26184Y41481D01*
X27940Y41132D01*
X29696Y41481D01*
X31184Y42476D01*
X32179Y43964D01*
X32476Y45456D01*
X37462D01*
X37847Y44186D01*
X37396Y43884D01*
X36401Y42396D01*
X36052Y40640D01*
X36401Y38884D01*
X37396Y37396D01*
X38884Y36401D01*
X40640Y36052D01*
X41160Y36155D01*
X41197Y36117D01*
X42107Y35510D01*
X43180Y35296D01*
X50667D01*
X51052Y34026D01*
X50687Y33782D01*
X50080Y32873D01*
X49932Y32128D01*
X48370D01*
X46809Y31818D01*
X45486Y30934D01*
X45486Y30934D01*
X37681Y23128D01*
X35696D01*
X35103Y23524D01*
X33250Y23893D01*
X22750D01*
X20897Y23524D01*
X19325Y22475D01*
X18276Y20903D01*
X17907Y19050D01*
X18276Y17197D01*
X19325Y15625D01*
X20897Y14576D01*
X22750Y14207D01*
X33250D01*
X35103Y14576D01*
X35696Y14972D01*
X39370D01*
X39370Y14972D01*
X39770Y15051D01*
X40396Y13881D01*
X36444Y9929D01*
X35103Y10825D01*
X33250Y11193D01*
X22750D01*
X20897Y10825D01*
X19325Y9775D01*
X18276Y8203D01*
X17907Y6350D01*
X18276Y4497D01*
X19325Y2925D01*
X20897Y1876D01*
X22750Y1507D01*
X33250D01*
X35103Y1876D01*
X36675Y2925D01*
X37129Y3606D01*
X37903Y3760D01*
X38813Y4367D01*
X47536Y13091D01*
X48806Y12565D01*
Y11320D01*
X58420D01*
Y10050D01*
X59690D01*
Y2436D01*
X64170D01*
X65649Y2730D01*
X65926Y2915D01*
X67126Y3406D01*
X68958Y2181D01*
X69850Y2004D01*
Y7400D01*
X72390D01*
Y2004D01*
X73282Y2181D01*
X74666Y3106D01*
X75936Y2524D01*
Y-1379D01*
X70068Y-7246D01*
X66974D01*
Y-6300D01*
X66761Y-5227D01*
X66153Y-4318D01*
X65243Y-3710D01*
X64170Y-3496D01*
X52670D01*
X51597Y-3710D01*
X50687Y-4318D01*
X50080Y-5227D01*
X49866Y-6300D01*
Y-13800D01*
X49875Y-13845D01*
X49420Y-14300D01*
Y-22342D01*
X49100Y-22821D01*
X48806Y-24300D01*
Y-26780D01*
X58420D01*
Y-28050D01*
D01*
Y-26780D01*
X68034D01*
Y-24300D01*
X67740Y-22821D01*
X67420Y-22342D01*
Y-14300D01*
X67244Y-14124D01*
X67639Y-12854D01*
X71230D01*
X72303Y-12641D01*
X73212Y-12033D01*
X80723Y-4523D01*
X81330Y-3613D01*
X81544Y-2540D01*
Y12700D01*
X81330Y13773D01*
X80723Y14683D01*
X76612Y18793D01*
X76544Y19976D01*
X77428Y21299D01*
X77738Y22860D01*
Y25944D01*
X77899Y26184D01*
X78248Y27940D01*
X77899Y29696D01*
X76904Y31184D01*
X75416Y32179D01*
X73660Y32528D01*
X71904Y32179D01*
X71828Y32128D01*
X66909D01*
X66761Y32873D01*
X66153Y33782D01*
X65788Y34026D01*
X66173Y35296D01*
X95359D01*
X149596Y-18942D01*
Y-39680D01*
X147861Y-40399D01*
X145981Y-41841D01*
X144539Y-43721D01*
X143632Y-45910D01*
X143322Y-48260D01*
X143632Y-50609D01*
X144539Y-52799D01*
X145981Y-54679D01*
X147861Y-56121D01*
X149707Y-56886D01*
X149455Y-58156D01*
X139700D01*
X138627Y-58370D01*
X137717Y-58977D01*
X131084Y-65610D01*
X129350Y-64892D01*
X127000Y-64582D01*
X124651Y-64892D01*
X122461Y-65799D01*
X120581Y-67241D01*
X119139Y-69121D01*
X118232Y-71310D01*
X117922Y-73660D01*
X118232Y-76009D01*
X119139Y-78199D01*
X120581Y-80079D01*
X122461Y-81521D01*
X124651Y-82428D01*
X127000Y-82738D01*
X129350Y-82428D01*
X131539Y-81521D01*
X133419Y-80079D01*
X134861Y-78199D01*
X135768Y-76009D01*
X136078Y-73660D01*
X135768Y-71310D01*
X135050Y-69576D01*
X140861Y-63764D01*
X149455D01*
X149707Y-65034D01*
X147861Y-65799D01*
X145981Y-67241D01*
X144539Y-69121D01*
X143632Y-71310D01*
X143322Y-73660D01*
X143632Y-76009D01*
X144539Y-78199D01*
X145981Y-80079D01*
X147861Y-81521D01*
X150051Y-82428D01*
X152400Y-82738D01*
X154750Y-82428D01*
X156939Y-81521D01*
X158819Y-80079D01*
X160261Y-78199D01*
X161168Y-76009D01*
X161478Y-73660D01*
X161474Y-73631D01*
X174703Y-60403D01*
X175310Y-59493D01*
X175524Y-58420D01*
Y-12700D01*
X175310Y-11627D01*
X174703Y-10717D01*
X101043Y62943D01*
X100133Y63550D01*
X99060Y63764D01*
X41801D01*
X41125Y64569D01*
X41550Y65776D01*
X104249D01*
X117397Y52627D01*
X118184Y52102D01*
X118676Y51366D01*
X120164Y50371D01*
X121920Y50022D01*
X123676Y50371D01*
X125164Y51366D01*
X126159Y52854D01*
X126508Y54610D01*
X126159Y56366D01*
X125164Y57854D01*
X123676Y58849D01*
X121920Y59198D01*
X120164Y58849D01*
X119530Y58425D01*
X107393Y70563D01*
X106953Y70856D01*
X107339Y72126D01*
X118381D01*
X118676Y71686D01*
X120164Y70691D01*
X121920Y70342D01*
X123676Y70691D01*
X125164Y71686D01*
X126159Y73174D01*
X126508Y74930D01*
X126159Y76686D01*
X125164Y78174D01*
X123676Y79169D01*
X121920Y79518D01*
X120164Y79169D01*
X118676Y78174D01*
X118381Y77734D01*
X31750D01*
X30677Y77520D01*
X29767Y76913D01*
X11406Y58552D01*
X10933Y58512D01*
X10661Y58868D01*
X10544Y59919D01*
X51961Y101336D01*
X118381D01*
X118676Y100896D01*
X120164Y99901D01*
X121920Y99552D01*
X123676Y99901D01*
X125164Y100896D01*
X126159Y102384D01*
X126508Y104140D01*
X126159Y105896D01*
X125164Y107384D01*
X123676Y108379D01*
X121920Y108728D01*
X120164Y108379D01*
X118676Y107384D01*
X118381Y106944D01*
X50800D01*
X49727Y106730D01*
X48817Y106123D01*
X520Y57825D01*
X0Y57928D01*
X-1756Y57579D01*
X-3244Y56584D01*
X-3546Y56133D01*
X-4816Y56518D01*
Y80119D01*
X32402Y117337D01*
X33501Y116494D01*
X35719Y115575D01*
X38100Y115261D01*
X40481Y115575D01*
X42699Y116494D01*
X44605Y117956D01*
X46066Y119861D01*
X46985Y122079D01*
X47299Y124460D01*
Y129540D01*
X46985Y131921D01*
X46066Y134139D01*
X44605Y136045D01*
X42699Y137506D01*
X40481Y138425D01*
X38100Y138739D01*
D02*
G37*
G36*
X-2452Y125730D02*
X-11430D01*
Y114380D01*
X-10048Y114562D01*
X-7576Y115585D01*
X-5454Y117214D01*
X-3825Y119336D01*
X-2801Y121808D01*
X-2452Y124460D01*
Y125730D01*
D02*
G37*
G36*
X-13970D02*
X-22948D01*
Y124460D01*
X-22598Y121808D01*
X-21575Y119336D01*
X-19946Y117214D01*
X-17824Y115585D01*
X-15352Y114562D01*
X-13970Y114380D01*
Y125730D01*
D02*
G37*
G36*
X-36830Y86676D02*
Y82550D01*
X-32704D01*
X-32881Y83442D01*
X-34106Y85274D01*
X-35938Y86499D01*
X-36830Y86676D01*
D02*
G37*
G36*
X-39370D02*
X-40262Y86499D01*
X-42094Y85274D01*
X-43319Y83442D01*
X-43496Y82550D01*
X-39370D01*
Y86676D01*
D02*
G37*
G36*
X172720Y80326D02*
Y76200D01*
X176846D01*
X176669Y77092D01*
X175444Y78924D01*
X173612Y80149D01*
X172720Y80326D01*
D02*
G37*
G36*
X170180D02*
X169288Y80149D01*
X167456Y78924D01*
X166231Y77092D01*
X166054Y76200D01*
X170180D01*
Y80326D01*
D02*
G37*
G36*
X-32704Y80010D02*
X-36830D01*
Y75884D01*
X-35938Y76061D01*
X-34106Y77286D01*
X-32881Y79118D01*
X-32704Y80010D01*
D02*
G37*
G36*
X-39370D02*
X-43496D01*
X-43319Y79118D01*
X-42094Y77286D01*
X-40262Y76061D01*
X-39370Y75884D01*
Y80010D01*
D02*
G37*
G36*
X176846Y73660D02*
X172720D01*
Y69534D01*
X173612Y69711D01*
X175444Y70936D01*
X176669Y72768D01*
X176846Y73660D01*
D02*
G37*
G36*
X170180D02*
X166054D01*
X166231Y72768D01*
X167456Y70936D01*
X169288Y69711D01*
X170180Y69534D01*
Y73660D01*
D02*
G37*
G36*
X-140860Y49640D02*
X-158860D01*
Y31640D01*
X-140860D01*
Y49640D01*
D02*
G37*
G36*
X-149860Y24318D02*
X-152209Y24008D01*
X-154399Y23101D01*
X-156279Y21659D01*
X-157721Y19779D01*
X-158628Y17590D01*
X-158938Y15240D01*
X-158628Y12891D01*
X-157721Y10701D01*
X-156279Y8821D01*
X-154399Y7379D01*
X-152209Y6472D01*
X-149860Y6162D01*
X-147510Y6472D01*
X-145321Y7379D01*
X-143441Y8821D01*
X-141999Y10701D01*
X-141092Y12891D01*
X-140782Y15240D01*
X-141092Y17590D01*
X-141999Y19779D01*
X-143441Y21659D01*
X-145321Y23101D01*
X-147510Y24008D01*
X-149860Y24318D01*
D02*
G37*
G36*
X57150Y8780D02*
X48806D01*
Y6300D01*
X49100Y4821D01*
X49938Y3567D01*
X51191Y2730D01*
X52670Y2436D01*
X57150D01*
Y8780D01*
D02*
G37*
G36*
X-124460Y24318D02*
X-126809Y24008D01*
X-128999Y23101D01*
X-130879Y21659D01*
X-132321Y19779D01*
X-133228Y17590D01*
X-133538Y15240D01*
X-133228Y12891D01*
X-132321Y10701D01*
X-130879Y8821D01*
X-128999Y7379D01*
X-126809Y6472D01*
X-124460Y6162D01*
X-122110Y6472D01*
X-119921Y7379D01*
X-118041Y8821D01*
X-116599Y10701D01*
X-116283Y11462D01*
X-114785Y11760D01*
X-107393Y4367D01*
X-106483Y3760D01*
X-105410Y3546D01*
X-90434D01*
Y999D01*
X-90874Y704D01*
X-91869Y-784D01*
X-92218Y-2540D01*
X-91869Y-4296D01*
X-90874Y-5784D01*
X-90423Y-6086D01*
X-90808Y-7356D01*
X-115880D01*
X-116599Y-5621D01*
X-118041Y-3741D01*
X-119921Y-2298D01*
X-122110Y-1392D01*
X-124460Y-1082D01*
X-126809Y-1392D01*
X-128999Y-2298D01*
X-130879Y-3741D01*
X-132321Y-5621D01*
X-133228Y-7810D01*
X-133538Y-10160D01*
X-133228Y-12509D01*
X-132321Y-14699D01*
X-130879Y-16579D01*
X-128999Y-18021D01*
X-126809Y-18928D01*
X-124460Y-19238D01*
X-122110Y-18928D01*
X-119921Y-18021D01*
X-118041Y-16579D01*
X-116599Y-14699D01*
X-115880Y-12964D01*
X-48898D01*
X-48513Y-14234D01*
X-48964Y-14536D01*
X-49959Y-16024D01*
X-50003Y-16246D01*
X-87630D01*
X-88703Y-16459D01*
X-89613Y-17067D01*
X-105301Y-32756D01*
X-115880D01*
X-116599Y-31021D01*
X-118041Y-29141D01*
X-119921Y-27699D01*
X-122110Y-26792D01*
X-124460Y-26482D01*
X-126809Y-26792D01*
X-128999Y-27699D01*
X-130879Y-29141D01*
X-132321Y-31021D01*
X-133228Y-33210D01*
X-133538Y-35560D01*
X-133228Y-37909D01*
X-132321Y-40099D01*
X-130879Y-41979D01*
X-128999Y-43421D01*
X-126809Y-44328D01*
X-124460Y-44638D01*
X-122110Y-44328D01*
X-119921Y-43421D01*
X-118041Y-41979D01*
X-116599Y-40099D01*
X-115880Y-38364D01*
X-104140D01*
X-103067Y-38150D01*
X-102157Y-37543D01*
X-86468Y-21854D01*
X-47723D01*
X-47476Y-22019D01*
X-45720Y-22368D01*
X-43964Y-22019D01*
X-43717Y-21854D01*
X-37089D01*
X-36674Y-22475D01*
X-35103Y-23524D01*
X-33250Y-23893D01*
X-22750D01*
X-20896Y-23524D01*
X-19325Y-22475D01*
X-18276Y-20903D01*
X-18044Y-19739D01*
X-16774Y-19864D01*
Y-43451D01*
X-17214Y-43746D01*
X-18209Y-45234D01*
X-18558Y-46990D01*
X-18209Y-48746D01*
X-17214Y-50234D01*
X-15726Y-51229D01*
X-13970Y-51578D01*
X-12214Y-51229D01*
X-10726Y-50234D01*
X-9731Y-48746D01*
X-9382Y-46990D01*
X-9731Y-45234D01*
X-10726Y-43746D01*
X-11166Y-43451D01*
Y-7620D01*
X-11380Y-6547D01*
X-11987Y-5637D01*
X-13257Y-4367D01*
X-14167Y-3760D01*
X-15240Y-3546D01*
X-18911D01*
X-19325Y-2925D01*
X-20896Y-1875D01*
X-22750Y-1507D01*
X-33250D01*
X-35103Y-1875D01*
X-36674Y-2925D01*
X-37089Y-3546D01*
X-43180D01*
X-44253Y-3760D01*
X-45163Y-4367D01*
X-48151Y-7356D01*
X-84452D01*
X-84837Y-6086D01*
X-84386Y-5784D01*
X-83391Y-4296D01*
X-83042Y-2540D01*
X-83391Y-784D01*
X-84386Y704D01*
X-84826Y999D01*
Y3546D01*
X-37089D01*
X-36674Y2925D01*
X-35103Y1876D01*
X-33250Y1507D01*
X-22750D01*
X-20896Y1876D01*
X-19325Y2925D01*
X-18276Y4497D01*
X-17907Y6350D01*
X-18276Y8203D01*
X-19325Y9775D01*
X-20896Y10825D01*
X-22750Y11193D01*
X-33250D01*
X-35103Y10825D01*
X-36674Y9775D01*
X-37089Y9154D01*
X-104249D01*
X-112317Y17223D01*
X-113227Y17830D01*
X-114300Y18044D01*
X-115880D01*
X-116599Y19779D01*
X-118041Y21659D01*
X-119921Y23101D01*
X-122110Y24008D01*
X-124460Y24318D01*
D02*
G37*
G36*
X33250Y-1507D02*
X22750D01*
X20897Y-1875D01*
X19325Y-2925D01*
X18911Y-3546D01*
X17509D01*
X17214Y-3106D01*
X15726Y-2111D01*
X13970Y-1762D01*
X12214Y-2111D01*
X10726Y-3106D01*
X9731Y-4594D01*
X9382Y-6350D01*
X9731Y-8106D01*
X10726Y-9594D01*
X12214Y-10589D01*
X13970Y-10938D01*
X15726Y-10589D01*
X17214Y-9594D01*
X17509Y-9154D01*
X18911D01*
X19325Y-9775D01*
X20897Y-10824D01*
X22750Y-11193D01*
X33250D01*
X35103Y-10824D01*
X36675Y-9775D01*
X37724Y-8203D01*
X38093Y-6350D01*
X37724Y-4497D01*
X36675Y-2925D01*
X35103Y-1875D01*
X33250Y-1507D01*
D02*
G37*
G36*
Y-13147D02*
X29270D01*
Y-17780D01*
X38901D01*
X38704Y-16791D01*
X37424Y-14876D01*
X35509Y-13596D01*
X33250Y-13147D01*
D02*
G37*
G36*
X26730D02*
X22750D01*
X20491Y-13596D01*
X18576Y-14876D01*
X17296Y-16791D01*
X17099Y-17780D01*
X26730D01*
Y-13147D01*
D02*
G37*
G36*
X-149860Y-1082D02*
X-152209Y-1392D01*
X-154399Y-2298D01*
X-156279Y-3741D01*
X-157721Y-5621D01*
X-158628Y-7810D01*
X-158938Y-10160D01*
X-158628Y-12509D01*
X-157721Y-14699D01*
X-156279Y-16579D01*
X-154399Y-18021D01*
X-152209Y-18928D01*
X-149860Y-19238D01*
X-147510Y-18928D01*
X-145321Y-18021D01*
X-143441Y-16579D01*
X-141999Y-14699D01*
X-141092Y-12509D01*
X-140782Y-10160D01*
X-141092Y-7810D01*
X-141999Y-5621D01*
X-143441Y-3741D01*
X-145321Y-2298D01*
X-147510Y-1392D01*
X-149860Y-1082D01*
D02*
G37*
G36*
X38901Y-20320D02*
X29270D01*
Y-24953D01*
X33250D01*
X35509Y-24504D01*
X37424Y-23224D01*
X38704Y-21309D01*
X38901Y-20320D01*
D02*
G37*
G36*
X26730D02*
X17099D01*
X17296Y-21309D01*
X18576Y-23224D01*
X20491Y-24504D01*
X22750Y-24953D01*
X26730D01*
Y-20320D01*
D02*
G37*
G36*
X-148590Y-25601D02*
Y-34290D01*
X-139901D01*
X-140078Y-32939D01*
X-141090Y-30497D01*
X-142699Y-28399D01*
X-144797Y-26790D01*
X-147239Y-25778D01*
X-148590Y-25601D01*
D02*
G37*
G36*
X-151130D02*
X-152481Y-25778D01*
X-154923Y-26790D01*
X-157021Y-28399D01*
X-158630Y-30497D01*
X-159642Y-32939D01*
X-159819Y-34290D01*
X-151130D01*
Y-25601D01*
D02*
G37*
G36*
X68034Y-29320D02*
X59690D01*
Y-35664D01*
X64170D01*
X65649Y-35370D01*
X66902Y-34533D01*
X67740Y-33279D01*
X68034Y-31800D01*
Y-29320D01*
D02*
G37*
G36*
X57150D02*
X48806D01*
Y-31800D01*
X49100Y-33279D01*
X49938Y-34533D01*
X51191Y-35370D01*
X52670Y-35664D01*
X57150D01*
Y-29320D01*
D02*
G37*
G36*
X-139901Y-36830D02*
X-148590D01*
Y-45519D01*
X-147239Y-45342D01*
X-144797Y-44330D01*
X-142699Y-42720D01*
X-141090Y-40623D01*
X-140078Y-38181D01*
X-139901Y-36830D01*
D02*
G37*
G36*
X-151130D02*
X-159819D01*
X-159642Y-38181D01*
X-158630Y-40623D01*
X-157021Y-42720D01*
X-154923Y-44330D01*
X-152481Y-45342D01*
X-151130Y-45519D01*
Y-36830D01*
D02*
G37*
G36*
X136000Y-39260D02*
X118000D01*
Y-57260D01*
X136000D01*
Y-39260D01*
D02*
G37*
G36*
X128270Y-89101D02*
Y-97790D01*
X136959D01*
X136782Y-96439D01*
X135770Y-93997D01*
X134161Y-91899D01*
X132063Y-90290D01*
X129621Y-89278D01*
X128270Y-89101D01*
D02*
G37*
G36*
X125730D02*
X124379Y-89278D01*
X121937Y-90290D01*
X119839Y-91899D01*
X118230Y-93997D01*
X117219Y-96439D01*
X117041Y-97790D01*
X125730D01*
Y-89101D01*
D02*
G37*
G36*
X136959Y-100330D02*
X128270D01*
Y-109019D01*
X129621Y-108841D01*
X132063Y-107830D01*
X134161Y-106221D01*
X135770Y-104123D01*
X136782Y-101681D01*
X136959Y-100330D01*
D02*
G37*
G36*
X125730D02*
X117041D01*
X117219Y-101681D01*
X118230Y-104123D01*
X119839Y-106221D01*
X121937Y-107830D01*
X124379Y-108841D01*
X125730Y-109019D01*
Y-100330D01*
D02*
G37*
G36*
X-35560Y-130494D02*
Y-134620D01*
X-31434D01*
X-31611Y-133728D01*
X-32836Y-131896D01*
X-34669Y-130671D01*
X-35560Y-130494D01*
D02*
G37*
G36*
X-38100D02*
X-38992Y-130671D01*
X-40824Y-131896D01*
X-42049Y-133728D01*
X-42226Y-134620D01*
X-38100D01*
Y-130494D01*
D02*
G37*
G36*
X-31434Y-137160D02*
X-35560D01*
Y-141286D01*
X-34669Y-141109D01*
X-32836Y-139884D01*
X-31611Y-138052D01*
X-31434Y-137160D01*
D02*
G37*
G36*
X-38100D02*
X-42226D01*
X-42049Y-138052D01*
X-40824Y-139884D01*
X-38992Y-141109D01*
X-38100Y-141286D01*
Y-137160D01*
D02*
G37*
G36*
X155200Y-136108D02*
X151475Y-136475D01*
X147894Y-137561D01*
X144593Y-139326D01*
X141700Y-141700D01*
X139326Y-144593D01*
X137562Y-147894D01*
X136475Y-151475D01*
X136108Y-155200D01*
X136475Y-158925D01*
X137562Y-162506D01*
X139326Y-165807D01*
X141700Y-168700D01*
X144593Y-171074D01*
X147894Y-172839D01*
X151475Y-173925D01*
X155200Y-174292D01*
X158925Y-173925D01*
X162506Y-172839D01*
X165807Y-171074D01*
X168700Y-168700D01*
X171075Y-165807D01*
X172839Y-162506D01*
X173925Y-158925D01*
X174292Y-155200D01*
X173925Y-151475D01*
X172839Y-147894D01*
X171075Y-144593D01*
X168700Y-141700D01*
X165807Y-139326D01*
X162506Y-137561D01*
X158925Y-136475D01*
X155200Y-136108D01*
D02*
G37*
G36*
X-155200D02*
X-158925Y-136475D01*
X-162506Y-137561D01*
X-165807Y-139326D01*
X-168700Y-141700D01*
X-171074Y-144593D01*
X-172839Y-147894D01*
X-173925Y-151475D01*
X-174292Y-155200D01*
X-173925Y-158925D01*
X-172839Y-162506D01*
X-171074Y-165807D01*
X-168700Y-168700D01*
X-165807Y-171074D01*
X-162506Y-172839D01*
X-158925Y-173925D01*
X-155200Y-174292D01*
X-151475Y-173925D01*
X-147894Y-172839D01*
X-144593Y-171074D01*
X-141700Y-168700D01*
X-139326Y-165807D01*
X-137561Y-162506D01*
X-136475Y-158925D01*
X-136108Y-155200D01*
X-136475Y-151475D01*
X-137561Y-147894D01*
X-139326Y-144593D01*
X-141700Y-141700D01*
X-144593Y-139326D01*
X-147894Y-137561D01*
X-151475Y-136475D01*
X-155200Y-136108D01*
D02*
G37*
%LPD*%
D17*
X58420Y10050D02*
D03*
Y28050D02*
D03*
Y-28050D02*
D03*
Y-10050D02*
D03*
D18*
X10160Y15240D02*
Y17780D01*
X58420Y-10050D02*
X71230D01*
X78740Y-2540D01*
Y12700D01*
X71120Y20320D02*
X78740Y12700D01*
X50800Y20320D02*
X71120D01*
X36830Y6350D02*
X50800Y20320D01*
X28000Y6350D02*
X36830D01*
X-124460Y40640D02*
X-109220D01*
X-87630Y19050D01*
X-124460Y-35560D02*
X-104140D01*
X-87630Y-19050D01*
X-124460Y15240D02*
X-114300D01*
X-105410Y6350D01*
X152400Y-48260D02*
Y-17780D01*
X96520Y38100D02*
X152400Y-17780D01*
X43180Y38100D02*
X96520D01*
X40640Y40640D02*
X43180Y38100D01*
X27940Y45720D02*
X30480Y48260D01*
X99060D01*
X165100Y-17780D01*
Y-55880D02*
Y-17780D01*
X160020Y-60960D02*
X165100Y-55880D01*
X139700Y-60960D02*
X160020D01*
X127000Y-73660D02*
X139700Y-60960D01*
X38100Y60960D02*
X99060D01*
X172720Y-12700D01*
X152400Y-73660D02*
X157480D01*
X172720Y-58420D01*
Y-12700D01*
X-5080Y-48260D02*
X63500Y-116840D01*
X134620D01*
X152400Y-99060D01*
X-27940Y45720D02*
X-22860D01*
X-5080Y27940D01*
X-12700Y48260D02*
X7620Y27940D01*
X-12700Y48260D02*
Y101600D01*
X12700Y127000D01*
X-7620Y81280D02*
X38100Y127000D01*
X-5080Y-48260D02*
Y27940D01*
X13370Y20990D02*
Y31838D01*
X10160Y17780D02*
X13370Y20990D01*
X-7620Y52828D02*
Y81280D01*
Y52828D02*
X13370Y31838D01*
X0Y53340D02*
X50800Y104140D01*
X121920D01*
X10160Y53340D02*
X31750Y74930D01*
X121920D01*
X13970Y-6350D02*
X28000D01*
X20320Y52070D02*
X36830Y68580D01*
X105410D01*
X119380Y54610D01*
X121920D01*
X-124460Y-10160D02*
X-46990D01*
X-43180Y-6350D01*
X-28000D01*
X-87630Y-2540D02*
Y6350D01*
X-105410D02*
X-87630D01*
X-28000D01*
Y-6350D02*
X-15240D01*
X-13970Y-7620D01*
Y-46990D02*
Y-7620D01*
X-87630Y-19050D02*
X-28000D01*
X-45720Y19050D02*
Y41910D01*
X-35560Y52070D01*
X-23530D01*
X1270Y27270D01*
Y-15240D02*
Y27270D01*
Y-15240D02*
X8890Y-22860D01*
X-87630Y19050D02*
X-45720D01*
X-28000D01*
D20*
X-12700Y116840D02*
Y127000D01*
X-38100Y91440D02*
X-12700Y116840D01*
X-38100Y81280D02*
Y91440D01*
X48370Y28050D02*
X58420D01*
X39370Y19050D02*
X48370Y28050D01*
X28000Y19050D02*
X39370D01*
X48370Y-28050D02*
X58420D01*
X28000Y-19050D02*
X39370D01*
X43180Y-5190D02*
X58420Y10050D01*
X43180Y-22860D02*
Y-5190D01*
X39370Y-19050D02*
X43180Y-22860D01*
X48370Y-28050D01*
X58420Y28050D02*
X73550D01*
X73660Y27940D01*
Y22860D02*
Y27940D01*
X71120Y20320D02*
X73660Y22860D01*
D22*
X152400Y-99060D02*
D03*
X127000D02*
D03*
X152400Y-73660D02*
D03*
X127000D02*
D03*
X152400Y-48260D02*
D03*
X-124460Y40640D02*
D03*
X-149860Y15240D02*
D03*
X-124460D02*
D03*
X-149860Y-10160D02*
D03*
X-124460D02*
D03*
X-149860Y-35560D02*
D03*
X-124460D02*
D03*
D23*
X127000Y-48260D02*
D03*
X-149860Y40640D02*
D03*
D24*
X12700Y127000D02*
D03*
X-12700D02*
D03*
X38100D02*
D03*
D25*
X-38100D02*
D03*
D26*
X-155200Y-155200D02*
D03*
X155200D02*
D03*
Y155200D02*
D03*
X-155200D02*
D03*
D27*
X171450Y74930D02*
D03*
X-38100Y81280D02*
D03*
X71120Y7400D02*
D03*
X7620Y27940D02*
D03*
X10160Y15240D02*
D03*
X40640Y40640D02*
D03*
X27940Y45720D02*
D03*
X38100Y60960D02*
D03*
X-27940Y45720D02*
D03*
X-36830Y-135890D02*
D03*
X121920Y104140D02*
D03*
Y74930D02*
D03*
X0Y53340D02*
D03*
X10160D02*
D03*
X20320Y52070D02*
D03*
X121920Y54610D02*
D03*
X13970Y-6350D02*
D03*
X-87630Y-2540D02*
D03*
X-13970Y-46990D02*
D03*
X-45720Y-17780D02*
D03*
X8890Y-22860D02*
D03*
X73660Y27940D02*
D03*
D28*
X28000Y19050D02*
D03*
Y6350D02*
D03*
Y-6350D02*
D03*
Y-19050D02*
D03*
X-28000Y19050D02*
D03*
Y6350D02*
D03*
Y-6350D02*
D03*
Y-19050D02*
D03*
M02*
