M48
;Layer_Color=9474304
;FILE_FORMAT=4:4
METRIC
;TYPE=PLATED
T1F00S00C0.3000
T2F00S00C0.5000
T4F00S00C0.8500
T5F00S00C0.9000
T6F00S00C3.2000
%
T01
X-00036830Y-00135890
X-00036970Y-00118250
X-00068500Y-00075500
X-00078000
X-00076200Y-00030480
X-00045720Y-00017780
X00002540Y-00027940
X00008890Y-00022860
X00058420Y-00058420
X00085793Y-00035938
X00043180Y-00101600
X00058420Y-00116840
X00091440Y-00160020
X00177800Y-00083820
X00071120Y00007400
X00073660Y00027940
X00086360
X00099060Y00048260
X00040640Y00040640
X00033020Y00050800
X00023500Y00051000
X00012700Y00050800
X00002540
X-00014058Y00060290
X-00020320Y00066040
X-00029140Y00054540
X-00038100Y00081280
X-00073660Y00093980
Y00104140
X-00149860
Y00093980
Y00077470
Y00066040
X-00081280Y00030480
X00040640Y00058420
X00066040Y00081280
Y00132080
T02
X-00171200Y-00171200
X-00155200Y-00178060
X-00139200Y-00171200
X-00132340Y-00155200
X-00139200Y-00139200
X-00155200Y-00132340
X-00171200Y-00139200
X-00178060Y-00155200
X00132340
X00139200Y-00139200
X00155200Y-00132340
X00171200Y-00139200
X00178060Y-00155200
X00171200Y-00171200
X00155200Y-00178060
X00139200Y-00171200
Y00139200
X00155200Y00132340
X00171200Y00139200
X00178060Y00155200
X00171200Y00171200
X00155200Y00178060
X00139200Y00171200
X00132340Y00155200
X-00132340
X-00139200Y00139200
X-00155200Y00132340
X-00171200Y00139200
X-00178060Y00155200
X-00171200Y00171200
X-00155200Y00178060
X-00139200Y00171200
T04
X-00168640Y-00079420
Y-00029420
T05
X-00101600Y-00116840
Y-00091440
Y-00066040
Y-00040640
X00134620Y-00045720
Y-00020320
X00160020
Y-00045720
Y-00071120
X00134620
Y-00096520
X00160020
Y00035560
X00134620
Y00060960
X00160020
Y00086360
X00134620
X00038100Y00127000
X00012700
X-00012700
X-00038100
X-00139700Y00020320
X-00165100
X-00190500
T06
X-00155200Y-00155200
X00155200
Y00155200
X-00155200
M30
