G04 Layer_Color=32896*
%FSLAX44Y44*%
%MOMM*%
G71*
G01*
G75*
%ADD18C,0.2500*%
%ADD21C,0.2000*%
%ADD29C,0.6000*%
%ADD30C,0.1500*%
%ADD31C,0.3000*%
%ADD32C,0.1270*%
G36*
X24233Y-65855D02*
X24333Y-65871D01*
X24666D01*
X24733Y-65888D01*
X24833D01*
X25049Y-65905D01*
X25233Y-65938D01*
X25382Y-65955D01*
X25499D01*
X25599Y-65971D01*
X25682Y-65988D01*
X25732D01*
Y-66221D01*
Y-66405D01*
Y-66471D01*
Y-66521D01*
Y-66554D01*
Y-66571D01*
Y-66738D01*
Y-66888D01*
Y-66971D01*
Y-66988D01*
Y-67004D01*
Y-67271D01*
Y-67504D01*
Y-67688D01*
Y-67838D01*
Y-67937D01*
Y-68021D01*
Y-68054D01*
Y-68071D01*
Y-68137D01*
Y-68221D01*
Y-68421D01*
Y-68654D01*
Y-68904D01*
Y-69154D01*
Y-69354D01*
Y-69420D01*
Y-69487D01*
Y-69520D01*
Y-69537D01*
Y-69837D01*
Y-69987D01*
Y-70120D01*
Y-70237D01*
Y-70320D01*
Y-70387D01*
Y-70403D01*
Y-70803D01*
Y-71003D01*
Y-71187D01*
Y-71337D01*
Y-71453D01*
Y-71537D01*
Y-71570D01*
Y-71903D01*
Y-72236D01*
Y-72570D01*
Y-72886D01*
Y-73153D01*
Y-73269D01*
Y-73369D01*
Y-73436D01*
Y-73503D01*
Y-73536D01*
Y-73553D01*
Y-74003D01*
Y-74453D01*
Y-74919D01*
Y-75336D01*
Y-75519D01*
Y-75702D01*
Y-75852D01*
Y-75985D01*
Y-76102D01*
Y-76185D01*
Y-76235D01*
Y-76252D01*
X25716Y-76769D01*
X25699Y-77235D01*
X25666Y-77652D01*
X25633Y-78018D01*
X25616Y-78185D01*
X25599Y-78335D01*
Y-78451D01*
X25582Y-78551D01*
X25566Y-78635D01*
X25549Y-78701D01*
Y-78735D01*
Y-78751D01*
X25482Y-79151D01*
X25399Y-79535D01*
X25316Y-79868D01*
X25233Y-80151D01*
X25166Y-80384D01*
X25099Y-80568D01*
X25083Y-80634D01*
X25066Y-80684D01*
X25049Y-80701D01*
Y-80717D01*
X24916Y-81018D01*
X24783Y-81317D01*
X24649Y-81567D01*
X24516Y-81784D01*
X24399Y-81967D01*
X24316Y-82100D01*
X24249Y-82184D01*
X24233Y-82217D01*
X24049Y-82450D01*
X23866Y-82667D01*
X23700Y-82867D01*
X23533Y-83034D01*
X23400Y-83167D01*
X23283Y-83267D01*
X23216Y-83334D01*
X23183Y-83350D01*
X22950Y-83517D01*
X22733Y-83667D01*
X22517Y-83800D01*
X22317Y-83917D01*
X22150Y-84000D01*
X22017Y-84083D01*
X21933Y-84117D01*
X21900Y-84133D01*
X21367Y-84333D01*
X21117Y-84417D01*
X20884Y-84483D01*
X20700Y-84533D01*
X20550Y-84567D01*
X20450Y-84600D01*
X20417D01*
X20117Y-84650D01*
X19834Y-84700D01*
X19551Y-84733D01*
X19301Y-84767D01*
X19101Y-84800D01*
X18934Y-84817D01*
X18884D01*
X18834Y-84833D01*
X18801D01*
X18484Y-84850D01*
X18168Y-84867D01*
X17884Y-84883D01*
X17618D01*
X17385Y-84900D01*
X16718D01*
X16385Y-84883D01*
X16085D01*
X15802Y-84867D01*
X15568Y-84850D01*
X15385D01*
X15318Y-84833D01*
X15235D01*
X14902Y-84800D01*
X14585Y-84750D01*
X14285Y-84717D01*
X14019Y-84667D01*
X13786Y-84633D01*
X13619Y-84600D01*
X13552D01*
X13502Y-84583D01*
X13469D01*
X13136Y-84517D01*
X12836Y-84467D01*
X12552Y-84400D01*
X12319Y-84350D01*
X12103Y-84317D01*
X11953Y-84283D01*
X11853Y-84250D01*
X11819D01*
X11553Y-84183D01*
X11303Y-84117D01*
X11070Y-84050D01*
X10853Y-84000D01*
X10686Y-83967D01*
X10570Y-83933D01*
X10486Y-83900D01*
X10453D01*
Y-83700D01*
Y-83500D01*
Y-83334D01*
Y-83184D01*
Y-83050D01*
Y-82967D01*
Y-82900D01*
Y-82884D01*
Y-82584D01*
Y-82450D01*
Y-82334D01*
Y-82250D01*
Y-82167D01*
Y-82134D01*
Y-82117D01*
Y-81834D01*
Y-81584D01*
Y-81367D01*
Y-81201D01*
Y-81051D01*
Y-80968D01*
Y-80901D01*
Y-80884D01*
Y-80568D01*
Y-80401D01*
Y-80251D01*
Y-80134D01*
Y-80018D01*
Y-79951D01*
Y-79934D01*
Y-79784D01*
Y-79651D01*
Y-79568D01*
Y-79551D01*
Y-79535D01*
Y-79368D01*
Y-79218D01*
Y-79151D01*
Y-79101D01*
Y-79068D01*
Y-79051D01*
Y-78851D01*
Y-78651D01*
Y-78568D01*
Y-78501D01*
Y-78468D01*
Y-78451D01*
Y-78201D01*
Y-77952D01*
Y-77868D01*
Y-77785D01*
Y-77735D01*
Y-77718D01*
Y-77468D01*
Y-77202D01*
Y-76952D01*
Y-76719D01*
Y-76502D01*
Y-76352D01*
Y-76285D01*
Y-76235D01*
Y-76219D01*
Y-76202D01*
Y-75852D01*
Y-75502D01*
Y-75152D01*
Y-74836D01*
Y-74552D01*
Y-74436D01*
Y-74336D01*
Y-74253D01*
Y-74186D01*
Y-74153D01*
Y-74136D01*
Y-73569D01*
Y-72986D01*
Y-72403D01*
Y-72136D01*
Y-71870D01*
Y-71620D01*
Y-71403D01*
Y-71187D01*
Y-71020D01*
Y-70887D01*
Y-70770D01*
Y-70703D01*
Y-70687D01*
Y-69904D01*
Y-69104D01*
Y-68321D01*
Y-67937D01*
Y-67588D01*
Y-67254D01*
Y-66954D01*
Y-66671D01*
Y-66438D01*
Y-66255D01*
Y-66105D01*
Y-66021D01*
Y-65988D01*
X10603Y-65955D01*
X10736Y-65938D01*
X10836Y-65921D01*
X10870D01*
X11036Y-65905D01*
X11186D01*
X11253Y-65888D01*
X11336D01*
X11503Y-65871D01*
X11786D01*
X11936Y-65855D01*
X12069Y-65838D01*
X12369D01*
X12502Y-65855D01*
X12602Y-65871D01*
X12936D01*
X13052Y-65888D01*
X13086D01*
X13269Y-65905D01*
X13419D01*
X13519Y-65921D01*
X13552D01*
X13719Y-65938D01*
X13852Y-65971D01*
X13936Y-65988D01*
X13969D01*
Y-66171D01*
Y-66338D01*
Y-66488D01*
Y-66621D01*
Y-66721D01*
Y-66804D01*
Y-66854D01*
Y-66871D01*
Y-67121D01*
Y-67238D01*
Y-67338D01*
Y-67421D01*
Y-67488D01*
Y-67521D01*
Y-67538D01*
Y-67854D01*
Y-68137D01*
Y-68371D01*
Y-68537D01*
Y-68687D01*
Y-68771D01*
Y-68837D01*
Y-68854D01*
Y-69021D01*
Y-69237D01*
Y-69454D01*
Y-69670D01*
Y-69870D01*
Y-70037D01*
Y-70104D01*
Y-70154D01*
Y-70170D01*
Y-70187D01*
Y-70370D01*
Y-70537D01*
Y-70603D01*
Y-70654D01*
Y-70687D01*
Y-70703D01*
Y-70920D01*
Y-71120D01*
Y-71203D01*
Y-71270D01*
Y-71320D01*
Y-71337D01*
Y-71553D01*
Y-71770D01*
Y-71986D01*
Y-72186D01*
Y-72370D01*
Y-72503D01*
Y-72603D01*
Y-72620D01*
Y-72636D01*
Y-72936D01*
Y-73236D01*
Y-73536D01*
Y-73819D01*
Y-74053D01*
Y-74253D01*
Y-74319D01*
Y-74369D01*
Y-74402D01*
Y-74419D01*
Y-74919D01*
Y-75436D01*
Y-75935D01*
Y-76419D01*
Y-76635D01*
Y-76835D01*
Y-77002D01*
Y-77152D01*
Y-77285D01*
Y-77368D01*
Y-77435D01*
Y-77452D01*
Y-78135D01*
Y-78818D01*
Y-79501D01*
Y-79834D01*
Y-80134D01*
Y-80434D01*
Y-80684D01*
Y-80934D01*
Y-81134D01*
Y-81284D01*
Y-81417D01*
Y-81484D01*
Y-81517D01*
X14469Y-81651D01*
X14719Y-81701D01*
X14935Y-81734D01*
X15135Y-81767D01*
X15285Y-81801D01*
X15385Y-81817D01*
X15418D01*
X16002Y-81867D01*
X16285Y-81884D01*
X16552D01*
X16785Y-81901D01*
X17118D01*
X17551Y-81884D01*
X17751D01*
X17918Y-81867D01*
X18068D01*
X18168Y-81851D01*
X18268D01*
X18468Y-81817D01*
X18651Y-81784D01*
X18817Y-81751D01*
X18967Y-81717D01*
X19101Y-81701D01*
X19184Y-81667D01*
X19251Y-81651D01*
X19267D01*
X19601Y-81551D01*
X19751Y-81484D01*
X19884Y-81434D01*
X20001Y-81384D01*
X20084Y-81334D01*
X20134Y-81317D01*
X20150Y-81301D01*
X20417Y-81117D01*
X20550Y-81034D01*
X20650Y-80951D01*
X20734Y-80884D01*
X20800Y-80817D01*
X20850Y-80784D01*
X20867Y-80767D01*
X21084Y-80501D01*
X21267Y-80251D01*
X21334Y-80134D01*
X21384Y-80051D01*
X21417Y-80001D01*
X21433Y-79984D01*
X21600Y-79634D01*
X21667Y-79468D01*
X21734Y-79318D01*
X21767Y-79168D01*
X21800Y-79068D01*
X21833Y-79001D01*
Y-78968D01*
X21950Y-78535D01*
X21983Y-78318D01*
X22017Y-78118D01*
X22050Y-77952D01*
X22067Y-77818D01*
X22083Y-77735D01*
Y-77702D01*
X22117Y-77152D01*
X22133Y-76885D01*
Y-76635D01*
X22150Y-76419D01*
Y-76269D01*
Y-76202D01*
Y-76152D01*
Y-76135D01*
Y-76119D01*
Y-75885D01*
Y-75702D01*
Y-75635D01*
Y-75585D01*
Y-75552D01*
Y-75535D01*
Y-75352D01*
Y-75219D01*
Y-75119D01*
Y-75102D01*
Y-75086D01*
Y-74819D01*
Y-74602D01*
Y-74436D01*
Y-74286D01*
Y-74186D01*
Y-74103D01*
Y-74069D01*
Y-74053D01*
Y-73986D01*
Y-73903D01*
Y-73703D01*
Y-73469D01*
Y-73219D01*
Y-72986D01*
Y-72786D01*
Y-72720D01*
Y-72653D01*
Y-72620D01*
Y-72603D01*
Y-72320D01*
Y-72170D01*
Y-72036D01*
Y-71920D01*
Y-71837D01*
Y-71770D01*
Y-71753D01*
Y-71370D01*
Y-71170D01*
Y-71003D01*
Y-70853D01*
Y-70720D01*
Y-70654D01*
Y-70620D01*
Y-70287D01*
Y-69954D01*
Y-69620D01*
Y-69321D01*
Y-69054D01*
Y-68937D01*
Y-68837D01*
Y-68754D01*
Y-68704D01*
Y-68671D01*
Y-68654D01*
Y-68204D01*
Y-67754D01*
Y-67304D01*
Y-66888D01*
Y-66705D01*
Y-66521D01*
Y-66371D01*
Y-66238D01*
Y-66138D01*
Y-66055D01*
Y-66005D01*
Y-65988D01*
X22317Y-65955D01*
X22450Y-65938D01*
X22550Y-65921D01*
X22583D01*
X22750Y-65905D01*
X22900D01*
X23017Y-65888D01*
X23050D01*
X23233Y-65871D01*
X23550D01*
X23700Y-65855D01*
X23833Y-65838D01*
X24100D01*
X24233Y-65855D01*
D02*
G37*
G36*
X-8026Y-61372D02*
X-8009Y-61506D01*
X-7992Y-61606D01*
X-7976Y-61622D01*
Y-61639D01*
X-7959Y-61789D01*
Y-61922D01*
X-7942Y-62022D01*
Y-62039D01*
Y-62056D01*
X-7926Y-62222D01*
Y-62356D01*
X-7909Y-62456D01*
Y-62472D01*
Y-62489D01*
Y-62639D01*
Y-62755D01*
Y-62855D01*
Y-62872D01*
Y-62889D01*
Y-63189D01*
X-7926Y-63322D01*
Y-63455D01*
Y-63555D01*
X-7942Y-63639D01*
Y-63689D01*
Y-63705D01*
X-7976Y-63972D01*
X-7992Y-64105D01*
X-8009Y-64205D01*
X-8026Y-64305D01*
X-8042Y-64372D01*
X-8059Y-64422D01*
Y-64438D01*
X-17306D01*
X-16940Y-65022D01*
X-16573Y-65588D01*
X-16240Y-66138D01*
X-15907Y-66655D01*
X-15574Y-67171D01*
X-15274Y-67654D01*
X-14974Y-68137D01*
X-14674Y-68587D01*
X-14407Y-69021D01*
X-14141Y-69437D01*
X-13891Y-69837D01*
X-13641Y-70220D01*
X-13424Y-70570D01*
X-13208Y-70920D01*
X-12991Y-71237D01*
X-12808Y-71553D01*
X-12624Y-71837D01*
X-12441Y-72103D01*
X-12291Y-72353D01*
X-12141Y-72586D01*
X-12008Y-72803D01*
X-11875Y-72986D01*
X-11775Y-73169D01*
X-11675Y-73319D01*
X-11575Y-73469D01*
X-11508Y-73586D01*
X-11441Y-73686D01*
X-11391Y-73769D01*
X-11341Y-73836D01*
X-11308Y-73886D01*
X-11291Y-73903D01*
Y-73919D01*
X-11341Y-74003D01*
X-11375Y-74036D01*
Y-74053D01*
Y-74069D01*
X-11408Y-74103D01*
X-11441Y-74153D01*
X-11475Y-74219D01*
X-11525Y-74286D01*
X-11558Y-74352D01*
X-11575Y-74386D01*
X-11591Y-74402D01*
X-11858Y-74352D01*
X-12075Y-74303D01*
X-12175Y-74286D01*
X-12241D01*
X-12291Y-74269D01*
X-12308D01*
X-12591Y-74219D01*
X-12708Y-74202D01*
X-12824Y-74186D01*
X-12924D01*
X-12991Y-74169D01*
X-13058D01*
X-13324Y-74153D01*
X-13541D01*
X-13641Y-74136D01*
X-13774D01*
X-14041Y-74119D01*
X-14507D01*
X-14941Y-74136D01*
X-15340Y-74153D01*
X-15707Y-74202D01*
X-16023Y-74253D01*
X-16290Y-74303D01*
X-16390Y-74319D01*
X-16490Y-74336D01*
X-16557Y-74352D01*
X-16607Y-74369D01*
X-16640Y-74386D01*
X-16657D01*
X-17007Y-74503D01*
X-17323Y-74636D01*
X-17623Y-74769D01*
X-17873Y-74902D01*
X-18073Y-75019D01*
X-18240Y-75119D01*
X-18340Y-75186D01*
X-18373Y-75202D01*
X-18640Y-75419D01*
X-18856Y-75635D01*
X-19039Y-75869D01*
X-19206Y-76085D01*
X-19323Y-76269D01*
X-19406Y-76435D01*
X-19456Y-76535D01*
X-19473Y-76552D01*
Y-76569D01*
X-19606Y-76885D01*
X-19689Y-77218D01*
X-19756Y-77552D01*
X-19806Y-77852D01*
X-19839Y-78118D01*
Y-78235D01*
X-19856Y-78335D01*
Y-78401D01*
Y-78468D01*
Y-78501D01*
Y-78518D01*
Y-78785D01*
X-19839Y-79051D01*
X-19806Y-79285D01*
X-19789Y-79485D01*
X-19756Y-79668D01*
X-19723Y-79784D01*
X-19706Y-79868D01*
Y-79901D01*
X-19656Y-80118D01*
X-19589Y-80334D01*
X-19539Y-80518D01*
X-19473Y-80684D01*
X-19406Y-80834D01*
X-19373Y-80934D01*
X-19339Y-81001D01*
X-19323Y-81018D01*
X-19223Y-81201D01*
X-19123Y-81384D01*
X-19006Y-81534D01*
X-18923Y-81684D01*
X-18839Y-81784D01*
X-18773Y-81884D01*
X-18723Y-81934D01*
X-18706Y-81951D01*
X-18440Y-82250D01*
X-18306Y-82384D01*
X-18173Y-82484D01*
X-18073Y-82584D01*
X-17990Y-82650D01*
X-17923Y-82684D01*
X-17906Y-82700D01*
X-17573Y-82934D01*
X-17407Y-83034D01*
X-17257Y-83100D01*
X-17140Y-83167D01*
X-17023Y-83217D01*
X-16957Y-83250D01*
X-16940Y-83267D01*
X-16557Y-83417D01*
X-16373Y-83483D01*
X-16190Y-83533D01*
X-16040Y-83583D01*
X-15924Y-83617D01*
X-15857Y-83650D01*
X-15824D01*
X-15374Y-83733D01*
X-15157Y-83783D01*
X-14974Y-83800D01*
X-14807Y-83833D01*
X-14691Y-83850D01*
X-14607Y-83867D01*
X-14574D01*
X-14107Y-83900D01*
X-13874Y-83917D01*
X-13674D01*
X-13491Y-83933D01*
X-12941D01*
X-12658Y-83917D01*
X-12408D01*
X-12175Y-83900D01*
X-11975Y-83883D01*
X-11841D01*
X-11741Y-83867D01*
X-11708D01*
X-11441Y-83833D01*
X-11191Y-83800D01*
X-10975Y-83767D01*
X-10758Y-83733D01*
X-10592Y-83700D01*
X-10475Y-83667D01*
X-10392Y-83650D01*
X-10358D01*
X-9892Y-83517D01*
X-9692Y-83467D01*
X-9509Y-83417D01*
X-9342Y-83367D01*
X-9225Y-83334D01*
X-9159Y-83300D01*
X-9125D01*
X-8692Y-83150D01*
X-8492Y-83084D01*
X-8309Y-83017D01*
X-8159Y-82967D01*
X-8042Y-82917D01*
X-7976Y-82900D01*
X-7942Y-82884D01*
X-7792Y-83150D01*
X-7726Y-83284D01*
X-7676Y-83384D01*
X-7626Y-83483D01*
X-7592Y-83550D01*
X-7576Y-83600D01*
X-7559Y-83617D01*
X-7442Y-83883D01*
X-7392Y-84017D01*
X-7342Y-84133D01*
X-7292Y-84233D01*
X-7276Y-84300D01*
X-7243Y-84350D01*
Y-84367D01*
X-7143Y-84633D01*
X-7092Y-84767D01*
X-7059Y-84883D01*
X-7026Y-84983D01*
X-6992Y-85066D01*
X-6976Y-85116D01*
Y-85133D01*
X-6909Y-85416D01*
X-6892Y-85550D01*
X-6859Y-85666D01*
X-6843Y-85766D01*
Y-85850D01*
X-6826Y-85899D01*
Y-85916D01*
X-7392Y-86133D01*
X-7659Y-86216D01*
X-7892Y-86299D01*
X-8092Y-86366D01*
X-8259Y-86399D01*
X-8359Y-86433D01*
X-8375Y-86449D01*
X-8392D01*
X-8959Y-86599D01*
X-9225Y-86666D01*
X-9475Y-86716D01*
X-9675Y-86749D01*
X-9842Y-86783D01*
X-9942Y-86816D01*
X-9975D01*
X-10558Y-86899D01*
X-10841Y-86949D01*
X-11092Y-86966D01*
X-11291Y-86999D01*
X-11458Y-87016D01*
X-11525D01*
X-11575Y-87033D01*
X-11608D01*
X-11925Y-87049D01*
X-12241Y-87066D01*
X-12541Y-87083D01*
X-12808D01*
X-13024Y-87099D01*
X-13741D01*
X-14107Y-87083D01*
X-14457Y-87066D01*
X-14757Y-87033D01*
X-15007Y-87016D01*
X-15107D01*
X-15207Y-86999D01*
X-15274D01*
X-15324Y-86983D01*
X-15374D01*
X-15740Y-86916D01*
X-16090Y-86849D01*
X-16407Y-86783D01*
X-16690Y-86733D01*
X-16940Y-86666D01*
X-17123Y-86616D01*
X-17190Y-86599D01*
X-17240D01*
X-17257Y-86583D01*
X-17273D01*
X-17607Y-86483D01*
X-17923Y-86366D01*
X-18223Y-86250D01*
X-18490Y-86150D01*
X-18706Y-86049D01*
X-18873Y-85983D01*
X-18923Y-85949D01*
X-18973Y-85933D01*
X-18989Y-85916D01*
X-19006D01*
X-19289Y-85766D01*
X-19573Y-85600D01*
X-19823Y-85433D01*
X-20056Y-85283D01*
X-20239Y-85150D01*
X-20389Y-85050D01*
X-20472Y-84966D01*
X-20506Y-84950D01*
X-20756Y-84733D01*
X-20989Y-84517D01*
X-21189Y-84317D01*
X-21372Y-84133D01*
X-21522Y-83967D01*
X-21639Y-83833D01*
X-21722Y-83750D01*
X-21739Y-83717D01*
X-21922Y-83450D01*
X-22105Y-83184D01*
X-22255Y-82917D01*
X-22405Y-82684D01*
X-22505Y-82484D01*
X-22605Y-82317D01*
X-22638Y-82267D01*
X-22655Y-82217D01*
X-22672Y-82200D01*
Y-82184D01*
X-22822Y-81867D01*
X-22938Y-81534D01*
X-23038Y-81217D01*
X-23138Y-80934D01*
X-23205Y-80701D01*
X-23222Y-80584D01*
X-23255Y-80501D01*
X-23272Y-80434D01*
Y-80384D01*
X-23288Y-80351D01*
Y-80334D01*
X-23355Y-79951D01*
X-23405Y-79584D01*
X-23438Y-79218D01*
X-23472Y-78885D01*
Y-78601D01*
X-23488Y-78485D01*
Y-78385D01*
Y-78302D01*
Y-78235D01*
Y-78201D01*
Y-78185D01*
X-23472Y-77752D01*
X-23455Y-77568D01*
X-23438Y-77385D01*
X-23422Y-77252D01*
X-23405Y-77135D01*
X-23388Y-77052D01*
Y-77035D01*
X-23305Y-76602D01*
X-23255Y-76402D01*
X-23205Y-76235D01*
X-23155Y-76085D01*
X-23122Y-75969D01*
X-23105Y-75902D01*
X-23088Y-75869D01*
X-22922Y-75452D01*
X-22838Y-75252D01*
X-22755Y-75086D01*
X-22672Y-74952D01*
X-22622Y-74852D01*
X-22589Y-74769D01*
X-22572Y-74752D01*
X-22455Y-74552D01*
X-22339Y-74369D01*
X-22222Y-74186D01*
X-22105Y-74053D01*
X-22022Y-73919D01*
X-21939Y-73836D01*
X-21889Y-73769D01*
X-21872Y-73753D01*
X-21556Y-73403D01*
X-21405Y-73253D01*
X-21272Y-73136D01*
X-21139Y-73019D01*
X-21039Y-72936D01*
X-20972Y-72886D01*
X-20956Y-72870D01*
X-20572Y-72603D01*
X-20389Y-72486D01*
X-20206Y-72386D01*
X-20056Y-72303D01*
X-19939Y-72236D01*
X-19873Y-72203D01*
X-19839Y-72186D01*
X-19356Y-72003D01*
X-19123Y-71920D01*
X-18923Y-71870D01*
X-18740Y-71820D01*
X-18606Y-71786D01*
X-18506Y-71753D01*
X-18473D01*
X-17923Y-71670D01*
X-17657Y-71637D01*
X-17407Y-71620D01*
X-17190Y-71603D01*
X-16473D01*
X-16390Y-71620D01*
X-16357Y-71637D01*
X-16340D01*
X-16740Y-71020D01*
X-17140Y-70420D01*
X-17523Y-69854D01*
X-17890Y-69304D01*
X-18240Y-68771D01*
X-18573Y-68254D01*
X-18906Y-67754D01*
X-19223Y-67271D01*
X-19523Y-66821D01*
X-19806Y-66371D01*
X-20089Y-65955D01*
X-20356Y-65555D01*
X-20606Y-65171D01*
X-20839Y-64822D01*
X-21056Y-64472D01*
X-21272Y-64155D01*
X-21472Y-63855D01*
X-21655Y-63572D01*
X-21839Y-63305D01*
X-21989Y-63055D01*
X-22139Y-62839D01*
X-22272Y-62639D01*
X-22405Y-62439D01*
X-22505Y-62272D01*
X-22605Y-62139D01*
X-22689Y-62006D01*
X-22755Y-61906D01*
X-22822Y-61806D01*
X-22872Y-61739D01*
X-22888Y-61689D01*
X-22922Y-61672D01*
Y-61656D01*
X-22805Y-61473D01*
X-22722Y-61339D01*
X-22672Y-61256D01*
X-22655Y-61239D01*
X-8059D01*
X-8026Y-61372D01*
D02*
G37*
G36*
X-126200Y-160000D02*
X-127250Y-162350D01*
X-127900Y-166250D01*
X-129850Y-168200D01*
Y-170150D01*
X-134400Y-174700D01*
Y-175350D01*
X-138950Y-179900D01*
X-140900D01*
X-142850Y-181850D01*
X-145450D01*
X-147400Y-183800D01*
X-151950D01*
X-152600Y-184450D01*
X-155200D01*
Y-175350D01*
X-151950D01*
X-150650Y-174050D01*
X-146750D01*
X-142850Y-170150D01*
X-142200D01*
X-137650Y-165600D01*
Y-164300D01*
X-135700Y-162350D01*
Y-155700D01*
X-135200Y-155200D01*
X-126200D01*
Y-160000D01*
D02*
G37*
G36*
X-31320Y-58190D02*
X-31020D01*
X-30703Y-58207D01*
X-30387Y-58223D01*
X-30087Y-58240D01*
X-29837Y-58257D01*
X-29603Y-58273D01*
X-29437D01*
X-29370Y-58290D01*
X-29287D01*
X-28987Y-58307D01*
X-28704Y-58340D01*
X-28454Y-58357D01*
X-28237Y-58373D01*
X-28070Y-58390D01*
X-27937Y-58407D01*
X-27854Y-58423D01*
X-27820D01*
X-27337Y-58473D01*
X-27121Y-58490D01*
X-26904Y-58507D01*
X-26737Y-58523D01*
X-26604Y-58540D01*
X-26521Y-58557D01*
X-26321D01*
Y-58857D01*
Y-59140D01*
Y-59390D01*
Y-59606D01*
Y-59790D01*
Y-59906D01*
Y-59990D01*
Y-60023D01*
Y-60256D01*
Y-60456D01*
Y-60656D01*
Y-60823D01*
Y-60956D01*
Y-61056D01*
Y-61123D01*
Y-61139D01*
Y-61556D01*
Y-61906D01*
Y-62206D01*
Y-62456D01*
Y-62656D01*
Y-62789D01*
Y-62872D01*
Y-62905D01*
Y-63139D01*
Y-63372D01*
Y-63605D01*
Y-63822D01*
Y-64022D01*
Y-64172D01*
Y-64272D01*
Y-64288D01*
Y-64305D01*
Y-64505D01*
Y-64688D01*
Y-64755D01*
Y-64822D01*
Y-64855D01*
Y-64872D01*
Y-65105D01*
Y-65338D01*
Y-65422D01*
Y-65505D01*
Y-65555D01*
Y-65571D01*
Y-65871D01*
Y-66005D01*
Y-66138D01*
Y-66255D01*
Y-66338D01*
Y-66405D01*
Y-66421D01*
Y-66788D01*
Y-66971D01*
Y-67138D01*
Y-67288D01*
Y-67404D01*
Y-67471D01*
Y-67504D01*
Y-67871D01*
Y-68237D01*
Y-68604D01*
Y-68954D01*
Y-69254D01*
Y-69387D01*
Y-69487D01*
Y-69587D01*
Y-69654D01*
Y-69687D01*
Y-69704D01*
Y-70187D01*
Y-70703D01*
Y-71187D01*
Y-71637D01*
Y-71853D01*
Y-72036D01*
Y-72203D01*
Y-72353D01*
Y-72470D01*
Y-72570D01*
Y-72620D01*
Y-72636D01*
Y-73036D01*
Y-73469D01*
Y-74319D01*
Y-75169D01*
Y-75569D01*
Y-75952D01*
Y-76319D01*
Y-76652D01*
Y-76935D01*
Y-77202D01*
Y-77402D01*
Y-77552D01*
Y-77652D01*
Y-77668D01*
Y-77685D01*
Y-78235D01*
Y-78801D01*
Y-79968D01*
Y-80534D01*
Y-81101D01*
Y-81651D01*
Y-82167D01*
Y-82650D01*
Y-83084D01*
Y-83483D01*
Y-83817D01*
Y-83967D01*
Y-84083D01*
Y-84200D01*
Y-84300D01*
Y-84367D01*
Y-84417D01*
Y-84450D01*
Y-84467D01*
X-26787Y-84533D01*
X-27004Y-84567D01*
X-27221Y-84583D01*
X-27387Y-84600D01*
X-27537Y-84616D01*
X-27621Y-84633D01*
X-27654D01*
X-28187Y-84683D01*
X-28454Y-84700D01*
X-28687Y-84717D01*
X-28887Y-84733D01*
X-29053Y-84750D01*
X-29104Y-84767D01*
X-29187D01*
X-29487Y-84800D01*
X-29787Y-84817D01*
X-30070Y-84833D01*
X-30320Y-84850D01*
X-30536Y-84867D01*
X-30703Y-84883D01*
X-31170D01*
X-31470Y-84900D01*
X-32536D01*
X-33169Y-84883D01*
X-33769Y-84867D01*
X-34352Y-84817D01*
X-34902Y-84767D01*
X-35435Y-84717D01*
X-35918Y-84633D01*
X-36385Y-84567D01*
X-36802Y-84483D01*
X-37185Y-84417D01*
X-37518Y-84333D01*
X-37818Y-84267D01*
X-38068Y-84217D01*
X-38251Y-84150D01*
X-38401Y-84117D01*
X-38484Y-84100D01*
X-38518Y-84083D01*
X-38984Y-83917D01*
X-39434Y-83750D01*
X-39867Y-83550D01*
X-40267Y-83350D01*
X-40651Y-83150D01*
X-41000Y-82950D01*
X-41317Y-82734D01*
X-41617Y-82550D01*
X-41884Y-82351D01*
X-42117Y-82184D01*
X-42317Y-82017D01*
X-42483Y-81884D01*
X-42617Y-81767D01*
X-42700Y-81684D01*
X-42767Y-81634D01*
X-42783Y-81617D01*
X-43100Y-81301D01*
X-43400Y-80968D01*
X-43667Y-80634D01*
X-43916Y-80284D01*
X-44150Y-79934D01*
X-44366Y-79584D01*
X-44566Y-79251D01*
X-44733Y-78935D01*
X-44883Y-78635D01*
X-45016Y-78351D01*
X-45133Y-78102D01*
X-45216Y-77885D01*
X-45299Y-77718D01*
X-45349Y-77585D01*
X-45366Y-77502D01*
X-45383Y-77468D01*
X-45533Y-76985D01*
X-45666Y-76485D01*
X-45783Y-75985D01*
X-45883Y-75486D01*
X-45966Y-74986D01*
X-46033Y-74503D01*
X-46099Y-74019D01*
X-46149Y-73569D01*
X-46182Y-73153D01*
X-46199Y-72770D01*
X-46216Y-72436D01*
X-46233Y-72136D01*
X-46249Y-71903D01*
Y-71803D01*
Y-71720D01*
Y-71653D01*
Y-71603D01*
Y-71586D01*
Y-71570D01*
X-46233Y-70970D01*
X-46216Y-70387D01*
X-46166Y-69837D01*
X-46116Y-69304D01*
X-46049Y-68804D01*
X-45982Y-68321D01*
X-45899Y-67888D01*
X-45833Y-67488D01*
X-45749Y-67121D01*
X-45666Y-66788D01*
X-45599Y-66505D01*
X-45533Y-66271D01*
X-45483Y-66088D01*
X-45433Y-65955D01*
X-45416Y-65871D01*
X-45399Y-65838D01*
X-45233Y-65388D01*
X-45049Y-64955D01*
X-44850Y-64538D01*
X-44650Y-64138D01*
X-44433Y-63772D01*
X-44233Y-63422D01*
X-44016Y-63105D01*
X-43816Y-62806D01*
X-43616Y-62539D01*
X-43450Y-62306D01*
X-43283Y-62106D01*
X-43150Y-61939D01*
X-43033Y-61806D01*
X-42933Y-61706D01*
X-42883Y-61639D01*
X-42867Y-61622D01*
X-42533Y-61306D01*
X-42200Y-61006D01*
X-41850Y-60739D01*
X-41484Y-60489D01*
X-41134Y-60256D01*
X-40784Y-60040D01*
X-40434Y-59856D01*
X-40117Y-59673D01*
X-39801Y-59523D01*
X-39534Y-59406D01*
X-39268Y-59290D01*
X-39051Y-59206D01*
X-38884Y-59123D01*
X-38751Y-59073D01*
X-38668Y-59056D01*
X-38634Y-59040D01*
X-38151Y-58890D01*
X-37651Y-58756D01*
X-37135Y-58640D01*
X-36635Y-58540D01*
X-36118Y-58457D01*
X-35635Y-58390D01*
X-35152Y-58323D01*
X-34702Y-58273D01*
X-34286Y-58240D01*
X-33902Y-58223D01*
X-33552Y-58207D01*
X-33252Y-58190D01*
X-33019Y-58173D01*
X-31536D01*
X-31320Y-58190D01*
D02*
G37*
G36*
X1039Y-65588D02*
X1589Y-65621D01*
X1855Y-65655D01*
X2105Y-65688D01*
X2322Y-65721D01*
X2538Y-65738D01*
X2722Y-65771D01*
X2888Y-65805D01*
X3038Y-65838D01*
X3155Y-65871D01*
X3255Y-65888D01*
X3322Y-65905D01*
X3372Y-65921D01*
X3388D01*
X3855Y-66071D01*
X4271Y-66238D01*
X4638Y-66421D01*
X4954Y-66604D01*
X5204Y-66754D01*
X5304Y-66821D01*
X5388Y-66888D01*
X5471Y-66938D01*
X5521Y-66971D01*
X5538Y-66988D01*
X5554Y-67004D01*
X5871Y-67288D01*
X6137Y-67571D01*
X6354Y-67854D01*
X6537Y-68121D01*
X6687Y-68354D01*
X6787Y-68537D01*
X6821Y-68604D01*
X6854Y-68654D01*
X6871Y-68687D01*
Y-68704D01*
X7021Y-69071D01*
X7121Y-69454D01*
X7204Y-69820D01*
X7254Y-70170D01*
X7287Y-70454D01*
Y-70587D01*
X7304Y-70687D01*
Y-70787D01*
Y-70853D01*
Y-70887D01*
Y-70903D01*
X7287Y-71237D01*
X7271Y-71537D01*
X7221Y-71803D01*
X7171Y-72053D01*
X7137Y-72253D01*
X7087Y-72386D01*
X7071Y-72486D01*
X7054Y-72503D01*
Y-72520D01*
X6937Y-72786D01*
X6821Y-73036D01*
X6687Y-73253D01*
X6554Y-73436D01*
X6437Y-73586D01*
X6337Y-73703D01*
X6271Y-73769D01*
X6254Y-73803D01*
X6054Y-74003D01*
X5821Y-74186D01*
X5604Y-74352D01*
X5388Y-74503D01*
X5188Y-74636D01*
X5038Y-74736D01*
X4938Y-74802D01*
X4921Y-74819D01*
X4904D01*
X4571Y-75002D01*
X4238Y-75169D01*
X3905Y-75336D01*
X3588Y-75469D01*
X3322Y-75569D01*
X3205Y-75619D01*
X3105Y-75669D01*
X3038Y-75686D01*
X2972Y-75719D01*
X2938Y-75736D01*
X2922D01*
X2788Y-75785D01*
X2672Y-75835D01*
X2605Y-75852D01*
X2572Y-75869D01*
X2538Y-75885D01*
X2522Y-75902D01*
X2488D01*
X2422Y-75935D01*
X2288Y-75985D01*
X2122Y-76052D01*
X1955Y-76102D01*
X1805Y-76169D01*
X1689Y-76202D01*
X1672Y-76219D01*
X1655D01*
X1405Y-76302D01*
X1189Y-76369D01*
X1089Y-76385D01*
X1022Y-76419D01*
X989Y-76435D01*
X972D01*
X739Y-76519D01*
X539Y-76585D01*
X472Y-76602D01*
X406Y-76635D01*
X372Y-76652D01*
X356D01*
X139Y-76752D01*
X-28Y-76835D01*
X-94Y-76869D01*
X-144Y-76902D01*
X-161Y-76919D01*
X-178D01*
X-361Y-77035D01*
X-527Y-77119D01*
X-594Y-77168D01*
X-644Y-77185D01*
X-661Y-77218D01*
X-677D01*
X-844Y-77352D01*
X-961Y-77468D01*
X-1044Y-77552D01*
X-1077Y-77568D01*
Y-77585D01*
X-1211Y-77735D01*
X-1311Y-77868D01*
X-1377Y-77985D01*
X-1394Y-78002D01*
Y-78018D01*
X-1494Y-78185D01*
X-1561Y-78351D01*
X-1577Y-78435D01*
X-1594Y-78485D01*
X-1611Y-78518D01*
Y-78535D01*
X-1644Y-78768D01*
X-1661Y-78985D01*
Y-79085D01*
Y-79151D01*
Y-79201D01*
Y-79218D01*
X-1644Y-79451D01*
X-1627Y-79651D01*
X-1611Y-79718D01*
Y-79784D01*
X-1594Y-79818D01*
Y-79834D01*
X-1511Y-80051D01*
X-1427Y-80218D01*
X-1394Y-80284D01*
X-1361Y-80318D01*
X-1344Y-80351D01*
X-1327Y-80368D01*
X-1194Y-80551D01*
X-1061Y-80717D01*
X-1011Y-80784D01*
X-961Y-80834D01*
X-944Y-80851D01*
X-927Y-80868D01*
X-761Y-81034D01*
X-594Y-81151D01*
X-527Y-81201D01*
X-477Y-81234D01*
X-444Y-81267D01*
X-428D01*
X-211Y-81384D01*
X-11Y-81484D01*
X72Y-81517D01*
X139Y-81551D01*
X172Y-81567D01*
X189D01*
X439Y-81667D01*
X655Y-81734D01*
X755Y-81767D01*
X822Y-81784D01*
X872Y-81801D01*
X889D01*
X1172Y-81867D01*
X1305Y-81884D01*
X1422Y-81901D01*
X1522Y-81917D01*
X1605Y-81934D01*
X1672D01*
X1955Y-81951D01*
X2088D01*
X2222Y-81967D01*
X2472D01*
X2905Y-81951D01*
X3088D01*
X3271Y-81934D01*
X3422D01*
X3538Y-81917D01*
X3638D01*
X4071Y-81867D01*
X4255Y-81834D01*
X4438Y-81817D01*
X4588Y-81784D01*
X4705Y-81767D01*
X4771Y-81751D01*
X4805D01*
X5221Y-81651D01*
X5421Y-81601D01*
X5588Y-81567D01*
X5721Y-81534D01*
X5821Y-81501D01*
X5904Y-81484D01*
X5921D01*
X6304Y-81351D01*
X6487Y-81301D01*
X6637Y-81234D01*
X6771Y-81184D01*
X6871Y-81151D01*
X6937Y-81134D01*
X6954Y-81117D01*
X7054Y-81384D01*
X7104Y-81517D01*
X7137Y-81617D01*
X7171Y-81717D01*
X7204Y-81784D01*
X7221Y-81834D01*
Y-81851D01*
X7321Y-82117D01*
X7354Y-82234D01*
X7387Y-82351D01*
X7420Y-82434D01*
X7454Y-82500D01*
X7470Y-82550D01*
Y-82567D01*
X7554Y-82850D01*
X7587Y-82967D01*
X7620Y-83084D01*
X7637Y-83184D01*
X7654Y-83250D01*
X7670Y-83300D01*
Y-83317D01*
X7720Y-83583D01*
X7737Y-83800D01*
X7754Y-83900D01*
X7770Y-83967D01*
Y-84017D01*
Y-84033D01*
X7354Y-84183D01*
X7154Y-84233D01*
X6987Y-84283D01*
X6821Y-84333D01*
X6704Y-84367D01*
X6637Y-84383D01*
X6604D01*
X6154Y-84500D01*
X5954Y-84550D01*
X5754Y-84583D01*
X5588Y-84616D01*
X5471Y-84650D01*
X5388Y-84667D01*
X5354D01*
X4854Y-84750D01*
X4621Y-84783D01*
X4405Y-84800D01*
X4221Y-84833D01*
X4088D01*
X3988Y-84850D01*
X3955D01*
X3372Y-84883D01*
X3105D01*
X2855Y-84900D01*
X2022D01*
X1722Y-84883D01*
X1439Y-84867D01*
X1205Y-84850D01*
X1005Y-84833D01*
X856Y-84817D01*
X755Y-84800D01*
X722D01*
X439Y-84750D01*
X156Y-84700D01*
X-94Y-84650D01*
X-311Y-84583D01*
X-494Y-84533D01*
X-644Y-84500D01*
X-728Y-84483D01*
X-761Y-84467D01*
X-1027Y-84383D01*
X-1261Y-84300D01*
X-1494Y-84200D01*
X-1677Y-84133D01*
X-1844Y-84050D01*
X-1961Y-84000D01*
X-2027Y-83967D01*
X-2060Y-83950D01*
X-2277Y-83833D01*
X-2494Y-83717D01*
X-2677Y-83600D01*
X-2844Y-83500D01*
X-2977Y-83400D01*
X-3077Y-83334D01*
X-3144Y-83284D01*
X-3160Y-83267D01*
X-3343Y-83117D01*
X-3527Y-82967D01*
X-3677Y-82817D01*
X-3810Y-82684D01*
X-3910Y-82584D01*
X-3993Y-82500D01*
X-4043Y-82434D01*
X-4060Y-82417D01*
X-4310Y-82051D01*
X-4426Y-81884D01*
X-4527Y-81734D01*
X-4593Y-81601D01*
X-4660Y-81484D01*
X-4693Y-81417D01*
X-4710Y-81401D01*
X-4893Y-80984D01*
X-4960Y-80784D01*
X-5010Y-80601D01*
X-5060Y-80451D01*
X-5093Y-80334D01*
X-5110Y-80268D01*
Y-80234D01*
X-5193Y-79768D01*
X-5210Y-79551D01*
X-5226Y-79368D01*
X-5243Y-79201D01*
Y-79068D01*
Y-78985D01*
Y-78951D01*
Y-78735D01*
X-5226Y-78535D01*
X-5210Y-78351D01*
X-5193Y-78185D01*
X-5176Y-78052D01*
X-5160Y-77935D01*
X-5143Y-77868D01*
Y-77852D01*
X-5076Y-77502D01*
X-5043Y-77335D01*
X-5010Y-77202D01*
X-4960Y-77085D01*
X-4943Y-76985D01*
X-4910Y-76935D01*
Y-76919D01*
X-4760Y-76619D01*
X-4693Y-76485D01*
X-4627Y-76369D01*
X-4577Y-76269D01*
X-4527Y-76202D01*
X-4510Y-76152D01*
X-4493Y-76135D01*
X-4326Y-75885D01*
X-4177Y-75686D01*
X-4110Y-75602D01*
X-4060Y-75535D01*
X-4027Y-75502D01*
X-4010Y-75486D01*
X-3793Y-75269D01*
X-3593Y-75102D01*
X-3510Y-75036D01*
X-3443Y-74986D01*
X-3410Y-74952D01*
X-3393Y-74936D01*
X-3144Y-74752D01*
X-2910Y-74602D01*
X-2810Y-74552D01*
X-2727Y-74503D01*
X-2677Y-74486D01*
X-2660Y-74469D01*
X-2377Y-74336D01*
X-2244Y-74269D01*
X-2110Y-74219D01*
X-2010Y-74169D01*
X-1927Y-74136D01*
X-1877Y-74103D01*
X-1860D01*
X-1561Y-73986D01*
X-1411Y-73936D01*
X-1294Y-73903D01*
X-1177Y-73853D01*
X-1094Y-73836D01*
X-1044Y-73803D01*
X-1027D01*
X-861Y-73736D01*
X-728Y-73703D01*
X-644Y-73669D01*
X-594Y-73653D01*
X-561D01*
X-527Y-73636D01*
X-477Y-73619D01*
X-411Y-73603D01*
X-244Y-73536D01*
X-28Y-73453D01*
X189Y-73386D01*
X372Y-73319D01*
X439Y-73286D01*
X506Y-73269D01*
X539Y-73253D01*
X556D01*
X789Y-73186D01*
X989Y-73120D01*
X1072Y-73086D01*
X1139Y-73070D01*
X1172Y-73053D01*
X1189D01*
X1405Y-72953D01*
X1589Y-72886D01*
X1672Y-72853D01*
X1722Y-72836D01*
X1755Y-72820D01*
X1772D01*
X1972Y-72736D01*
X2139Y-72670D01*
X2205Y-72636D01*
X2255Y-72603D01*
X2288Y-72586D01*
X2305D01*
X2472Y-72486D01*
X2622Y-72386D01*
X2722Y-72320D01*
X2738Y-72303D01*
X2755D01*
X2922Y-72186D01*
X3038Y-72086D01*
X3122Y-72003D01*
X3155Y-71970D01*
X3271Y-71837D01*
X3355Y-71703D01*
X3422Y-71603D01*
X3438Y-71586D01*
Y-71570D01*
X3521Y-71403D01*
X3588Y-71253D01*
X3621Y-71137D01*
X3638Y-71120D01*
Y-71103D01*
X3671Y-70903D01*
X3688Y-70720D01*
X3705Y-70654D01*
Y-70587D01*
Y-70553D01*
Y-70537D01*
X3688Y-70320D01*
X3655Y-70120D01*
X3621Y-69954D01*
X3571Y-69804D01*
X3521Y-69687D01*
X3471Y-69587D01*
X3455Y-69537D01*
X3438Y-69520D01*
X3322Y-69370D01*
X3205Y-69237D01*
X3072Y-69137D01*
X2955Y-69037D01*
X2838Y-68971D01*
X2755Y-68921D01*
X2688Y-68887D01*
X2672Y-68871D01*
X2272Y-68721D01*
X2088Y-68671D01*
X1922Y-68621D01*
X1772Y-68571D01*
X1655Y-68537D01*
X1589Y-68521D01*
X1555D01*
X1105Y-68454D01*
X905Y-68437D01*
X706Y-68421D01*
X539Y-68404D01*
X72D01*
X-144Y-68421D01*
X-361D01*
X-544Y-68437D01*
X-694Y-68454D01*
X-811D01*
X-877Y-68471D01*
X-911D01*
X-1327Y-68537D01*
X-1527Y-68571D01*
X-1694Y-68604D01*
X-1844Y-68637D01*
X-1944Y-68654D01*
X-2027Y-68687D01*
X-2044D01*
X-2444Y-68771D01*
X-2610Y-68821D01*
X-2760Y-68854D01*
X-2894Y-68887D01*
X-2993Y-68921D01*
X-3060Y-68937D01*
X-3077D01*
X-3410Y-69037D01*
X-3560Y-69087D01*
X-3693Y-69137D01*
X-3810Y-69170D01*
X-3893Y-69204D01*
X-3943Y-69220D01*
X-3960D01*
X-4060Y-68987D01*
X-4143Y-68787D01*
X-4160Y-68704D01*
X-4193Y-68637D01*
X-4210Y-68604D01*
Y-68587D01*
X-4293Y-68337D01*
X-4376Y-68121D01*
X-4393Y-68038D01*
X-4410Y-67971D01*
X-4426Y-67921D01*
Y-67904D01*
X-4493Y-67638D01*
X-4527Y-67521D01*
X-4543Y-67404D01*
X-4560Y-67321D01*
X-4577Y-67254D01*
X-4593Y-67204D01*
Y-67188D01*
X-4643Y-66921D01*
X-4676Y-66688D01*
X-4693Y-66588D01*
X-4710Y-66521D01*
Y-66471D01*
Y-66455D01*
X-4310Y-66338D01*
X-4127Y-66271D01*
X-3960Y-66221D01*
X-3810Y-66188D01*
X-3693Y-66155D01*
X-3627Y-66121D01*
X-3593D01*
X-3160Y-66005D01*
X-2944Y-65955D01*
X-2744Y-65921D01*
X-2577Y-65871D01*
X-2444Y-65855D01*
X-2360Y-65821D01*
X-2327D01*
X-1844Y-65738D01*
X-1611Y-65705D01*
X-1411Y-65671D01*
X-1227Y-65655D01*
X-1094Y-65638D01*
X-1011Y-65621D01*
X-977D01*
X-477Y-65588D01*
X-228D01*
X-28Y-65571D01*
X422D01*
X1039Y-65588D01*
D02*
G37*
G36*
X38163Y-58440D02*
X38646D01*
X38712Y-58457D01*
X38812D01*
X39012Y-58473D01*
X39179D01*
X39246Y-58490D01*
X39346D01*
X39529Y-58507D01*
X39679Y-58540D01*
X39795Y-58557D01*
X39829D01*
X39929Y-58857D01*
X40012Y-59140D01*
X40095Y-59390D01*
X40162Y-59606D01*
X40229Y-59773D01*
X40279Y-59906D01*
X40295Y-59990D01*
X40312Y-60023D01*
X40379Y-60256D01*
X40445Y-60456D01*
X40512Y-60656D01*
X40562Y-60823D01*
X40595Y-60956D01*
X40629Y-61056D01*
X40662Y-61123D01*
Y-61139D01*
X40795Y-61556D01*
X40912Y-61906D01*
X41012Y-62206D01*
X41095Y-62456D01*
X41162Y-62656D01*
X41212Y-62789D01*
X41228Y-62872D01*
X41245Y-62905D01*
X41328Y-63139D01*
X41395Y-63372D01*
X41478Y-63605D01*
X41545Y-63822D01*
X41612Y-64022D01*
X41645Y-64172D01*
X41678Y-64272D01*
X41695Y-64288D01*
Y-64305D01*
X41762Y-64488D01*
X41828Y-64672D01*
X41845Y-64738D01*
X41862Y-64805D01*
X41878Y-64838D01*
Y-64855D01*
X41962Y-65105D01*
X42028Y-65338D01*
X42062Y-65422D01*
X42095Y-65505D01*
X42112Y-65555D01*
Y-65571D01*
X42211Y-65871D01*
X42245Y-66005D01*
X42295Y-66138D01*
X42328Y-66255D01*
X42361Y-66338D01*
X42395Y-66405D01*
Y-66421D01*
X42512Y-66788D01*
X42578Y-66971D01*
X42628Y-67138D01*
X42678Y-67288D01*
X42711Y-67404D01*
X42728Y-67471D01*
X42745Y-67504D01*
X42861Y-67871D01*
X42978Y-68237D01*
X43095Y-68604D01*
X43211Y-68954D01*
X43311Y-69254D01*
X43361Y-69387D01*
X43395Y-69487D01*
X43428Y-69587D01*
X43445Y-69654D01*
X43461Y-69687D01*
Y-69704D01*
X43611Y-70187D01*
X43778Y-70703D01*
X43944Y-71187D01*
X44078Y-71637D01*
X44161Y-71853D01*
X44211Y-72036D01*
X44278Y-72203D01*
X44311Y-72353D01*
X44361Y-72470D01*
X44394Y-72570D01*
X44411Y-72620D01*
Y-72636D01*
X44544Y-73036D01*
X44678Y-73469D01*
X44961Y-74319D01*
X45227Y-75169D01*
X45361Y-75569D01*
X45494Y-75952D01*
X45611Y-76319D01*
X45711Y-76652D01*
X45811Y-76935D01*
X45894Y-77202D01*
X45961Y-77402D01*
X45994Y-77552D01*
X46027Y-77652D01*
X46044Y-77668D01*
Y-77685D01*
X46227Y-78235D01*
X46410Y-78801D01*
X46794Y-79968D01*
X46977Y-80534D01*
X47160Y-81101D01*
X47344Y-81651D01*
X47510Y-82167D01*
X47660Y-82650D01*
X47810Y-83084D01*
X47943Y-83483D01*
X48043Y-83817D01*
X48093Y-83967D01*
X48143Y-84083D01*
X48177Y-84200D01*
X48210Y-84300D01*
X48227Y-84367D01*
X48243Y-84417D01*
X48260Y-84450D01*
Y-84467D01*
X48110Y-84500D01*
X47977Y-84533D01*
X47877Y-84550D01*
X47843D01*
X47677Y-84567D01*
X47544D01*
X47427Y-84583D01*
X47394D01*
X47210Y-84600D01*
X46894D01*
X46710Y-84616D01*
X46227D01*
X46077Y-84600D01*
X45744D01*
X45594Y-84583D01*
X45444D01*
X45277Y-84567D01*
X45144D01*
X45027Y-84550D01*
X44994D01*
X44811Y-84517D01*
X44661Y-84500D01*
X44594Y-84483D01*
X44544Y-84467D01*
X44511D01*
X44294Y-83750D01*
X44094Y-83067D01*
X43911Y-82434D01*
X43745Y-81851D01*
X43594Y-81317D01*
X43445Y-80817D01*
X43311Y-80384D01*
X43195Y-79984D01*
X43095Y-79634D01*
X43011Y-79335D01*
X42928Y-79068D01*
X42878Y-78851D01*
X42828Y-78701D01*
X42795Y-78585D01*
X42761Y-78501D01*
Y-78485D01*
X32914D01*
X32864Y-78651D01*
X32814Y-78801D01*
X32764Y-78935D01*
X32731Y-79051D01*
X32681Y-79251D01*
X32631Y-79385D01*
X32614Y-79468D01*
X32597Y-79535D01*
X32581Y-79568D01*
X32564Y-79601D01*
Y-79651D01*
X32514Y-79768D01*
X32464Y-79934D01*
X32414Y-80101D01*
X32364Y-80268D01*
X32314Y-80418D01*
X32297Y-80518D01*
X32281Y-80534D01*
Y-80551D01*
X32231Y-80717D01*
X32197Y-80884D01*
X32181Y-80968D01*
X32164Y-81018D01*
X32148Y-81051D01*
Y-81067D01*
X32064Y-81284D01*
X31997Y-81501D01*
X31964Y-81601D01*
X31948Y-81684D01*
X31931Y-81734D01*
Y-81751D01*
X31864Y-81934D01*
X31797Y-82134D01*
X31748Y-82334D01*
X31698Y-82500D01*
X31648Y-82667D01*
X31614Y-82784D01*
X31581Y-82867D01*
Y-82900D01*
X31498Y-83167D01*
X31414Y-83434D01*
X31331Y-83700D01*
X31264Y-83933D01*
X31198Y-84150D01*
X31148Y-84317D01*
X31131Y-84383D01*
X31114Y-84433D01*
X31098Y-84450D01*
Y-84467D01*
X30948Y-84500D01*
X30798Y-84533D01*
X30698Y-84550D01*
X30665D01*
X30498Y-84567D01*
X30331D01*
X30265Y-84583D01*
X30181D01*
X30015Y-84600D01*
X29698D01*
X29532Y-84616D01*
X29032D01*
X28865Y-84600D01*
X28532D01*
X28348Y-84583D01*
X28182D01*
X27982Y-84567D01*
X27815D01*
X27765Y-84550D01*
X27665D01*
X27482Y-84517D01*
X27349Y-84500D01*
X27249Y-84467D01*
X27215D01*
X27315Y-84167D01*
X27399Y-83900D01*
X27482Y-83650D01*
X27549Y-83434D01*
X27599Y-83267D01*
X27649Y-83134D01*
X27665Y-83050D01*
X27682Y-83017D01*
X27749Y-82784D01*
X27815Y-82567D01*
X27882Y-82384D01*
X27932Y-82217D01*
X27965Y-82067D01*
X27998Y-81967D01*
X28032Y-81901D01*
Y-81884D01*
X28165Y-81467D01*
X28298Y-81117D01*
X28398Y-80817D01*
X28465Y-80568D01*
X28532Y-80384D01*
X28582Y-80251D01*
X28598Y-80168D01*
X28615Y-80134D01*
X28698Y-79901D01*
X28765Y-79668D01*
X28848Y-79434D01*
X28915Y-79201D01*
X28982Y-79018D01*
X29032Y-78868D01*
X29065Y-78768D01*
X29082Y-78751D01*
Y-78735D01*
X29132Y-78535D01*
X29182Y-78351D01*
X29215Y-78285D01*
X29232Y-78218D01*
X29248Y-78185D01*
Y-78168D01*
X29332Y-77918D01*
X29415Y-77702D01*
X29432Y-77602D01*
X29465Y-77535D01*
X29481Y-77485D01*
Y-77468D01*
X29581Y-77168D01*
X29615Y-77018D01*
X29665Y-76885D01*
X29698Y-76769D01*
X29731Y-76685D01*
X29765Y-76619D01*
Y-76602D01*
X29881Y-76235D01*
X29948Y-76052D01*
X29998Y-75885D01*
X30048Y-75752D01*
X30081Y-75635D01*
X30098Y-75569D01*
X30115Y-75535D01*
X30231Y-75169D01*
X30348Y-74802D01*
X30465Y-74436D01*
X30581Y-74086D01*
X30665Y-73786D01*
X30714Y-73653D01*
X30748Y-73553D01*
X30781Y-73453D01*
X30798Y-73386D01*
X30814Y-73353D01*
Y-73336D01*
X30981Y-72853D01*
X31148Y-72336D01*
X31298Y-71853D01*
X31448Y-71387D01*
X31514Y-71170D01*
X31581Y-70987D01*
X31648Y-70820D01*
X31681Y-70670D01*
X31731Y-70553D01*
X31764Y-70454D01*
X31781Y-70403D01*
Y-70387D01*
X31914Y-69970D01*
X32048Y-69554D01*
X32331Y-68704D01*
X32597Y-67854D01*
X32731Y-67454D01*
X32864Y-67071D01*
X32981Y-66705D01*
X33081Y-66388D01*
X33180Y-66088D01*
X33264Y-65838D01*
X33331Y-65638D01*
X33364Y-65488D01*
X33397Y-65388D01*
X33414Y-65355D01*
X33597Y-64805D01*
X33780Y-64222D01*
X34164Y-63072D01*
X34347Y-62489D01*
X34530Y-61922D01*
X34697Y-61389D01*
X34863Y-60873D01*
X35030Y-60389D01*
X35163Y-59939D01*
X35297Y-59556D01*
X35397Y-59206D01*
X35447Y-59056D01*
X35497Y-58940D01*
X35530Y-58823D01*
X35563Y-58723D01*
X35580Y-58657D01*
X35597Y-58607D01*
X35613Y-58573D01*
Y-58557D01*
X35796Y-58523D01*
X35963Y-58507D01*
X36030D01*
X36080Y-58490D01*
X36113D01*
X36313Y-58473D01*
X36480D01*
X36563Y-58457D01*
X36663D01*
X36863Y-58440D01*
X37196D01*
X37380Y-58423D01*
X38079D01*
X38163Y-58440D01*
D02*
G37*
G36*
X135050Y-158450D02*
X136350Y-159750D01*
Y-163650D01*
X140250Y-167550D01*
Y-168200D01*
X144800Y-172750D01*
X146100D01*
X148050Y-174700D01*
X154700D01*
X155200Y-175200D01*
Y-184200D01*
X150400D01*
X148050Y-183150D01*
X144150Y-182500D01*
X142200Y-180550D01*
X140250D01*
X135700Y-176000D01*
X135050D01*
X130500Y-171450D01*
Y-169500D01*
X128550Y-167550D01*
Y-164950D01*
X126600Y-163000D01*
Y-158450D01*
X125950Y-157800D01*
Y-155200D01*
X135050D01*
Y-158450D01*
D02*
G37*
G36*
X-148050Y183150D02*
X-144150Y182500D01*
X-142200Y180550D01*
X-140250D01*
X-135700Y176000D01*
X-135050D01*
X-130500Y171450D01*
Y169500D01*
X-128550Y167550D01*
Y164950D01*
X-126600Y163000D01*
Y158450D01*
X-125950Y157800D01*
Y155200D01*
X-135050D01*
Y158450D01*
X-136350Y159750D01*
Y163650D01*
X-140250Y167550D01*
Y168200D01*
X-144800Y172750D01*
X-146100D01*
X-148050Y174700D01*
X-154700D01*
X-155200Y175200D01*
Y184200D01*
X-150400D01*
X-148050Y183150D01*
D02*
G37*
G36*
X184200Y150400D02*
X183150Y148050D01*
X182500Y144150D01*
X180550Y142200D01*
Y140250D01*
X176000Y135700D01*
Y135050D01*
X171450Y130500D01*
X169500D01*
X167550Y128550D01*
X164950D01*
X163000Y126600D01*
X158450D01*
X157800Y125950D01*
X155200D01*
Y135050D01*
X158450D01*
X159750Y136350D01*
X163650D01*
X167550Y140250D01*
X168200D01*
X172750Y144800D01*
Y146100D01*
X174700Y148050D01*
Y154700D01*
X175200Y155200D01*
X184200D01*
Y150400D01*
D02*
G37*
G36*
X-175350Y151950D02*
X-174050Y150650D01*
Y146750D01*
X-170150Y142850D01*
Y142200D01*
X-165600Y137650D01*
X-164300D01*
X-162350Y135700D01*
X-155700D01*
X-155200Y135200D01*
Y126200D01*
X-160000D01*
X-162350Y127250D01*
X-166250Y127900D01*
X-168200Y129850D01*
X-170150D01*
X-174700Y134400D01*
X-175350D01*
X-179900Y138950D01*
Y140900D01*
X-181850Y142850D01*
Y145450D01*
X-183800Y147400D01*
Y151950D01*
X-184450Y152600D01*
Y155200D01*
X-175350D01*
Y151950D01*
D02*
G37*
G36*
X-155200Y-135050D02*
X-158450D01*
X-159750Y-136350D01*
X-163650D01*
X-167550Y-140250D01*
X-168200D01*
X-172750Y-144800D01*
Y-146100D01*
X-174700Y-148050D01*
Y-154700D01*
X-175200Y-155200D01*
X-184200D01*
Y-150400D01*
X-183150Y-148050D01*
X-182500Y-144150D01*
X-180550Y-142200D01*
Y-140250D01*
X-176000Y-135700D01*
Y-135050D01*
X-171450Y-130500D01*
X-169500D01*
X-167550Y-128550D01*
X-164950D01*
X-163000Y-126600D01*
X-158450D01*
X-157800Y-125950D01*
X-155200D01*
Y-135050D01*
D02*
G37*
G36*
X162350Y-127250D02*
X166250Y-127900D01*
X168200Y-129850D01*
X170150D01*
X174700Y-134400D01*
X175350D01*
X179900Y-138950D01*
Y-140900D01*
X181850Y-142850D01*
Y-145450D01*
X183800Y-147400D01*
Y-151950D01*
X184450Y-152600D01*
Y-155200D01*
X175350D01*
Y-151950D01*
X174050Y-150650D01*
Y-146750D01*
X170150Y-142850D01*
Y-142200D01*
X165600Y-137650D01*
X164300D01*
X162350Y-135700D01*
X155700D01*
X155200Y-135200D01*
Y-126200D01*
X160000D01*
X162350Y-127250D01*
D02*
G37*
G36*
X155200Y175350D02*
X151950D01*
X150650Y174050D01*
X146750D01*
X142850Y170150D01*
X142200D01*
X137650Y165600D01*
Y164300D01*
X135700Y162350D01*
Y155700D01*
X135200Y155200D01*
X126200D01*
Y160000D01*
X127250Y162350D01*
X127900Y166250D01*
X129850Y168200D01*
Y170150D01*
X134400Y174700D01*
Y175350D01*
X138950Y179900D01*
X140900D01*
X142850Y181850D01*
X145450D01*
X147400Y183800D01*
X151950D01*
X152600Y184450D01*
X155200D01*
Y175350D01*
D02*
G37*
%LPC*%
G36*
X-31736Y-61439D02*
X-33319D01*
X-33686Y-61456D01*
X-34019Y-61489D01*
X-34319Y-61506D01*
X-34569Y-61539D01*
X-34685Y-61556D01*
X-34769Y-61572D01*
X-34835D01*
X-34885Y-61589D01*
X-34935D01*
X-35285Y-61639D01*
X-35619Y-61706D01*
X-35935Y-61772D01*
X-36202Y-61839D01*
X-36435Y-61889D01*
X-36602Y-61939D01*
X-36668Y-61956D01*
X-36718Y-61972D01*
X-36735Y-61989D01*
X-36752D01*
X-37068Y-62089D01*
X-37368Y-62206D01*
X-37651Y-62322D01*
X-37885Y-62439D01*
X-38085Y-62539D01*
X-38235Y-62622D01*
X-38335Y-62672D01*
X-38368Y-62689D01*
X-38634Y-62855D01*
X-38901Y-63039D01*
X-39134Y-63222D01*
X-39334Y-63389D01*
X-39501Y-63522D01*
X-39634Y-63639D01*
X-39701Y-63705D01*
X-39734Y-63739D01*
X-39951Y-63972D01*
X-40167Y-64222D01*
X-40351Y-64438D01*
X-40517Y-64655D01*
X-40651Y-64838D01*
X-40750Y-64988D01*
X-40817Y-65088D01*
X-40834Y-65105D01*
Y-65121D01*
X-41017Y-65422D01*
X-41184Y-65721D01*
X-41317Y-66021D01*
X-41434Y-66288D01*
X-41534Y-66505D01*
X-41600Y-66688D01*
X-41634Y-66754D01*
X-41650Y-66804D01*
X-41667Y-66838D01*
Y-66854D01*
X-41784Y-67221D01*
X-41884Y-67588D01*
X-41967Y-67954D01*
X-42050Y-68271D01*
X-42100Y-68554D01*
X-42117Y-68671D01*
X-42133Y-68771D01*
X-42150Y-68854D01*
X-42167Y-68921D01*
Y-68954D01*
Y-68971D01*
X-42234Y-69404D01*
X-42267Y-69837D01*
X-42300Y-70254D01*
X-42333Y-70637D01*
Y-70820D01*
Y-70970D01*
X-42350Y-71103D01*
Y-71220D01*
Y-71320D01*
Y-71387D01*
Y-71437D01*
Y-71453D01*
Y-71986D01*
X-42317Y-72486D01*
X-42300Y-72953D01*
X-42284Y-73153D01*
X-42267Y-73353D01*
X-42250Y-73536D01*
X-42234Y-73686D01*
X-42217Y-73819D01*
X-42200Y-73936D01*
X-42183Y-74036D01*
Y-74103D01*
X-42167Y-74136D01*
Y-74153D01*
X-42100Y-74602D01*
X-42017Y-75019D01*
X-41934Y-75402D01*
X-41850Y-75719D01*
X-41784Y-75985D01*
X-41750Y-76102D01*
X-41717Y-76202D01*
X-41700Y-76269D01*
X-41684Y-76319D01*
X-41667Y-76352D01*
Y-76369D01*
X-41534Y-76735D01*
X-41400Y-77069D01*
X-41250Y-77368D01*
X-41134Y-77618D01*
X-41017Y-77835D01*
X-40917Y-78002D01*
X-40851Y-78102D01*
X-40834Y-78118D01*
Y-78135D01*
X-40651Y-78418D01*
X-40451Y-78668D01*
X-40267Y-78901D01*
X-40101Y-79101D01*
X-39951Y-79268D01*
X-39817Y-79385D01*
X-39751Y-79451D01*
X-39718Y-79485D01*
X-39484Y-79701D01*
X-39234Y-79884D01*
X-39001Y-80051D01*
X-38784Y-80201D01*
X-38601Y-80318D01*
X-38468Y-80418D01*
X-38368Y-80468D01*
X-38351Y-80484D01*
X-38335D01*
X-38051Y-80634D01*
X-37768Y-80767D01*
X-37485Y-80868D01*
X-37235Y-80968D01*
X-37018Y-81034D01*
X-36851Y-81084D01*
X-36785Y-81117D01*
X-36735D01*
X-36718Y-81134D01*
X-36702D01*
X-36368Y-81217D01*
X-36035Y-81301D01*
X-35735Y-81367D01*
X-35452Y-81417D01*
X-35202Y-81451D01*
X-35019Y-81484D01*
X-34952D01*
X-34902Y-81501D01*
X-34852D01*
X-34136Y-81567D01*
X-33786Y-81584D01*
X-33486Y-81601D01*
X-33219Y-81617D01*
X-32386D01*
X-32269Y-81601D01*
X-32019D01*
X-31736Y-81584D01*
X-31486D01*
X-31403Y-81567D01*
X-31253D01*
X-30970Y-81534D01*
X-30720Y-81517D01*
X-30503Y-81501D01*
X-30320Y-81484D01*
X-30187Y-81467D01*
X-30087Y-81451D01*
X-30003D01*
Y-81217D01*
Y-81001D01*
Y-80817D01*
Y-80651D01*
Y-80501D01*
Y-80401D01*
Y-80334D01*
Y-80318D01*
Y-79984D01*
Y-79851D01*
Y-79718D01*
Y-79618D01*
Y-79535D01*
Y-79485D01*
Y-79468D01*
Y-79151D01*
Y-78885D01*
Y-78651D01*
Y-78468D01*
Y-78318D01*
Y-78201D01*
Y-78135D01*
Y-78118D01*
Y-77752D01*
Y-77568D01*
Y-77402D01*
Y-77268D01*
Y-77152D01*
Y-77085D01*
Y-77052D01*
Y-76902D01*
Y-76752D01*
Y-76635D01*
Y-76619D01*
Y-76602D01*
Y-76419D01*
Y-76252D01*
Y-76169D01*
Y-76119D01*
Y-76085D01*
Y-76069D01*
Y-75852D01*
Y-75635D01*
Y-75535D01*
Y-75469D01*
Y-75419D01*
Y-75402D01*
Y-75119D01*
Y-74986D01*
Y-74852D01*
Y-74752D01*
Y-74669D01*
Y-74602D01*
Y-74586D01*
Y-74303D01*
Y-74019D01*
Y-73736D01*
Y-73469D01*
Y-73253D01*
Y-73070D01*
Y-73003D01*
Y-72953D01*
Y-72920D01*
Y-72903D01*
Y-72536D01*
Y-72136D01*
Y-71770D01*
Y-71420D01*
Y-71103D01*
Y-70987D01*
Y-70870D01*
Y-70770D01*
Y-70703D01*
Y-70670D01*
Y-70654D01*
Y-70020D01*
Y-69370D01*
Y-68721D01*
Y-68404D01*
Y-68121D01*
Y-67838D01*
Y-67588D01*
Y-67371D01*
Y-67171D01*
Y-67021D01*
Y-66904D01*
Y-66821D01*
Y-66804D01*
Y-66371D01*
Y-65938D01*
Y-65038D01*
Y-64172D01*
Y-63755D01*
Y-63355D01*
Y-62989D01*
Y-62639D01*
Y-62339D01*
Y-62089D01*
Y-61872D01*
Y-61722D01*
Y-61622D01*
Y-61589D01*
X-30237Y-61556D01*
X-30453Y-61539D01*
X-30536Y-61522D01*
X-30670D01*
X-30953Y-61489D01*
X-31070Y-61473D01*
X-31186D01*
X-31286Y-61456D01*
X-31436D01*
X-31736Y-61439D01*
D02*
G37*
G36*
X37846Y-62056D02*
X37596Y-62872D01*
X37363Y-63655D01*
X37129Y-64422D01*
X36913Y-65155D01*
X36696Y-65871D01*
X36496Y-66554D01*
X36296Y-67221D01*
X36113Y-67854D01*
X35930Y-68454D01*
X35747Y-69037D01*
X35580Y-69587D01*
X35430Y-70120D01*
X35280Y-70620D01*
X35130Y-71103D01*
X34997Y-71553D01*
X34863Y-71986D01*
X34747Y-72386D01*
X34630Y-72753D01*
X34530Y-73103D01*
X34430Y-73419D01*
X34347Y-73719D01*
X34264Y-74003D01*
X34197Y-74236D01*
X34130Y-74453D01*
X34064Y-74652D01*
X34014Y-74819D01*
X33980Y-74969D01*
X33947Y-75086D01*
X33914Y-75169D01*
X33897Y-75236D01*
X33880Y-75269D01*
Y-75286D01*
X41778D01*
X41528Y-74469D01*
X41295Y-73686D01*
X41079Y-72920D01*
X40862Y-72186D01*
X40645Y-71470D01*
X40445Y-70787D01*
X40245Y-70120D01*
X40062Y-69487D01*
X39879Y-68887D01*
X39712Y-68304D01*
X39546Y-67754D01*
X39379Y-67221D01*
X39229Y-66721D01*
X39096Y-66238D01*
X38962Y-65788D01*
X38829Y-65355D01*
X38712Y-64955D01*
X38596Y-64588D01*
X38496Y-64238D01*
X38396Y-63905D01*
X38312Y-63622D01*
X38229Y-63339D01*
X38163Y-63105D01*
X38096Y-62872D01*
X38029Y-62689D01*
X37979Y-62522D01*
X37946Y-62372D01*
X37913Y-62256D01*
X37879Y-62172D01*
X37863Y-62106D01*
X37846Y-62072D01*
Y-62056D01*
D02*
G37*
%LPD*%
D18*
X29250Y27800D02*
G03*
X29250Y27800I-1250J0D01*
G01*
D21*
X15500Y-24500D02*
Y24500D01*
X-15500Y-24500D02*
Y24500D01*
X15500D01*
X-15500Y-24500D02*
X15500D01*
X99135Y-184880D02*
X92470D01*
X95802D01*
Y-194877D01*
X89138Y-184880D02*
Y-194877D01*
Y-189878D01*
X87472Y-188212D01*
X84140D01*
X82473Y-189878D01*
Y-194877D01*
X79141D02*
X75809D01*
X77475D01*
Y-188212D01*
X79141D01*
X70811Y-194877D02*
X65812D01*
X64146Y-193211D01*
X65812Y-191544D01*
X69144D01*
X70811Y-189878D01*
X69144Y-188212D01*
X64146D01*
X50817Y-194877D02*
X45819D01*
X44152Y-193211D01*
X45819Y-191544D01*
X49151D01*
X50817Y-189878D01*
X49151Y-188212D01*
X44152D01*
X40820Y-194877D02*
X37488D01*
X39154D01*
Y-188212D01*
X40820D01*
X25825Y-184880D02*
Y-194877D01*
X30824D01*
X32490Y-193211D01*
Y-189878D01*
X30824Y-188212D01*
X25825D01*
X17494Y-194877D02*
X20827D01*
X22493Y-193211D01*
Y-189878D01*
X20827Y-188212D01*
X17494D01*
X15828Y-189878D01*
Y-191544D01*
X22493D01*
X833Y-194877D02*
Y-186546D01*
Y-189878D01*
X2499D01*
X-833D01*
X833D01*
Y-186546D01*
X-833Y-184880D01*
X-7498Y-188212D02*
X-10830D01*
X-12496Y-189878D01*
Y-194877D01*
X-7498D01*
X-5831Y-193211D01*
X-7498Y-191544D01*
X-12496D01*
X-22493Y-188212D02*
X-17494D01*
X-15828Y-189878D01*
Y-193211D01*
X-17494Y-194877D01*
X-22493D01*
X-30823D02*
X-27491D01*
X-25825Y-193211D01*
Y-189878D01*
X-27491Y-188212D01*
X-30823D01*
X-32489Y-189878D01*
Y-191544D01*
X-25825D01*
X-35822Y-194877D02*
X-40820D01*
X-42486Y-193211D01*
X-40820Y-191544D01*
X-37488D01*
X-35822Y-189878D01*
X-37488Y-188212D01*
X-42486D01*
X-55815Y-194877D02*
Y-188212D01*
X-57481D01*
X-59148Y-189878D01*
Y-194877D01*
Y-189878D01*
X-60814Y-188212D01*
X-62480Y-189878D01*
Y-194877D01*
X-67478D02*
X-70810D01*
X-72477Y-193211D01*
Y-189878D01*
X-70810Y-188212D01*
X-67478D01*
X-65812Y-189878D01*
Y-193211D01*
X-67478Y-194877D01*
X-77475Y-186546D02*
Y-188212D01*
X-75809D01*
X-79141D01*
X-77475D01*
Y-193211D01*
X-79141Y-194877D01*
X-85806D02*
X-89138D01*
X-90804Y-193211D01*
Y-189878D01*
X-89138Y-188212D01*
X-85806D01*
X-84139Y-189878D01*
Y-193211D01*
X-85806Y-194877D01*
X-94136Y-188212D02*
Y-194877D01*
Y-191544D01*
X-95802Y-189878D01*
X-97469Y-188212D01*
X-99135D01*
D29*
X8500Y14500D02*
G03*
X8500Y14500I-3000J0D01*
G01*
D30*
X-126200Y-155200D02*
G03*
X-126200Y-155200I-29000J0D01*
G01*
X184200D02*
G03*
X184200Y-155200I-29000J0D01*
G01*
Y155200D02*
G03*
X184200Y155200I-29000J0D01*
G01*
X-126200D02*
G03*
X-126200Y155200I-29000J0D01*
G01*
D31*
X-135200Y-155200D02*
G03*
X-135200Y-155200I-20000J0D01*
G01*
X175200D02*
G03*
X175200Y-155200I-20000J0D01*
G01*
Y155200D02*
G03*
X175200Y155200I-20000J0D01*
G01*
X-135200D02*
G03*
X-135200Y155200I-20000J0D01*
G01*
D32*
X51908Y17554D02*
X64932D01*
X51908Y20546D02*
X64932D01*
X51908Y-20546D02*
X64932D01*
X51908Y-17554D02*
X64932D01*
M02*
